<?xml version="1.0" encoding="UTF-8"?>
<!DOCTYPE svg PUBLIC "-//W3C//DTD SVG 1.1//EN" "http://www.w3.org/Graphics/SVG/1.1/DTD/svg11.dtd">
<!-- Creator: CorelDRAW 2021.5 -->
<svg xmlns="http://www.w3.org/2000/svg" xml:space="preserve" width="20.4082mm" height="22.5797mm" version="1.1" style="shape-rendering:geometricPrecision; text-rendering:geometricPrecision; image-rendering:optimizeQuality; fill-rule:evenodd; clip-rule:evenodd"
viewBox="0 0 21.96 24.3"
 xmlns:xlink="http://www.w3.org/1999/xlink"
 xmlns:xodm="http://www.corel.com/coreldraw/odm/2003">
 <defs>
  <style type="text/css">
   <![CDATA[
    .fil0 {fill:#252422;fill-rule:nonzero}
   ]]>
  </style>
 </defs>
 <g id="Слой_x0020_1">
  <metadata id="CorelCorpID_0Corel-Layer"/>
  <path class="fil0" d="M14.42 1.85l-1.98 0c0.08,0.2 0.12,0.41 0.12,0.64l0 1.53 -9.62 0 0 -1.53c0,-0.22 0.04,-0.44 0.12,-0.64l-1.98 0c-0.6,0 -1.08,0.48 -1.08,1.08l0 17.87c0,0.6 0.48,1.09 1.08,1.09l11.06 0c-0.16,-0.34 -0.29,-0.71 -0.38,-1.09l-10.68 0 0 -17.87 0.78 0 0 2.16 11.78 0 0 -2.16 0.78 0 0 11.75c0.34,-0.2 0.7,-0.35 1.08,-0.47l0 -11.28c0,-0.59 -0.49,-1.08 -1.08,-1.08z"/>
  <path class="fil0" d="M7.75 1.43c-0.27,0 -0.49,-0.22 -0.49,-0.49 0,-0.28 0.22,-0.49 0.49,-0.49 0.27,0 0.49,0.22 0.49,0.49 0,0.28 -0.22,0.49 -0.49,0.49zm2.99 -0.05l-2.03 0 0 -0.42c0,-0.26 -0.11,-0.5 -0.28,-0.67 -0.17,-0.17 -0.41,-0.28 -0.68,-0.28 -0.52,0 -0.95,0.43 -0.95,0.96l0 0.42 -2.03 0c-0.61,0 -1.11,0.49 -1.11,1.1l0 0.8 8.18 0 0 -0.8c0,-0.61 -0.49,-1.1 -1.1,-1.1z"/>
  <path class="fil0" d="M4.8 8.92l-2.29 0 0 -2.29 2.29 0 0 2.29zm0.18 -2.65l-2.65 0c-0.1,0 -0.18,0.08 -0.18,0.18l0 2.65c0,0.1 0.08,0.18 0.18,0.18l2.65 0c0.1,0 0.18,-0.08 0.18,-0.18l0 -2.65c0,-0.1 -0.08,-0.18 -0.18,-0.18z"/>
  <path class="fil0" d="M13.17 7.02l-7.16 0c-0.1,0 -0.18,-0.08 -0.18,-0.17 0,-0.1 0.08,-0.18 0.18,-0.18l7.16 0c0.1,0 0.18,0.08 0.18,0.18 0,0.09 -0.08,0.17 -0.18,0.17z"/>
  <path class="fil0" d="M13.17 7.96l-7.16 0c-0.1,0 -0.18,-0.08 -0.18,-0.18 0,-0.09 0.08,-0.18 0.18,-0.18l7.16 0c0.1,0 0.18,0.09 0.18,0.18 0,0.1 -0.08,0.18 -0.18,0.18z"/>
  <path class="fil0" d="M11.13 8.9l-5.12 0c-0.1,0 -0.18,-0.08 -0.18,-0.18 0,-0.1 0.08,-0.18 0.18,-0.18l5.12 0c0.1,0 0.18,0.08 0.18,0.18 0,0.1 -0.08,0.18 -0.18,0.18z"/>
  <path class="fil0" d="M4.8 13.86l-2.29 0 0 -2.29 2.29 0 0 2.29zm0.18 -2.65l-2.65 0c-0.1,0 -0.18,0.08 -0.18,0.18l0 2.65c0,0.1 0.08,0.18 0.18,0.18l2.65 0c0.1,0 0.18,-0.08 0.18,-0.18l0 -2.65c0,-0.1 -0.08,-0.18 -0.18,-0.18z"/>
  <path class="fil0" d="M13.17 11.96l-7.16 0c-0.1,0 -0.18,-0.09 -0.18,-0.18 0,-0.1 0.08,-0.18 0.18,-0.18l7.16 0c0.1,0 0.18,0.08 0.18,0.18 0,0.09 -0.08,0.18 -0.18,0.18z"/>
  <path class="fil0" d="M13.17 12.9l-7.16 0c-0.1,0 -0.18,-0.09 -0.18,-0.18 0,-0.1 0.08,-0.18 0.18,-0.18l7.16 0c0.1,0 0.18,0.08 0.18,0.18 0,0.09 -0.08,0.18 -0.18,0.18z"/>
  <path class="fil0" d="M11.13 13.83l-5.12 0c-0.1,0 -0.18,-0.08 -0.18,-0.18 0,-0.09 0.08,-0.18 0.18,-0.18l5.12 0c0.1,0 0.18,0.09 0.18,0.18 0,0.1 -0.08,0.18 -0.18,0.18z"/>
  <path class="fil0" d="M4.8 18.8l-2.29 0 0 -2.29 2.29 0 0 2.29zm0.18 -2.66l-2.65 0c-0.1,0 -0.18,0.09 -0.18,0.18l0 2.65c0,0.1 0.08,0.19 0.18,0.19l2.65 0c0.1,0 0.18,-0.09 0.18,-0.19l0 -2.65c0,-0.09 -0.08,-0.18 -0.18,-0.18z"/>
  <path class="fil0" d="M12.48 16.53c-0.07,0.12 -0.14,0.24 -0.21,0.36l-6.25 0c-0.1,0 -0.18,-0.08 -0.18,-0.18 0,-0.09 0.08,-0.18 0.18,-0.18l6.46 0z"/>
  <path class="fil0" d="M12 17.47c-0.05,0.12 -0.09,0.24 -0.13,0.36l-5.85 0c-0.1,0 -0.18,-0.08 -0.18,-0.18 0,-0.1 0.08,-0.18 0.18,-0.18l5.98 0z"/>
  <path class="fil0" d="M11.13 18.77l-5.12 0c-0.1,0 -0.18,-0.09 -0.18,-0.18 0,-0.1 0.08,-0.18 0.18,-0.18l5.12 0c0.1,0 0.18,0.08 0.18,0.18 0,0.09 -0.08,0.18 -0.18,0.18z"/>
  <path class="fil0" d="M3.26 8.69c-0.05,0 -0.09,-0.02 -0.13,-0.05l-0.4 -0.4c-0.07,-0.07 -0.07,-0.18 0,-0.25 0.07,-0.08 0.18,-0.08 0.25,0l0.27 0.27 1.07 -1.07c0.07,-0.07 0.18,-0.07 0.26,0 0.07,0.07 0.07,0.19 0,0.26l-1.2 1.19c-0.04,0.03 -0.08,0.05 -0.13,0.05z"/>
  <path class="fil0" d="M3.26 13.5c-0.05,0 -0.09,-0.02 -0.13,-0.05l-0.4 -0.4c-0.07,-0.08 -0.07,-0.19 0,-0.26 0.07,-0.07 0.18,-0.07 0.25,0l0.27 0.27 1.07 -1.06c0.07,-0.08 0.18,-0.08 0.26,0 0.07,0.07 0.07,0.18 0,0.25l-1.2 1.2c-0.04,0.03 -0.08,0.05 -0.13,0.05z"/>
  <path class="fil0" d="M19.13 18.51l-2.54 2.54c-0.08,0.07 -0.17,0.11 -0.27,0.11 -0.1,0 -0.2,-0.04 -0.27,-0.11l-0.85 -0.85c-0.15,-0.16 -0.15,-0.4 0,-0.54 0.15,-0.16 0.39,-0.16 0.54,0l0.58 0.57 2.27 -2.27c0.15,-0.15 0.39,-0.15 0.54,0 0.15,0.15 0.15,0.4 0,0.54zm-1.97 -2.41c-1.89,0 -3.42,1.53 -3.42,3.41 0,1.88 1.53,3.41 3.42,3.41 1.89,0 3.42,-1.53 3.42,-3.41 0,-1.89 -1.53,-3.41 -3.42,-3.41z"/>
  <path class="fil0" d="M17.17 23.55c-2.23,0 -4.05,-1.81 -4.05,-4.04 0,-2.23 1.81,-4.04 4.05,-4.04 2.23,0 4.05,1.81 4.05,4.04 0,2.23 -1.82,4.04 -4.05,4.04zm0 -8.84c-2.65,0 -4.8,2.15 -4.8,4.79 0,2.65 2.14,4.79 4.8,4.79 2.65,0 4.79,-2.15 4.79,-4.79 0,-2.65 -2.15,-4.79 -4.79,-4.79z"/>
 </g>
</svg>
