<?xml version="1.0" encoding="UTF-8"?>
<!DOCTYPE svg PUBLIC "-//W3C//DTD SVG 1.1//EN" "http://www.w3.org/Graphics/SVG/1.1/DTD/svg11.dtd">
<!-- Creator: CorelDRAW 2021.5 -->
<svg xmlns="http://www.w3.org/2000/svg" xml:space="preserve" width="22.6197mm" height="12.0438mm" version="1.1" style="shape-rendering:geometricPrecision; text-rendering:geometricPrecision; image-rendering:optimizeQuality; fill-rule:evenodd; clip-rule:evenodd"
viewBox="0 0 22.37 11.91"
 xmlns:xlink="http://www.w3.org/1999/xlink"
 xmlns:xodm="http://www.corel.com/coreldraw/odm/2003">
 <defs>
  <style type="text/css">
   <![CDATA[
    .fil0 {fill:#252422;fill-rule:nonzero}
   ]]>
  </style>
 </defs>
 <g id="Слой_x0020_1">
  <metadata id="CorelCorpID_0Corel-Layer"/>
  <path class="fil0" d="M2.95 8.68c-0.84,0 -1.53,0.68 -1.53,1.53 0,0.84 0.68,1.53 1.53,1.53 0.84,0 1.53,-0.68 1.53,-1.53 0,-0.84 -0.68,-1.53 -1.53,-1.53z"/>
  <path class="fil0" d="M16.85 8.68c-0.84,0 -1.53,0.68 -1.53,1.53 0,0.84 0.68,1.53 1.53,1.53 0.84,0 1.53,-0.68 1.53,-1.53 0,-0.84 -0.68,-1.53 -1.53,-1.53z"/>
  <path class="fil0" d="M6.02 5.57l-1.01 0 -0.62 0.43 -1.04 0 0.72 -1.87 1.95 0 0 1.45zm16.35 -2.72l-2.57 -0.41 -1.6 -0.26 1.6 -0.26 2.57 -0.41 -2.57 -0.41 0 -0.53c0,-0.32 -0.26,-0.57 -0.57,-0.57l-12.14 0c-0.76,0 -1.38,0.62 -1.38,1.38l0.94 0 0 2.12 -2.68 0c-0.19,0 -0.36,0.12 -0.43,0.3l-1.04 2.73 -1.81 0.32c-0.22,0.04 -0.38,0.23 -0.38,0.45l0 1.59 -0.01 0c-0.16,0 -0.29,0.13 -0.29,0.29l0 0.74c0,0.16 0.13,0.29 0.29,0.29l0.67 0c0,-1.1 0.89,-1.99 1.99,-1.99 1.1,0 1.99,0.89 1.99,1.99l9.91 0c0,-1.1 0.89,-1.99 1.99,-1.99 1.1,0 1.99,0.89 1.99,1.99l0.67 0c0.16,0 0.29,-0.13 0.29,-0.29l0 -3.98 2.57 -0.41 -2.57 -0.41 -1.6 -0.26 1.6 -0.26 2.57 -0.41 -2.57 -0.41 -1.6 -0.26 1.6 -0.25 2.57 -0.41z"/>
  <path class="fil0" d="M16 11.74c0,0.1 -0.08,0.17 -0.17,0.17l-5.24 0c-0.1,0 -0.18,-0.08 -0.18,-0.17 0,-0.1 0.08,-0.17 0.18,-0.17l5.24 0c0.1,0 0.17,0.08 0.17,0.17z"/>
  <path class="fil0" d="M22.33 11.74c0,0.1 -0.08,0.17 -0.17,0.17l-4.14 0c-0.1,0 -0.17,-0.08 -0.17,-0.17 0,-0.1 0.08,-0.17 0.17,-0.17l4.14 0c0.09,0 0.17,0.08 0.17,0.17z"/>
  <path class="fil0" d="M7.51 11.74c0,0.1 -0.08,0.17 -0.17,0.17l-3.27 0c-0.1,0 -0.18,-0.08 -0.18,-0.17 0,-0.1 0.08,-0.17 0.18,-0.17l3.27 0c0.1,0 0.17,0.08 0.17,0.17z"/>
  <path class="fil0" d="M10.08 11.74c0,0.1 -0.08,0.17 -0.17,0.17l-1.94 0c-0.09,0 -0.17,-0.08 -0.17,-0.17 0,-0.1 0.08,-0.17 0.17,-0.17l1.94 0c0.1,0 0.17,0.08 0.17,0.17z"/>
  <path class="fil0" d="M2.12 11.74c0,0.1 -0.08,0.17 -0.17,0.17l-1.77 0c-0.1,0 -0.17,-0.08 -0.17,-0.17 0,-0.1 0.08,-0.17 0.17,-0.17l1.77 0c0.09,0 0.17,0.08 0.17,0.17z"/>
 </g>
</svg>
