<?xml version="1.0" encoding="UTF-8"?>
<!DOCTYPE svg PUBLIC "-//W3C//DTD SVG 1.1//EN" "http://www.w3.org/Graphics/SVG/1.1/DTD/svg11.dtd">
<!-- Creator: CorelDRAW 2021.5 -->
<svg xmlns="http://www.w3.org/2000/svg" xml:space="preserve" width="71.2572mm" height="71.2572mm" version="1.1" style="shape-rendering:geometricPrecision; text-rendering:geometricPrecision; image-rendering:optimizeQuality; fill-rule:evenodd; clip-rule:evenodd"
viewBox="0 0 616.37 616.37"
 xmlns:xlink="http://www.w3.org/1999/xlink"
 xmlns:xodm="http://www.corel.com/coreldraw/odm/2003">
 <defs>
  <style type="text/css">
   <![CDATA[
    .fil0 {fill:#2B2A29}
   ]]>
  </style>
 </defs>
 <g id="Слой_x0020_1">
  <metadata id="CorelCorpID_0Corel-Layer"/>
  <path class="fil0" d="M308.19 616.37c-170.21,0 -308.19,-137.99 -308.19,-308.18 0,-170.21 137.98,-308.19 308.19,-308.19 170.21,0 308.18,137.98 308.18,308.19 0,170.2 -137.98,308.18 -308.18,308.18zm26.81 -541.13l0 0 0 110.57 -49.9 0 0 -110.66c-113.35,9.62 -198.4,96.4 -206.67,210.12l107 0 0 48.28 -106.37 0c11.81,109.97 95.35,194.8 206.04,204.19l0 -117.19 49.9 0 0 117.1c109.91,-10.14 194.03,-94.7 205.78,-204.11l-107.75 0 0 -48.28 108.38 0c-8.24,-113.16 -93.85,-199.66 -206.41,-210.04z"/>
 </g>
</svg>
