<svg width="285" height="101" viewBox="0 0 285 101" fill="none" xmlns="http://www.w3.org/2000/svg">
<path fill-rule="evenodd" clip-rule="evenodd" d="M345.188 38.8452C343.042 38.8452 341.303 37.1061 341.303 34.9607C341.303 32.8153 343.042 31.0762 345.188 31.0762C347.333 31.0762 349.072 32.8153 349.072 34.9607C349.072 37.1061 347.333 38.8452 345.188 38.8452ZM372.378 34.9608C372.378 37.1061 374.117 38.8453 376.263 38.8453C378.408 38.8453 380.147 37.1061 380.147 34.9608C380.147 32.8154 378.408 31.0763 376.263 31.0763C374.117 31.0763 372.378 32.8154 372.378 34.9608ZM403.454 34.9612C403.454 37.1066 405.194 38.8457 407.339 38.8457C409.484 38.8457 411.224 37.1066 411.224 34.9612C411.224 32.8158 409.484 31.0767 407.339 31.0767C405.194 31.0767 403.454 32.8158 403.454 34.9612ZM310.226 34.9607C310.226 37.1061 311.965 38.8452 314.11 38.8452C316.256 38.8452 317.995 37.1061 317.995 34.9607C317.995 32.8153 316.256 31.0762 314.11 31.0762C311.965 31.0762 310.226 32.8153 310.226 34.9607ZM283.034 38.8452C280.889 38.8452 279.15 37.1061 279.15 34.9607C279.15 32.8153 280.889 31.0762 283.034 31.0762C285.18 31.0762 286.919 32.8153 286.919 34.9607C286.919 37.1061 285.18 38.8452 283.034 38.8452ZM248.075 34.9607C248.075 37.1061 249.814 38.8452 251.959 38.8452C254.105 38.8452 255.844 37.1061 255.844 34.9607C255.844 32.8153 254.105 31.0762 251.959 31.0762C249.814 31.0762 248.075 32.8153 248.075 34.9607Z" fill="#5C5C5C" fill-opacity="0.2"/>
<path fill-rule="evenodd" clip-rule="evenodd" d="M372.378 3.88453C372.378 6.02989 374.117 7.76906 376.263 7.76906C378.408 7.76906 380.147 6.02989 380.147 3.88453C380.147 1.73916 378.408 0 376.263 0C374.117 0 372.378 1.73916 372.378 3.88453ZM403.453 3.88518C403.453 6.03055 405.193 7.76971 407.338 7.76971C409.483 7.76971 411.223 6.03055 411.223 3.88518C411.223 1.73982 409.483 0.000654692 407.338 0.000654692C405.193 0.000654692 403.453 1.73982 403.453 3.88518ZM345.188 7.76914C343.042 7.76914 341.303 6.02998 341.303 3.88461C341.303 1.73924 343.042 8.12832e-05 345.188 8.12832e-05C347.333 8.12832e-05 349.072 1.73924 349.072 3.88461C349.072 6.02998 347.333 7.76914 345.188 7.76914ZM310.226 3.88461C310.226 6.02998 311.965 7.76914 314.11 7.76914C316.256 7.76914 317.995 6.02998 317.995 3.88461C317.995 1.73924 316.256 8.12832e-05 314.11 8.12832e-05C311.965 8.12832e-05 310.226 1.73924 310.226 3.88461ZM283.034 7.76914C280.889 7.76914 279.15 6.02998 279.15 3.88461C279.15 1.73924 280.889 8.12832e-05 283.034 8.12832e-05C285.18 8.12832e-05 286.919 1.73924 286.919 3.88461C286.919 6.02998 285.18 7.76914 283.034 7.76914ZM248.075 3.88461C248.075 6.02998 249.814 7.76914 251.959 7.76914C254.105 7.76914 255.844 6.02998 255.844 3.88461C255.844 1.73924 254.105 8.12832e-05 251.959 8.12832e-05C249.814 8.12832e-05 248.075 1.73924 248.075 3.88461Z" fill="#5C5C5C" fill-opacity="0.2"/>
<path fill-rule="evenodd" clip-rule="evenodd" d="M221.339 69.9216C219.194 69.9216 217.454 68.1825 217.454 66.0371C217.454 63.8918 219.194 62.1526 221.339 62.1526C223.484 62.1526 225.224 63.8918 225.224 66.0371C225.224 68.1825 223.484 69.9216 221.339 69.9216ZM217.454 97.1133C217.454 99.2587 219.194 100.998 221.339 100.998C223.484 100.998 225.223 99.2587 225.223 97.1133C225.223 94.968 223.484 93.2288 221.339 93.2288C219.194 93.2288 217.454 94.968 217.454 97.1133ZM186.377 97.1133C186.377 99.2587 188.116 100.998 190.261 100.998C192.407 100.998 194.146 99.2587 194.146 97.1133C194.146 94.968 192.407 93.2288 190.261 93.2288C188.116 93.2288 186.377 94.968 186.377 97.1133ZM186.377 66.0371C186.377 68.1825 188.116 69.9216 190.262 69.9216C192.407 69.9216 194.146 68.1825 194.146 66.0371C194.146 63.8918 192.407 62.1526 190.262 62.1526C188.116 62.1526 186.377 63.8918 186.377 66.0371Z" fill="#5C5C5C" fill-opacity="0.2"/>
<path fill-rule="evenodd" clip-rule="evenodd" d="M159.114 38.8452C156.969 38.8452 155.23 37.1061 155.23 34.9607C155.23 32.8153 156.969 31.0762 159.114 31.0762C161.26 31.0762 162.999 32.8153 162.999 34.9607C162.999 37.1061 161.26 38.8452 159.114 38.8452ZM186.305 34.9608C186.305 37.1062 188.044 38.8454 190.189 38.8454C192.335 38.8454 194.074 37.1062 194.074 34.9608C194.074 32.8155 192.335 31.0763 190.189 31.0763C188.044 31.0763 186.305 32.8155 186.305 34.9608ZM217.382 34.9612C217.382 37.1066 219.121 38.8457 221.267 38.8457C223.412 38.8457 225.151 37.1066 225.151 34.9612C225.151 32.8158 223.412 31.0767 221.267 31.0767C219.121 31.0767 217.382 32.8158 217.382 34.9612ZM124.154 34.9607C124.154 37.1061 125.893 38.8452 128.038 38.8452C130.184 38.8452 131.923 37.1061 131.923 34.9607C131.923 32.8153 130.184 31.0762 128.038 31.0762C125.893 31.0762 124.154 32.8153 124.154 34.9607ZM96.9621 38.8452C94.8167 38.8452 93.0776 37.1061 93.0776 34.9607C93.0776 32.8153 94.8167 31.0762 96.9621 31.0762C99.1075 31.0762 100.847 32.8153 100.847 34.9607C100.847 37.1061 99.1075 38.8452 96.9621 38.8452ZM62.0014 34.9607C62.0014 37.1061 63.7406 38.8452 65.8859 38.8452C68.0313 38.8452 69.7705 37.1061 69.7705 34.9607C69.7705 32.8153 68.0313 31.0762 65.8859 31.0762C63.7406 31.0762 62.0014 32.8153 62.0014 34.9607Z" fill="#5C5C5C" fill-opacity="0.2"/>
<path fill-rule="evenodd" clip-rule="evenodd" d="M186.304 3.88453C186.304 6.02989 188.044 7.76906 190.189 7.76906C192.334 7.76906 194.074 6.02989 194.074 3.88453C194.074 1.73916 192.334 0 190.189 0C188.044 0 186.304 1.73916 186.304 3.88453ZM217.382 3.88518C217.382 6.03055 219.121 7.76971 221.267 7.76971C223.412 7.76971 225.151 6.03055 225.151 3.88518C225.151 1.73982 223.412 0.000654692 221.267 0.000654692C219.121 0.000654692 217.382 1.73982 217.382 3.88518ZM159.114 7.76914C156.969 7.76914 155.23 6.02998 155.23 3.88461C155.23 1.73924 156.969 8.12832e-05 159.114 8.12832e-05C161.259 8.12832e-05 162.999 1.73924 162.999 3.88461C162.999 6.02998 161.259 7.76914 159.114 7.76914ZM124.153 3.88461C124.153 6.02998 125.893 7.76914 128.038 7.76914C130.183 7.76914 131.922 6.02998 131.922 3.88461C131.922 1.73924 130.183 8.12832e-05 128.038 8.12832e-05C125.893 8.12832e-05 124.153 1.73924 124.153 3.88461ZM96.9618 7.76914C94.8164 7.76914 93.0773 6.02998 93.0773 3.88461C93.0773 1.73924 94.8164 8.12832e-05 96.9618 8.12832e-05C99.1071 8.12832e-05 100.846 1.73924 100.846 3.88461C100.846 6.02998 99.1071 7.76914 96.9618 7.76914ZM62.0011 3.88461C62.0011 6.02998 63.7402 7.76914 65.8856 7.76914C68.031 7.76914 69.7701 6.02998 69.7701 3.88461C69.7701 1.73924 68.031 8.12832e-05 65.8856 8.12832e-05C63.7402 8.12832e-05 62.0011 1.73924 62.0011 3.88461Z" fill="#5C5C5C" fill-opacity="0.2"/>
<path fill-rule="evenodd" clip-rule="evenodd" d="M159.267 69.9216C157.121 69.9216 155.382 68.1825 155.382 66.0371C155.382 63.8918 157.121 62.1526 159.267 62.1526C161.412 62.1526 163.151 63.8918 163.151 66.0371C163.151 68.1825 161.412 69.9216 159.267 69.9216ZM124.305 97.1134C124.305 99.2588 126.044 100.998 128.189 100.998C130.335 100.998 132.074 99.2588 132.074 97.1134C132.074 94.9681 130.335 93.2289 128.189 93.2289C126.044 93.2289 124.305 94.9681 124.305 97.1134ZM155.382 97.115C155.382 99.2603 157.121 100.999 159.267 100.999C161.412 100.999 163.151 99.2603 163.151 97.115C163.151 94.9696 161.412 93.2304 159.267 93.2304C157.121 93.2304 155.382 94.9696 155.382 97.115ZM97.1132 100.998C94.9678 100.998 93.2286 99.2588 93.2286 97.1134C93.2286 94.9681 94.9678 93.2289 97.1132 93.2289C99.2585 93.2289 100.998 94.9681 100.998 97.1134C100.998 99.2588 99.2585 100.998 97.1132 100.998ZM62.1537 97.1134C62.1537 99.2588 63.8929 100.998 66.0383 100.998C68.1836 100.998 69.9228 99.2588 69.9228 97.1134C69.9228 94.9681 68.1836 93.2289 66.0383 93.2289C63.8929 93.2289 62.1537 94.9681 62.1537 97.1134ZM34.9634 100.998C32.818 100.998 31.0789 99.2588 31.0789 97.1134C31.0789 94.9681 32.818 93.2289 34.9634 93.2289C37.1088 93.2289 38.8479 94.9681 38.8479 97.1134C38.8479 99.2588 37.1088 100.998 34.9634 100.998ZM9.15527e-05 97.1134C9.15527e-05 99.2588 1.73926 100.998 3.88463 100.998C6.02998 100.998 7.76915 99.2588 7.76915 97.1134C7.76915 94.9681 6.02998 93.2289 3.88463 93.2289C1.73926 93.2289 9.15527e-05 94.9681 9.15527e-05 97.1134ZM124.305 66.0372C124.305 68.1826 126.044 69.9217 128.189 69.9217C130.335 69.9217 132.074 68.1826 132.074 66.0372C132.074 63.8918 130.335 62.1527 128.189 62.1527C126.044 62.1527 124.305 63.8918 124.305 66.0372ZM97.1131 69.9217C94.9677 69.9217 93.2285 68.1826 93.2285 66.0372C93.2285 63.8918 94.9677 62.1527 97.1131 62.1527C99.2584 62.1527 100.998 63.8918 100.998 66.0372C100.998 68.1826 99.2584 69.9217 97.1131 69.9217ZM62.1537 66.0372C62.1537 68.1826 63.8928 69.9217 66.0382 69.9217C68.1835 69.9217 69.9227 68.1826 69.9227 66.0372C69.9227 63.8918 68.1835 62.1527 66.0382 62.1527C63.8928 62.1527 62.1537 63.8918 62.1537 66.0372ZM34.9633 69.9217C32.8179 69.9217 31.0788 68.1826 31.0788 66.0372C31.0788 63.8918 32.8179 62.1527 34.9633 62.1527C37.1087 62.1527 38.8478 63.8918 38.8478 66.0372C38.8478 68.1826 37.1087 69.9217 34.9633 69.9217ZM0 66.0372C0 68.1826 1.73917 69.9217 3.88454 69.9217C6.02989 69.9217 7.76906 68.1826 7.76906 66.0372C7.76906 63.8918 6.02989 62.1527 3.88454 62.1527C1.73917 62.1527 0 63.8918 0 66.0372Z" fill="#5C5C5C" fill-opacity="0.2"/>
</svg>
