<svg width="229" height="101" viewBox="0 0 229 101" fill="none" xmlns="http://www.w3.org/2000/svg">
<path fill-rule="evenodd" clip-rule="evenodd" d="M-54.9643 38.8453C-52.819 38.8453 -51.0798 37.1062 -51.0798 34.9608C-51.0798 32.8154 -52.819 31.0763 -54.9643 31.0763C-57.1097 31.0763 -58.8489 32.8154 -58.8489 34.9608C-58.8489 37.1062 -57.1097 38.8453 -54.9643 38.8453ZM-82.1547 34.9609C-82.1547 37.1062 -83.8939 38.8454 -86.0392 38.8454C-88.1846 38.8454 -89.9237 37.1062 -89.9237 34.9609C-89.9237 32.8155 -88.1846 31.0763 -86.0392 31.0763C-83.8939 31.0763 -82.1547 32.8155 -82.1547 34.9609ZM-113.231 34.9613C-113.231 37.1067 -114.97 38.8458 -117.115 38.8458C-119.261 38.8458 -121 37.1067 -121 34.9613C-121 32.8159 -119.261 31.0768 -117.115 31.0768C-114.97 31.0768 -113.231 32.8159 -113.231 34.9613ZM-20.0023 34.9608C-20.0023 37.1062 -21.7415 38.8453 -23.8869 38.8453C-26.0322 38.8453 -27.7714 37.1062 -27.7714 34.9608C-27.7714 32.8154 -26.0322 31.0763 -23.8869 31.0763C-21.7415 31.0763 -20.0023 32.8154 -20.0023 34.9608ZM7.1893 38.8453C9.33467 38.8453 11.0738 37.1062 11.0738 34.9608C11.0738 32.8154 9.33467 31.0763 7.1893 31.0763C5.04395 31.0763 3.30478 32.8154 3.30478 34.9608C3.30478 37.1062 5.04395 38.8453 7.1893 38.8453ZM42.1487 34.9608C42.1487 37.1062 40.4095 38.8453 38.2642 38.8453C36.1188 38.8453 34.3797 37.1062 34.3797 34.9608C34.3797 32.8154 36.1188 31.0763 38.2642 31.0763C40.4095 31.0763 42.1487 32.8154 42.1487 34.9608Z" fill="#5C5C5C" fill-opacity="0.2"/>
<path fill-rule="evenodd" clip-rule="evenodd" d="M-82.1547 3.88453C-82.1547 6.02989 -83.8939 7.76906 -86.0392 7.76906C-88.1846 7.76906 -89.9237 6.02989 -89.9237 3.88453C-89.9237 1.73916 -88.1846 0 -86.0392 0C-83.8939 0 -82.1547 1.73916 -82.1547 3.88453ZM-113.23 3.88518C-113.23 6.03055 -114.969 7.76971 -117.114 7.76971C-119.26 7.76971 -120.999 6.03055 -120.999 3.88518C-120.999 1.73982 -119.26 0.000654692 -117.114 0.000654692C-114.969 0.000654692 -113.23 1.73982 -113.23 3.88518ZM-54.9643 7.76914C-52.819 7.76914 -51.0798 6.02998 -51.0798 3.88461C-51.0798 1.73924 -52.819 8.12832e-05 -54.9643 8.12832e-05C-57.1097 8.12832e-05 -58.8489 1.73924 -58.8489 3.88461C-58.8489 6.02998 -57.1097 7.76914 -54.9643 7.76914ZM-20.0023 3.88461C-20.0023 6.02998 -21.7415 7.76914 -23.8869 7.76914C-26.0322 7.76914 -27.7714 6.02998 -27.7714 3.88461C-27.7714 1.73924 -26.0322 8.12832e-05 -23.8869 8.12832e-05C-21.7415 8.12832e-05 -20.0023 1.73924 -20.0023 3.88461ZM7.1893 7.76914C9.33467 7.76914 11.0738 6.02998 11.0738 3.88461C11.0738 1.73924 9.33467 8.12832e-05 7.1893 8.12832e-05C5.04395 8.12832e-05 3.30478 1.73924 3.30478 3.88461C3.30478 6.02998 5.04395 7.76914 7.1893 7.76914ZM42.1487 3.88461C42.1487 6.02998 40.4095 7.76914 38.2642 7.76914C36.1188 7.76914 34.3797 6.02998 34.3797 3.88461C34.3797 1.73924 36.1188 8.12832e-05 38.2642 8.12832e-05C40.4095 8.12832e-05 42.1487 1.73924 42.1487 3.88461Z" fill="#5C5C5C" fill-opacity="0.2"/>
<path fill-rule="evenodd" clip-rule="evenodd" d="M-117.115 69.9216C-114.969 69.9216 -113.23 68.1825 -113.23 66.0371C-113.23 63.8917 -114.969 62.1526 -117.115 62.1526C-119.26 62.1526 -120.999 63.8917 -120.999 66.0371C-120.999 68.1825 -119.26 69.9216 -117.115 69.9216ZM-82.1547 97.1134C-82.1547 99.2588 -83.8939 100.998 -86.0392 100.998C-88.1846 100.998 -89.9237 99.2588 -89.9237 97.1134C-89.9237 94.968 -88.1846 93.2289 -86.0392 93.2289C-83.8939 93.2289 -82.1547 94.968 -82.1547 97.1134ZM-113.231 97.1149C-113.231 99.2603 -114.97 100.999 -117.115 100.999C-119.261 100.999 -121 99.2603 -121 97.1149C-121 94.9696 -119.261 93.2304 -117.115 93.2304C-114.97 93.2304 -113.231 94.9696 -113.231 97.1149ZM-54.9617 100.998C-52.8164 100.998 -51.0772 99.2588 -51.0772 97.1134C-51.0772 94.968 -52.8164 93.2289 -54.9617 93.2289C-57.1071 93.2289 -58.8463 94.968 -58.8463 97.1134C-58.8463 99.2588 -57.1071 100.998 -54.9617 100.998ZM-20.0023 97.1134C-20.0023 99.2588 -21.7415 100.998 -23.8869 100.998C-26.0322 100.998 -27.7714 99.2588 -27.7714 97.1134C-27.7714 94.968 -26.0322 93.2289 -23.8869 93.2289C-21.7415 93.2289 -20.0023 94.968 -20.0023 97.1134ZM7.188 100.998C9.33337 100.998 11.0725 99.2588 11.0725 97.1134C11.0725 94.968 9.33337 93.2289 7.188 93.2289C5.04265 93.2289 3.30348 94.968 3.30348 97.1134C3.30348 99.2588 5.04265 100.998 7.188 100.998ZM42.15 97.1134C42.15 99.2588 40.4108 100.998 38.2655 100.998C36.1201 100.998 34.381 99.2588 34.381 97.1134C34.381 94.968 36.1201 93.2289 38.2655 93.2289C40.4108 93.2289 42.15 94.968 42.15 97.1134ZM-82.1548 66.0372C-82.1548 68.1825 -83.8939 69.9217 -86.0393 69.9217C-88.1847 69.9217 -89.9238 68.1825 -89.9238 66.0372C-89.9238 63.8918 -88.1847 62.1526 -86.0393 62.1526C-83.8939 62.1526 -82.1548 63.8918 -82.1548 66.0372ZM-54.9618 69.9217C-52.8165 69.9217 -51.0773 68.1825 -51.0773 66.0372C-51.0773 63.8918 -52.8165 62.1526 -54.9618 62.1526C-57.1072 62.1526 -58.8463 63.8918 -58.8463 66.0372C-58.8463 68.1825 -57.1072 69.9217 -54.9618 69.9217ZM-20.0024 66.0372C-20.0024 68.1825 -21.7416 69.9217 -23.8869 69.9217C-26.0323 69.9217 -27.7715 68.1825 -27.7715 66.0372C-27.7715 63.8918 -26.0323 62.1526 -23.8869 62.1526C-21.7416 62.1526 -20.0024 63.8918 -20.0024 66.0372ZM7.18793 69.9217C9.3333 69.9217 11.0725 68.1825 11.0725 66.0372C11.0725 63.8918 9.3333 62.1526 7.18793 62.1526C5.04257 62.1526 3.30341 63.8918 3.30341 66.0372C3.30341 68.1825 5.04257 69.9217 7.18793 69.9217ZM42.1499 66.0372C42.1499 68.1825 40.4108 69.9217 38.2654 69.9217C36.12 69.9217 34.3809 68.1825 34.3809 66.0372C34.3809 63.8918 36.12 62.1526 38.2654 62.1526C40.4108 62.1526 42.1499 63.8918 42.1499 66.0372Z" fill="#5C5C5C" fill-opacity="0.2"/>
<path fill-rule="evenodd" clip-rule="evenodd" d="M131.109 38.8453C133.254 38.8453 134.994 37.1062 134.994 34.9608C134.994 32.8154 133.254 31.0763 131.109 31.0763C128.964 31.0763 127.225 32.8154 127.225 34.9608C127.225 37.1062 128.964 38.8453 131.109 38.8453ZM103.919 34.9609C103.919 37.1063 102.18 38.8454 100.034 38.8454C97.8888 38.8454 96.1497 37.1063 96.1497 34.9609C96.1497 32.8155 97.8888 31.0764 100.034 31.0764C102.18 31.0764 103.919 32.8155 103.919 34.9609ZM72.8413 34.9613C72.8413 37.1067 71.1022 38.8458 68.9568 38.8458C66.8114 38.8458 65.0723 37.1067 65.0723 34.9613C65.0723 32.8159 66.8114 31.0768 68.9568 31.0768C71.1022 31.0768 72.8413 32.8159 72.8413 34.9613ZM166.07 34.9608C166.07 37.1062 164.331 38.8453 162.185 38.8453C160.04 38.8453 158.301 37.1062 158.301 34.9608C158.301 32.8154 160.04 31.0763 162.185 31.0763C164.331 31.0763 166.07 32.8154 166.07 34.9608ZM193.261 38.8453C195.407 38.8453 197.146 37.1062 197.146 34.9608C197.146 32.8154 195.407 31.0763 193.261 31.0763C191.116 31.0763 189.377 32.8154 189.377 34.9608C189.377 37.1062 191.116 38.8453 193.261 38.8453ZM228.222 34.9608C228.222 37.1062 226.483 38.8453 224.338 38.8453C222.192 38.8453 220.453 37.1062 220.453 34.9608C220.453 32.8154 222.192 31.0763 224.338 31.0763C226.483 31.0763 228.222 32.8154 228.222 34.9608Z" fill="#5C5C5C" fill-opacity="0.2"/>
<path fill-rule="evenodd" clip-rule="evenodd" d="M103.92 3.88453C103.92 6.02989 102.181 7.76906 100.035 7.76906C97.8901 7.76906 96.151 6.02989 96.151 3.88453C96.151 1.73916 97.8901 0 100.035 0C102.181 0 103.92 1.73916 103.92 3.88453ZM72.8423 3.88518C72.8423 6.03055 71.1031 7.76971 68.9578 7.76971C66.8124 7.76971 65.0732 6.03055 65.0732 3.88518C65.0732 1.73982 66.8124 0.000654692 68.9578 0.000654692C71.1031 0.000654692 72.8423 1.73982 72.8423 3.88518ZM131.11 7.76914C133.256 7.76914 134.995 6.02998 134.995 3.88461C134.995 1.73924 133.256 8.12832e-05 131.11 8.12832e-05C128.965 8.12832e-05 127.226 1.73924 127.226 3.88461C127.226 6.02998 128.965 7.76914 131.11 7.76914ZM166.071 3.88461C166.071 6.02998 164.332 7.76914 162.187 7.76914C160.041 7.76914 158.302 6.02998 158.302 3.88461C158.302 1.73924 160.041 8.12832e-05 162.187 8.12832e-05C164.332 8.12832e-05 166.071 1.73924 166.071 3.88461ZM193.263 7.76914C195.408 7.76914 197.147 6.02998 197.147 3.88461C197.147 1.73924 195.408 8.12832e-05 193.263 8.12832e-05C191.117 8.12832e-05 189.378 1.73924 189.378 3.88461C189.378 6.02998 191.117 7.76914 193.263 7.76914ZM228.223 3.88461C228.223 6.02998 226.484 7.76914 224.339 7.76914C222.194 7.76914 220.454 6.02998 220.454 3.88461C220.454 1.73924 222.194 8.12832e-05 224.339 8.12832e-05C226.484 8.12832e-05 228.223 1.73924 228.223 3.88461Z" fill="#5C5C5C" fill-opacity="0.2"/>
<path fill-rule="evenodd" clip-rule="evenodd" d="M68.9569 69.9216C71.1023 69.9216 72.8414 68.1825 72.8414 66.0371C72.8414 63.8918 71.1023 62.1526 68.9569 62.1526C66.8115 62.1526 65.0724 63.8918 65.0724 66.0371C65.0724 68.1825 66.8115 69.9216 68.9569 69.9216ZM103.919 97.1134C103.919 99.2588 102.18 100.998 100.034 100.998C97.8888 100.998 96.1497 99.2588 96.1497 97.1134C96.1497 94.9681 97.8888 93.2289 100.034 93.2289C102.18 93.2289 103.919 94.9681 103.919 97.1134ZM72.8413 97.115C72.8413 99.2603 71.1022 100.999 68.9568 100.999C66.8114 100.999 65.0723 99.2603 65.0723 97.115C65.0723 94.9696 66.8114 93.2304 68.9568 93.2304C71.1022 93.2304 72.8413 94.9696 72.8413 97.115ZM131.11 100.998C133.256 100.998 134.995 99.2588 134.995 97.1134C134.995 94.9681 133.256 93.2289 131.11 93.2289C128.965 93.2289 127.226 94.9681 127.226 97.1134C127.226 99.2588 128.965 100.998 131.11 100.998ZM166.07 97.1134C166.07 99.2588 164.331 100.998 162.185 100.998C160.04 100.998 158.301 99.2588 158.301 97.1134C158.301 94.9681 160.04 93.2289 162.185 93.2289C164.331 93.2289 166.07 94.9681 166.07 97.1134ZM193.26 100.998C195.405 100.998 197.145 99.2588 197.145 97.1134C197.145 94.9681 195.405 93.2289 193.26 93.2289C191.115 93.2289 189.376 94.9681 189.376 97.1134C189.376 99.2588 191.115 100.998 193.26 100.998ZM228.223 97.1134C228.223 99.2588 226.484 100.998 224.339 100.998C222.194 100.998 220.454 99.2588 220.454 97.1134C220.454 94.9681 222.194 93.2289 224.339 93.2289C226.484 93.2289 228.223 94.9681 228.223 97.1134ZM103.919 66.0372C103.919 68.1826 102.18 69.9217 100.034 69.9217C97.8889 69.9217 96.1497 68.1826 96.1497 66.0372C96.1497 63.8918 97.8889 62.1527 100.034 62.1527C102.18 62.1527 103.919 63.8918 103.919 66.0372ZM131.11 69.9217C133.256 69.9217 134.995 68.1826 134.995 66.0372C134.995 63.8918 133.256 62.1527 131.11 62.1527C128.965 62.1527 127.226 63.8918 127.226 66.0372C127.226 68.1826 128.965 69.9217 131.11 69.9217ZM166.07 66.0372C166.07 68.1826 164.331 69.9217 162.185 69.9217C160.04 69.9217 158.301 68.1826 158.301 66.0372C158.301 63.8918 160.04 62.1527 162.185 62.1527C164.331 62.1527 166.07 63.8918 166.07 66.0372ZM193.26 69.9217C195.406 69.9217 197.145 68.1826 197.145 66.0372C197.145 63.8918 195.406 62.1527 193.26 62.1527C191.115 62.1527 189.376 63.8918 189.376 66.0372C189.376 68.1826 191.115 69.9217 193.26 69.9217ZM228.224 66.0372C228.224 68.1826 226.484 69.9217 224.339 69.9217C222.194 69.9217 220.454 68.1826 220.454 66.0372C220.454 63.8918 222.194 62.1527 224.339 62.1527C226.484 62.1527 228.224 63.8918 228.224 66.0372Z" fill="#5C5C5C" fill-opacity="0.2"/>
</svg>
