<svg width="39" height="63" viewBox="0 0 39 63" fill="none" xmlns="http://www.w3.org/2000/svg">
<g clip-path="url(#clip0)">
<path d="M19.5 -1.1365e-06C26.6684 -5.09817e-07 32.5 5.67976 32.5 12.6605L32.5 25.3402C32.5 32.3208 26.6684 38 19.5 38C12.3316 38 6.5 32.321 6.5 25.3402L6.5 12.6605C6.5 5.67975 12.3318 -1.76316e-06 19.5 -1.1365e-06ZM7.94442 25.3402C7.94442 31.5449 13.1283 36.5926 19.5 36.5926C25.8717 36.5926 31.0556 31.5449 31.0556 25.3402L31.0556 12.6605C31.0556 6.45578 25.8717 1.40739 19.5 1.40739C13.1283 1.40739 7.94442 6.45559 7.94442 12.6605L7.94442 25.3402Z" fill="black"/>
<path d="M19.5004 4.22217C19.8992 4.22217 20.2227 4.53695 20.2227 4.92595L20.2227 11.2985C20.2227 11.6875 19.8992 12.0023 19.5003 12.0023C19.1015 12.0023 18.778 11.6875 18.778 11.2985L18.778 4.92595C18.7782 4.53695 19.1015 4.22217 19.5004 4.22217Z" fill="black"/>
</g>
<path d="M8 51L19.5 62L31 51" stroke="black" stroke-width="1.6" stroke-linecap="round" stroke-linejoin="round"/>
<defs>
<clipPath id="clip0">
<rect width="39" height="38" fill="white" transform="matrix(-1 -8.74228e-08 -8.74228e-08 1 39 0)"/>
</clipPath>
</defs>
</svg>
