<svg width="38" height="38" viewBox="0 0 38 38" fill="none" xmlns="http://www.w3.org/2000/svg">
<path d="M22.7458 19.2124C22.7458 21.1985 21.1359 22.8085 19.1498 22.8085C17.1637 22.8085 15.5537 21.1985 15.5537 19.2124C15.5537 17.2263 17.1637 15.6163 19.1498 15.6163C21.1359 15.6163 22.7458 17.2263 22.7458 19.2124Z" fill="black"/>
<path d="M27.5601 12.8502C27.3872 12.3817 27.1114 11.9577 26.7531 11.6097C26.4051 11.2514 25.9814 10.9756 25.5127 10.8027C25.1325 10.6551 24.5615 10.4794 23.5097 10.4315C22.3718 10.3796 22.0307 10.3684 19.1502 10.3684C16.2694 10.3684 15.9282 10.3793 14.7907 10.4312C13.7389 10.4794 13.1675 10.6551 12.7877 10.8027C12.319 10.9756 11.895 11.2514 11.5473 11.6097C11.1889 11.9577 10.9131 12.3814 10.74 12.8502C10.5923 13.2303 10.4166 13.8016 10.3687 14.8534C10.3168 15.991 10.3057 16.3321 10.3057 19.2129C10.3057 22.0934 10.3168 22.4346 10.3687 23.5724C10.4166 24.6242 10.5923 25.1953 10.74 25.5754C10.9131 26.0441 11.1886 26.4678 11.547 26.8158C11.895 27.1742 12.3187 27.45 12.7874 27.6228C13.1675 27.7708 13.7389 27.9465 14.7907 27.9944C15.9282 28.0463 16.2691 28.0572 19.1499 28.0572C22.031 28.0572 22.3721 28.0463 23.5094 27.9944C24.5612 27.9465 25.1325 27.7708 25.5127 27.6228C26.4535 27.2599 27.1972 26.5163 27.5601 25.5754C27.7077 25.1953 27.8835 24.6242 27.9316 23.5724C27.9835 22.4346 27.9944 22.0934 27.9944 19.2129C27.9944 16.3321 27.9835 15.991 27.9316 14.8534C27.8838 13.8016 27.708 13.2303 27.5601 12.8502ZM19.1502 24.7524C16.0905 24.7524 13.6102 22.2723 13.6102 19.2126C13.6102 16.1529 16.0905 13.6729 19.1502 13.6729C22.2096 13.6729 24.6899 16.1529 24.6899 19.2126C24.6899 22.2723 22.2096 24.7524 19.1502 24.7524ZM24.9089 14.7485C24.194 14.7485 23.6143 14.1689 23.6143 13.4539C23.6143 12.7389 24.194 12.1593 24.9089 12.1593C25.6239 12.1593 26.2035 12.7389 26.2035 13.4539C26.2033 14.1689 25.6239 14.7485 24.9089 14.7485Z" fill="black"/>
<path d="M19.1499 0.424805C8.77537 0.424805 0.362305 8.83787 0.362305 19.2124C0.362305 29.5869 8.77537 38 19.1499 38C29.5244 38 37.9375 29.5869 37.9375 19.2124C37.9375 8.83787 29.5244 0.424805 19.1499 0.424805ZM29.873 23.6602C29.8208 24.8086 29.6382 25.5926 29.3716 26.2789C28.8111 27.7281 27.6656 28.8736 26.2164 29.4341C25.5304 29.7007 24.7461 29.883 23.5979 29.9355C22.4475 29.9879 22.08 30.0006 19.1502 30.0006C16.2201 30.0006 15.8528 29.9879 14.7021 29.9355C13.554 29.883 12.7696 29.7007 12.0836 29.4341C11.3635 29.1632 10.7116 28.7386 10.1726 28.1896C9.62393 27.651 9.19937 26.9988 8.92846 26.2789C8.66185 25.5929 8.47924 24.8086 8.42706 23.6604C8.37403 22.5097 8.3617 22.1422 8.3617 19.2124C8.3617 16.2826 8.37403 15.915 8.42678 14.7646C8.47895 13.6162 8.66128 12.8321 8.92789 12.1458C9.19879 11.426 9.62365 10.7738 10.1726 10.2351C10.7113 9.68615 11.3635 9.26158 12.0833 8.99067C12.7696 8.72406 13.5537 8.54174 14.7021 8.48928C15.8525 8.43681 16.2201 8.4242 19.1499 8.4242C22.0797 8.4242 22.4472 8.43681 23.5977 8.48956C24.7461 8.54174 25.5301 8.72406 26.2164 8.99039C26.9363 9.26129 27.5885 9.68615 28.1274 10.2351C28.6761 10.7741 29.101 11.426 29.3716 12.1458C29.6385 12.8321 29.8208 13.6162 29.8733 14.7646C29.9257 15.915 29.9381 16.2826 29.9381 19.2124C29.9381 22.1422 29.9257 22.5097 29.873 23.6602Z" fill="black"/>
</svg>
