<svg width="186" height="61" viewBox="0 0 186 61" fill="none" xmlns="http://www.w3.org/2000/svg">
<path d="M69.7197 28.7235C69.7197 26.3653 70.1153 24.2554 70.9066 22.3936C71.6978 20.5319 72.7629 19.0115 74.0715 17.8945C75.38 16.7774 76.8408 15.9397 78.4841 15.3501C80.0969 14.7916 81.8011 14.4813 83.5662 14.4813C86.2746 14.4813 88.7091 15.0398 90.9306 16.1879V21.68C89.196 20.2837 87.0354 19.57 84.4791 19.57C81.9837 19.57 79.8231 20.3458 78.058 21.8972C76.293 23.4486 75.38 25.7137 75.38 28.7235C75.38 30.1508 75.6235 31.423 76.1408 32.54C76.6582 33.6571 77.3581 34.5259 78.2102 35.2085C79.0927 35.8601 80.0361 36.3876 81.1316 36.7289C82.1967 37.0702 83.3227 37.2564 84.4487 37.2564C87.3093 37.2564 89.5004 36.5117 91.0828 35.0534V40.6075C88.8004 41.7556 86.305 42.3141 83.627 42.3141C81.862 42.3141 80.1578 42.0348 78.5449 41.4763C76.932 40.9178 75.4409 40.111 74.1019 39.025C72.7629 37.939 71.6978 36.5117 70.9066 34.7431C70.1153 32.9744 69.7197 30.9576 69.7197 28.7235Z" fill="#1A1A1A"/>
<path d="M100.608 17.3675C100.608 18.3604 100.334 19.1051 99.7557 19.6326C99.1775 20.129 98.4776 20.4083 97.5951 20.4083C96.743 20.4083 96.0126 20.16 95.4649 19.6326C94.8867 19.1361 94.6128 18.3604 94.6128 17.3675C94.6128 16.4056 94.8867 15.6609 95.4649 15.1644C96.0431 14.668 96.743 14.3887 97.5951 14.3887C98.4472 14.3887 99.1775 14.6369 99.7557 15.1644C100.303 15.6609 100.608 16.4056 100.608 17.3675ZM100.151 41.8181H95.0388V23.4491H100.151V41.8181Z" fill="#1A1A1A"/>
<path d="M106.269 18.1121L111.351 16.84V23.4491H116.95V27.9172H111.351V35.1159C111.351 36.9466 112.294 37.8774 114.181 37.8774C115.307 37.8774 116.372 37.6602 117.376 37.2569V41.5388C115.915 42.0663 114.333 42.3456 112.629 42.3456C110.772 42.3456 109.251 41.8491 108.034 40.8562C106.847 39.8633 106.238 38.2808 106.238 36.1398V27.9172H103.256V23.4491H106.238V18.1121H106.269Z" fill="#1A1A1A"/>
<path d="M121.27 15.0403H130.917C135.329 15.0403 138.677 16.2504 140.99 18.7017C143.272 21.1219 144.429 24.38 144.429 28.4447C144.429 32.5095 143.272 35.7365 140.99 38.1877C138.707 40.608 135.329 41.8491 130.917 41.8491H121.27V15.0403ZM136.79 34.6505C138.129 33.2542 138.799 31.1753 138.799 28.4137C138.799 25.6521 138.129 23.5732 136.79 22.1769C135.451 20.7806 133.504 20.067 130.917 20.067H126.809V36.7294H130.917C133.504 36.7604 135.451 36.0468 136.79 34.6505Z" fill="#1A1A1A"/>
<path d="M147.2 32.6336C147.2 30.9891 147.474 29.4997 148.052 28.2275C148.63 26.9553 149.361 25.9314 150.274 25.1867C151.187 24.442 152.161 23.8835 153.195 23.5112C154.199 23.1388 155.265 22.9526 156.299 22.9526C158.064 22.9526 159.586 23.294 160.894 23.9766C162.203 24.6592 163.146 25.559 163.755 26.6451C164.364 27.7311 164.79 28.9412 165.033 30.3064C165.277 31.6717 165.185 33.037 164.82 34.3712H152.374C152.647 35.6434 153.347 36.6053 154.504 37.2258C155.66 37.8464 157.03 38.1567 158.582 38.1567C160.529 38.1567 162.294 37.7844 163.907 37.0397V41.1975C162.173 41.9732 160.012 42.3456 157.425 42.3456C154.473 42.3456 152.039 41.4768 150.091 39.7702C148.144 38.0636 147.2 35.6744 147.2 32.6336ZM160.164 30.896C160.286 30.0582 160.042 29.1894 159.464 28.2896C158.886 27.3897 157.882 26.9553 156.451 26.9553C155.325 26.9553 154.352 27.2967 153.53 28.0103C152.708 28.724 152.313 29.6859 152.282 30.896H160.164Z" fill="#1A1A1A"/>
<path d="M180.553 23.4491H186.001L178.727 41.8181H173.341L166.068 23.4491H171.515L176.049 36.1709L180.553 23.4491Z" fill="#1A1A1A"/>
<path d="M135.909 50.1028C135.909 49.4201 136.03 48.7996 136.243 48.2721C136.487 47.7446 136.791 47.3102 137.156 46.9689C137.522 46.6586 137.948 46.4104 138.435 46.2242C138.891 46.069 139.408 45.976 139.895 45.976C140.686 45.976 141.386 46.1311 142.025 46.4724V48.0549C141.508 47.6515 140.899 47.4343 140.169 47.4343C139.439 47.4343 138.83 47.6515 138.313 48.1169C137.795 48.5513 137.552 49.234 137.552 50.1028C137.552 50.5061 137.613 50.8785 137.765 51.2198C137.917 51.5301 138.13 51.8093 138.374 51.9955C138.617 52.1817 138.921 52.3368 139.226 52.4299C139.53 52.523 139.865 52.5851 140.2 52.5851C141.021 52.5851 141.66 52.3679 142.117 51.9335V53.547C141.447 53.8883 140.747 54.0434 139.956 54.0434C139.439 54.0434 138.952 53.9503 138.495 53.7952C138.039 53.64 137.613 53.3918 137.217 53.0815C136.822 52.7712 136.517 52.3679 136.304 51.8404C136.03 51.3439 135.909 50.7544 135.909 50.1028Z" fill="#1A1A1A"/>
<path d="M143.851 46.1311H149.116V47.5894H145.464V49.2339H148.811V50.6923H145.464V52.4299H149.177V53.8883H143.851V46.1311Z" fill="#1A1A1A"/>
<path d="M152.555 53.8883H150.942V46.1311H152.433L155.902 51.1888C155.872 50.8785 155.872 50.5061 155.872 50.1338V46.1311H157.485V53.8883H155.994L152.524 48.8306C152.555 49.1409 152.555 49.5132 152.555 49.8855V53.8883Z" fill="#1A1A1A"/>
<path d="M158.976 46.1311H165.154V47.6205H162.871V53.8883H161.289V47.6205H159.007V46.1311H158.976Z" fill="#1A1A1A"/>
<path d="M166.614 46.1311H171.879V47.5894H168.227V49.2339H171.575V50.6923H168.227V52.4299H171.94V53.8883H166.614V46.1311Z" fill="#1A1A1A"/>
<path d="M175.349 53.8883H173.736V46.1311H176.809C177.205 46.1311 177.57 46.1621 177.905 46.2552C178.24 46.3483 178.544 46.4724 178.848 46.6586C179.153 46.8447 179.366 47.093 179.548 47.4343C179.7 47.7756 179.792 48.179 179.792 48.6444C179.792 49.8235 179.244 50.5992 178.148 50.9405L180.37 53.8572H178.514L176.505 51.1577H175.318V53.8883H175.349ZM175.349 47.5894V49.7925H176.901C177.266 49.7925 177.57 49.6994 177.814 49.5132C178.057 49.327 178.179 49.0478 178.179 48.6754C178.179 48.3031 178.057 48.0238 177.814 47.8377C177.57 47.6515 177.266 47.5584 176.901 47.5584H175.349V47.5894Z" fill="#1A1A1A"/>
<path d="M29.7324 56.7119V39.553C29.7324 39.2117 29.915 38.8704 30.2193 38.7152L38.0098 34.123L44.9483 30.0582L55.2038 24.0386C55.8428 23.6663 56.634 24.1317 56.634 24.8764V40.7321C56.634 44.4245 54.6864 47.8687 51.552 49.6994L34.6928 59.6286C32.5017 60.9318 29.7324 59.3183 29.7324 56.7119Z" fill="#37EB98"/>
<path d="M29.7324 20.5324V3.37353C29.7324 0.798144 32.4713 -0.846378 34.6928 0.456828L53.9256 11.7823C55.5994 12.7752 56.634 14.6059 56.634 16.5607C56.634 17.5536 56.3906 18.5155 55.9037 19.3223C55.4472 20.1601 54.7473 20.8427 53.9256 21.3392L42.5442 28.0724C42.2399 28.2586 41.8747 28.2586 41.5704 28.0724L30.2193 21.4012C29.915 21.215 29.7324 20.9048 29.7324 20.5324Z" fill="#37EB98"/>
<path d="M0 40.7313V19.3525C0 15.6601 1.94763 12.2159 5.0821 10.3852L21.9108 0.487081C24.0715 -0.785097 26.8103 0.766339 26.8408 3.31069C26.7495 2.3488 25.9583 1.60411 24.9844 1.60411C24.6193 1.60411 24.2845 1.6972 24.0106 1.85234L6.17764 12.3711C4.77778 13.2089 3.59094 14.419 2.92144 15.9394C2.43454 17.0564 2.13022 18.2665 2.13022 19.5697C2.13022 20.8729 2.40411 22.1141 2.92144 23.2311C3.62137 24.7515 4.77778 25.9617 6.17764 26.7994L7.94268 27.8234L13.1161 30.8642L26.3843 38.6524C26.6886 38.8386 26.8712 39.1489 26.8712 39.4902V56.6491C26.8712 59.2244 24.1323 60.869 21.9108 59.5658L5.0821 49.6676C1.9172 47.8679 0 44.4548 0 40.7313Z" fill="#37EB98"/>
<path d="M7.94234 27.8552L6.1773 26.8312C4.77744 25.9934 3.59061 24.7833 2.92111 23.2629C2.40377 22.1459 2.12988 20.9047 2.12988 19.6015C2.12988 18.2983 2.40377 17.0572 2.92111 15.9712C3.59061 14.4507 4.77744 13.2406 6.1773 12.4029L24.0407 1.85309C24.3146 1.66692 24.6494 1.60486 25.0145 1.60486C25.9883 1.60486 26.7796 2.34955 26.8709 3.31144C26.8709 3.34247 26.8709 3.3735 26.8709 3.40452V20.5634C26.8709 20.9047 26.6883 21.246 26.384 21.4012L13.1157 29.1894C12.4767 29.5617 12.4767 30.4926 13.1157 30.896L7.94234 27.8552Z" fill="url(#paint0_linear)"/>
<defs>
<linearGradient id="paint0_linear" x1="2.13533" y1="16.2492" x2="26.858" y2="16.2492" gradientUnits="userSpaceOnUse">
<stop stop-color="#37D198"/>
<stop offset="0.1908" stop-color="#37D998"/>
<stop offset="0.6127" stop-color="#37E798"/>
<stop offset="1" stop-color="#37EB98"/>
</linearGradient>
</defs>
</svg>
