<svg width="78" height="54" viewBox="0 0 78 54" fill="none" xmlns="http://www.w3.org/2000/svg">
<path d="M12.5862 24.3219C8.97232 24.3219 5.98155 23.1936 3.61385 20.9369C1.24616 18.6803 0 15.6714 0 12.161C0 8.52522 1.24616 5.64169 3.61385 3.38501C5.98155 1.12834 8.97232 0 12.5862 0C16.9477 0 20.3123 1.88056 22.4308 5.76706L18.1939 7.89836C17.6954 6.8954 16.9477 6.14317 15.9508 5.39095C14.9539 4.76409 13.8323 4.38798 12.7108 4.38798C10.5923 4.38798 8.84771 5.1402 7.47694 6.64465C6.10616 8.1491 5.35847 9.90429 5.35847 12.161C5.35847 14.4176 6.10616 16.2982 7.47694 17.6773C8.84771 19.1817 10.5923 19.934 12.7108 19.934C13.8323 19.934 14.9539 19.5578 15.9508 18.931C16.9477 18.3041 17.6954 17.4265 18.1939 16.4236L22.4308 18.5549C20.1877 22.316 16.9477 24.3219 12.5862 24.3219Z" fill="black"/>
<path d="M68.2897 23.8204H63.3051V4.63871H54.582V0.250732H76.8882V4.63871H68.2897V23.8204Z" fill="black"/>
<path d="M46.2324 4.63871V0.250732H41.2478H36.1385H31.0293V4.63871H36.1385V19.4325H31.0293V23.8204H36.1385H41.2478H46.2324V19.4325H41.2478V4.63871H46.2324Z" fill="black"/>
<path d="M46.4816 53.5333H31.0293V29.9636H46.357V34.3516H36.0139V39.3664V43.7544V49.1454H46.357V53.5333H46.4816Z" fill="black"/>
<path d="M68.5387 53.5333H62.3079L53.2109 29.8383H58.9433L65.4233 48.017L71.9033 29.8383H77.6356L68.5387 53.5333Z" fill="black"/>
<path d="M42.8675 45.1335C44.7258 45.1335 46.2322 43.618 46.2322 41.7485C46.2322 39.879 44.7258 38.3635 42.8675 38.3635C41.0093 38.3635 39.5029 39.879 39.5029 41.7485C39.5029 43.618 41.0093 45.1335 42.8675 45.1335Z" fill="black"/>
<path d="M10.4676 53.5333H1.24609V29.9636H10.4676C14.2061 29.9636 17.1969 31.092 19.44 33.2233C21.8077 35.3546 22.9292 38.2381 22.9292 41.7485C22.9292 45.2589 21.8077 48.1424 19.44 50.2737C17.1969 52.5304 14.2061 53.5333 10.4676 53.5333ZM10.4676 49.1454C12.7107 49.1454 14.4553 48.3931 15.8261 47.0141C17.1969 45.635 17.82 43.8798 17.82 41.7485C17.82 39.6172 17.1969 37.7366 15.8261 36.3575C14.58 34.9785 12.7107 34.2262 10.343 34.2262H6.1061V49.02H10.4676V49.1454Z" fill="black"/>
</svg>
