<svg width="37" height="38" viewBox="0 0 37 38" fill="none" xmlns="http://www.w3.org/2000/svg">
<path d="M18.5 38C28.7197 38 37 29.4959 37 19C37 8.50408 28.7197 0 18.5 0C8.28029 0 0 8.50408 0 19C0 29.4959 8.28029 38 18.5 38ZM8.46529 18.5883L26.3024 11.5251C27.1303 11.2179 27.8533 11.7325 27.585 13.0182L27.5866 13.0166L24.5495 27.7115C24.3244 28.7533 23.7216 29.0067 22.8783 28.5158L18.2533 25.0151L16.0225 27.2223C15.7759 27.4756 15.5677 27.6893 15.0898 27.6893L15.4182 22.8554L23.9899 14.9023C24.363 14.5651 23.9066 14.3751 23.4148 14.7108L12.822 21.5602L8.25562 20.0972C7.26433 19.7743 7.24275 19.0792 8.46529 18.5883Z" fill="black"/>
</svg>
