<?xml version="1.0" encoding="utf-8"?><svg width="285" height="101" fill="none" xmlns="http://www.w3.org/2000/svg" viewBox="0 0 285 101"><path fill-rule="evenodd" clip-rule="evenodd" d="M345.188 38.845a3.884 3.884 0 11-.001-7.769 3.884 3.884 0 01.001 7.77zm27.19-3.884a3.885 3.885 0 107.77 0 3.885 3.885 0 00-7.77 0zm31.076 0a3.885 3.885 0 107.77-.001 3.885 3.885 0 00-7.77.001zm-93.228 0a3.884 3.884 0 107.769 0 3.884 3.884 0 00-7.769 0zm-27.192 3.884a3.884 3.884 0 110-7.768 3.884 3.884 0 010 7.768zm-34.959-3.884a3.884 3.884 0 107.769 0 3.884 3.884 0 00-7.769 0zM372.378 3.885a3.885 3.885 0 107.77 0 3.885 3.885 0 00-7.77 0zm31.075 0a3.885 3.885 0 107.77-.001 3.885 3.885 0 00-7.77.001zM345.188 7.77A3.885 3.885 0 11345.187 0a3.885 3.885 0 01.001 7.77zm-34.962-3.884a3.884 3.884 0 107.769 0 3.884 3.884 0 00-7.769 0zm-27.192 3.884a3.884 3.884 0 110-7.768 3.884 3.884 0 010 7.768zm-34.959-3.884a3.884 3.884 0 107.769 0 3.884 3.884 0 00-7.769 0zM221.339 69.922a3.885 3.885 0 110-7.77 3.885 3.885 0 010 7.77zm-3.885 27.191a3.885 3.885 0 107.77 0 3.885 3.885 0 00-7.77 0zm-31.077 0a3.884 3.884 0 107.769 0 3.884 3.884 0 00-7.769 0zm0-31.076a3.884 3.884 0 107.769 0 3.884 3.884 0 00-7.769 0zM159.114 38.845a3.884 3.884 0 110-7.768 3.884 3.884 0 010 7.768zm27.191-3.884a3.884 3.884 0 107.769 0 3.884 3.884 0 00-7.769 0zm31.077 0a3.884 3.884 0 107.769 0 3.884 3.884 0 00-7.769 0zm-93.228 0a3.884 3.884 0 107.769 0 3.884 3.884 0 00-7.769 0zm-27.192 3.884a3.884 3.884 0 110-7.769 3.884 3.884 0 010 7.77zm-34.96-3.884a3.885 3.885 0 107.768 0 3.885 3.885 0 00-7.769 0zM186.304 3.885a3.885 3.885 0 107.77-.002 3.885 3.885 0 00-7.77.002zm31.078 0a3.885 3.885 0 107.769 0 3.885 3.885 0 00-7.769 0zM159.114 7.77a3.884 3.884 0 110-7.768 3.884 3.884 0 010 7.768zm-34.961-3.884a3.885 3.885 0 107.77-.002 3.885 3.885 0 00-7.77.002zM96.962 7.769a3.884 3.884 0 110-7.769 3.884 3.884 0 010 7.77zm-34.96-3.884a3.884 3.884 0 107.768 0 3.884 3.884 0 00-7.769 0zM159.267 69.922a3.884 3.884 0 11-.001-7.77 3.884 3.884 0 01.001 7.77zm-34.962 27.191a3.884 3.884 0 107.769 0 3.884 3.884 0 00-7.769 0zm31.077.002a3.884 3.884 0 107.768 0 3.884 3.884 0 00-7.768 0zm-58.269 3.883a3.885 3.885 0 110-7.77 3.885 3.885 0 010 7.77zm-34.96-3.885a3.885 3.885 0 107.77 0 3.885 3.885 0 00-7.77 0zm-27.19 3.885a3.885 3.885 0 110-7.769 3.885 3.885 0 010 7.769zM0 97.113a3.885 3.885 0 107.77 0 3.885 3.885 0 00-7.77 0zm124.305-31.076a3.884 3.884 0 107.769 0 3.884 3.884 0 00-7.769 0zm-27.192 3.885a3.885 3.885 0 110-7.77 3.885 3.885 0 010 7.77zm-34.96-3.885a3.884 3.884 0 107.77 0 3.884 3.884 0 00-7.77 0zm-27.19 3.885a3.884 3.884 0 110-7.77 3.884 3.884 0 010 7.77zM0 66.037a3.884 3.884 0 107.769 0 3.884 3.884 0 00-7.769 0z" fill="#5C5C5C" fill-opacity=".2"/></svg>