<?xml version="1.0" encoding="utf-8"?><svg width="229" height="101" fill="none" xmlns="http://www.w3.org/2000/svg" viewBox="0 0 229 101"><path fill-rule="evenodd" clip-rule="evenodd" d="M-54.964 38.845a3.885 3.885 0 100-7.769 3.885 3.885 0 000 7.77zm-27.19-3.884a3.885 3.885 0 11-7.77 0 3.885 3.885 0 017.77 0zm-31.077 0a3.884 3.884 0 11-7.769 0 3.884 3.884 0 017.769 0zm93.229 0a3.885 3.885 0 11-7.77 0 3.885 3.885 0 017.77 0zm27.191 3.884a3.884 3.884 0 100-7.769 3.884 3.884 0 000 7.77zm34.96-3.884a3.885 3.885 0 11-7.77 0 3.885 3.885 0 017.77 0zM-82.155 3.885a3.885 3.885 0 11-7.769 0 3.885 3.885 0 017.77 0zm-31.075 0a3.884 3.884 0 11-7.769 0 3.884 3.884 0 017.769 0zm58.266 3.884a3.885 3.885 0 100-7.769 3.885 3.885 0 000 7.77zm34.962-3.884a3.885 3.885 0 11-7.77 0 3.885 3.885 0 017.77 0zM7.189 7.769A3.885 3.885 0 107.19 0a3.885 3.885 0 000 7.77zm34.96-3.884a3.885 3.885 0 11-7.77 0 3.885 3.885 0 017.77 0zM-117.115 69.922a3.884 3.884 0 10.001-7.77 3.884 3.884 0 00-.001 7.77zm34.96 27.191a3.885 3.885 0 11-7.769 0 3.885 3.885 0 017.77 0zm-31.076.002a3.884 3.884 0 11-7.768 0 3.884 3.884 0 017.768 0zm58.27 3.883a3.885 3.885 0 100-7.77 3.885 3.885 0 000 7.77zm34.959-3.885a3.885 3.885 0 11-7.77 0 3.885 3.885 0 017.77 0zm27.19 3.885a3.885 3.885 0 100-7.77 3.885 3.885 0 000 7.77zm34.962-3.885a3.885 3.885 0 11-7.77 0 3.885 3.885 0 017.77 0zM-82.155 66.037a3.885 3.885 0 11-7.769 0 3.885 3.885 0 017.77 0zm27.193 3.885a3.885 3.885 0 100-7.77 3.885 3.885 0 000 7.77zm34.96-3.885a3.885 3.885 0 11-7.77 0 3.885 3.885 0 017.77 0zm27.19 3.885a3.885 3.885 0 100-7.77 3.885 3.885 0 000 7.77zm34.962-3.885a3.885 3.885 0 11-7.77 0 3.885 3.885 0 017.77 0zM131.109 38.845a3.885 3.885 0 100-7.77 3.885 3.885 0 000 7.77zm-27.19-3.884a3.884 3.884 0 11-7.769 0 3.884 3.884 0 017.769 0zm-31.078 0a3.884 3.884 0 11-7.769 0 3.884 3.884 0 017.77 0zm93.229 0a3.884 3.884 0 11-7.769 0 3.884 3.884 0 017.769 0zm27.191 3.884a3.884 3.884 0 10.001-7.769 3.884 3.884 0 00-.001 7.77zm34.961-3.884a3.884 3.884 0 11-7.769 0 3.884 3.884 0 017.769 0zM103.92 3.885a3.885 3.885 0 11-7.77 0 3.885 3.885 0 017.77 0zm-31.078 0a3.885 3.885 0 11-7.769 0 3.885 3.885 0 017.77 0zM131.11 7.77A3.885 3.885 0 10131.111 0a3.885 3.885 0 00-.001 7.77zm34.961-3.884a3.884 3.884 0 11-7.769 0 3.884 3.884 0 017.769 0zm27.192 3.884a3.884 3.884 0 100-7.768 3.884 3.884 0 000 7.768zm34.96-3.884a3.884 3.884 0 11-7.769 0 3.884 3.884 0 017.769 0zM68.957 69.922a3.884 3.884 0 100-7.77 3.884 3.884 0 000 7.77zm34.962 27.191a3.885 3.885 0 11-7.77 0 3.885 3.885 0 017.77 0zm-31.078.002a3.884 3.884 0 11-7.768 0 3.884 3.884 0 017.768 0zm58.269 3.883a3.885 3.885 0 100-7.77 3.885 3.885 0 000 7.77zm34.96-3.885a3.885 3.885 0 11-7.77 0 3.885 3.885 0 017.77 0zm27.19 3.885a3.885 3.885 0 100-7.77 3.885 3.885 0 000 7.77zm34.963-3.885a3.884 3.884 0 11-7.769 0 3.884 3.884 0 017.769 0zM103.919 66.037a3.884 3.884 0 11-7.769 0 3.884 3.884 0 017.769 0zm27.191 3.885a3.884 3.884 0 10.001-7.77 3.884 3.884 0 00-.001 7.77zm34.96-3.885a3.884 3.884 0 11-7.769 0 3.884 3.884 0 017.769 0zm27.19 3.885a3.884 3.884 0 10.001-7.77 3.884 3.884 0 00-.001 7.77zm34.964-3.885a3.885 3.885 0 11-7.77-.001 3.885 3.885 0 017.77.001z" fill="#5C5C5C" fill-opacity=".2"/></svg>