<?xml version="1.0" encoding="utf-8"?><svg width="39" height="63" fill="none" xmlns="http://www.w3.org/2000/svg" viewBox="0 0 39 63"><g clip-path="url(#cclip0)" fill="#000"><path d="M19.5 0c7.168 0 13 5.68 13 12.66v12.68c0 6.98-5.832 12.66-13 12.66s-13-5.679-13-12.66V12.66C6.5 5.68 12.332 0 19.5 0zM7.944 25.34c0 6.205 5.184 11.253 11.556 11.253 6.372 0 11.556-5.048 11.556-11.253V12.66c0-6.204-5.184-11.253-11.556-11.253-6.372 0-11.556 5.049-11.556 11.254v12.68z"/><path d="M19.5 4.222c.4 0 .723.315.723.704v6.373a.713.713 0 01-.723.703.713.713 0 01-.722-.704V4.927c0-.39.324-.704.722-.704z"/></g><path d="M8 51l11.5 11L31 51" stroke="#000" stroke-width="1.6" stroke-linecap="round" stroke-linejoin="round"/><defs><clipPath id="cclip0"><path fill="#fff" transform="matrix(-1 0 0 1 39 0)" d="M0 0h39v38H0z"/></clipPath></defs></svg>