<?xml version="1.0" encoding="utf-8"?><svg width="38" height="38" fill="none" xmlns="http://www.w3.org/2000/svg" viewBox="0 0 38 38"><path d="M22.746 19.212a3.596 3.596 0 11-7.192 0 3.596 3.596 0 017.192 0z" fill="#000"/><path d="M27.56 12.85a3.343 3.343 0 00-.807-1.24 3.341 3.341 0 00-1.24-.807c-.38-.148-.952-.324-2.003-.372-1.138-.051-1.48-.063-4.36-.063-2.88 0-3.222.011-4.36.063-1.051.048-1.622.224-2.002.372a3.339 3.339 0 00-1.24.807 3.343 3.343 0 00-.808 1.24c-.148.38-.323.952-.371 2.003-.052 1.138-.063 1.48-.063 4.36 0 2.88.01 3.222.063 4.36.048 1.051.223 1.622.371 2.002.173.47.449.893.807 1.24.348.36.772.635 1.24.808.38.148.952.323 2.004.371 1.137.052 1.478.063 4.359.063 2.881 0 3.222-.01 4.36-.063 1.051-.047 1.622-.223 2.003-.371a3.572 3.572 0 002.047-2.048c.148-.38.324-.95.372-2.003.052-1.137.062-1.479.062-4.36 0-2.88-.01-3.221-.062-4.359-.048-1.051-.224-1.623-.372-2.003zm-8.41 11.902a5.54 5.54 0 110-11.08 5.54 5.54 0 010 11.08zM24.91 14.75a1.295 1.295 0 110-2.59 1.295 1.295 0 010 2.59z" fill="#000"/><path d="M19.15.425C8.775.425.362 8.838.362 19.212.362 29.587 8.775 38 19.15 38c10.374 0 18.788-8.413 18.788-18.788C37.938 8.838 29.523.425 19.15.425zM29.873 23.66c-.052 1.149-.235 1.933-.501 2.619a5.516 5.516 0 01-3.156 3.155c-.686.267-1.47.449-2.618.502-1.15.052-1.518.065-4.448.065-2.93 0-3.297-.013-4.448-.066-1.148-.052-1.932-.234-2.618-.5a5.286 5.286 0 01-1.911-1.245 5.287 5.287 0 01-1.245-1.911c-.266-.686-.449-1.47-.5-2.619-.054-1.15-.066-1.518-.066-4.448 0-2.93.012-3.297.065-4.447.052-1.149.234-1.933.5-2.62.272-.719.697-1.371 1.246-1.91a5.285 5.285 0 011.91-1.244c.687-.267 1.47-.45 2.62-.502 1.15-.052 1.517-.065 4.447-.065s3.297.013 4.448.066c1.148.052 1.932.234 2.618.5.72.271 1.372.696 1.911 1.245.55.54.974 1.191 1.245 1.91.267.687.449 1.471.501 2.62.053 1.15.065 1.518.065 4.447 0 2.93-.012 3.298-.065 4.448z" fill="#000"/></svg>