<?xml version="1.0" encoding="utf-8"?><svg width="186" height="61" fill="none" xmlns="http://www.w3.org/2000/svg" viewBox="0 0 186 61"><path d="M69.72 28.724c0-2.359.395-4.469 1.187-6.33.79-1.862 1.856-3.382 3.165-4.5a13.972 13.972 0 014.412-2.544 15.486 15.486 0 015.082-.869c2.709 0 5.143.559 7.365 1.707v5.492c-1.735-1.396-3.896-2.11-6.452-2.11-2.495 0-4.656.776-6.421 2.327-1.765 1.552-2.678 3.817-2.678 6.827 0 1.427.244 2.699.76 3.816a7.255 7.255 0 002.07 2.669c.883.651 1.826 1.179 2.922 1.52 1.065.341 2.19.527 3.317.527 2.86 0 5.051-.744 6.634-2.203v5.555c-2.283 1.148-4.778 1.706-7.456 1.706-1.765 0-3.47-.28-5.082-.838a14.556 14.556 0 01-4.443-2.451c-1.34-1.086-2.404-2.513-3.195-4.282-.792-1.769-1.187-3.785-1.187-6.02zM100.608 17.367c0 .993-.274 1.738-.852 2.266-.579.496-1.278.775-2.16.775-.853 0-1.583-.248-2.131-.775-.578-.497-.852-1.273-.852-2.265 0-.962.274-1.707.852-2.204.578-.496 1.278-.775 2.13-.775.852 0 1.582.248 2.16.775.548.497.853 1.242.853 2.204zm-.457 24.451h-5.112V23.45h5.112v18.37zM106.269 18.112l5.082-1.272v6.61h5.599v4.467h-5.599v7.199c0 1.83.943 2.761 2.83 2.761a8.502 8.502 0 003.195-.62v4.282c-1.461.527-3.043.807-4.747.807-1.857 0-3.378-.497-4.595-1.49-1.187-.993-1.796-2.575-1.796-4.716v-8.223h-2.982V23.45h2.982v-5.337h.031zM121.27 15.04h9.647c4.412 0 7.76 1.21 10.073 3.662 2.282 2.42 3.439 5.678 3.439 9.743s-1.157 7.291-3.439 9.743c-2.283 2.42-5.661 3.661-10.073 3.661h-9.647V15.04zm15.52 19.61c1.339-1.396 2.009-3.475 2.009-6.236 0-2.762-.67-4.84-2.009-6.237-1.339-1.396-3.286-2.11-5.873-2.11h-4.108v16.662h4.108c2.587.031 4.534-.682 5.873-2.078zM147.2 32.634c0-1.645.274-3.134.852-4.407.578-1.272 1.309-2.296 2.222-3.04a9.932 9.932 0 012.921-1.676 8.986 8.986 0 013.104-.558c1.765 0 3.287.341 4.595 1.024 1.309.682 2.252 1.582 2.861 2.668.609 1.086 1.035 2.296 1.278 3.661.244 1.366.152 2.731-.213 4.065h-12.446c.273 1.272.973 2.234 2.13 2.855 1.156.62 2.526.93 4.078.93 1.947 0 3.712-.372 5.325-1.116v4.157c-1.734.776-3.895 1.149-6.482 1.149-2.952 0-5.386-.87-7.334-2.576-1.947-1.706-2.891-4.096-2.891-7.136zm12.964-1.738c.122-.838-.122-1.707-.7-2.606-.578-.9-1.582-1.335-3.013-1.335-1.126 0-2.099.342-2.921 1.055-.822.714-1.217 1.676-1.248 2.886h7.882zM180.553 23.45h5.448l-7.274 18.368h-5.386l-7.273-18.369h5.447l4.534 12.722 4.504-12.722zM135.909 50.103c0-.683.121-1.303.334-1.83a4.13 4.13 0 01.913-1.304c.366-.31.792-.559 1.279-.745a4.65 4.65 0 011.46-.248c.791 0 1.491.155 2.13.496v1.583c-.517-.404-1.126-.62-1.856-.62-.73 0-1.339.216-1.856.682-.518.434-.761 1.117-.761 1.986 0 .403.061.776.213 1.117.152.31.365.59.609.776.243.186.547.34.852.434.304.093.639.155.974.155.821 0 1.46-.217 1.917-.651v1.613c-.67.341-1.37.496-2.161.496a4.522 4.522 0 01-1.461-.248 4.368 4.368 0 01-1.278-.714c-.395-.31-.7-.713-.913-1.24-.274-.497-.395-1.087-.395-1.738zM143.851 46.131h5.265v1.458h-3.652v1.645h3.347v1.458h-3.347v1.738h3.713v1.458h-5.326v-7.757zM152.555 53.888h-1.613v-7.757h1.491l3.469 5.058c-.03-.31-.03-.683-.03-1.055V46.13h1.613v7.757h-1.491l-3.47-5.057c.031.31.031.682.031 1.054v4.003zM158.976 46.131h6.178v1.49h-2.283v6.267h-1.582v-6.267h-2.282v-1.49h-.031zM166.614 46.131h5.265v1.458h-3.652v1.645h3.348v1.458h-3.348v1.738h3.713v1.458h-5.326v-7.757zM175.349 53.888h-1.613v-7.757h3.073c.396 0 .761.031 1.096.124.335.093.639.217.943.404.305.186.518.434.7.775.152.342.244.745.244 1.21 0 1.18-.548 1.955-1.644 2.297l2.222 2.916h-1.856l-2.009-2.7h-1.187v2.731h.031zm0-6.299v2.203h1.552c.365 0 .669-.093.913-.279.243-.186.365-.465.365-.838 0-.372-.122-.651-.365-.837-.244-.187-.548-.28-.913-.28h-1.552v.031z" fill="#1A1A1A"/><path d="M29.732 56.712V39.553c0-.341.183-.683.487-.838l7.79-4.592 6.94-4.065 10.255-6.02c.639-.372 1.43.094 1.43.838v15.856c0 3.693-1.948 7.137-5.082 8.967l-16.86 9.93c-2.19 1.303-4.96-.31-4.96-2.917zM29.732 20.532V3.374c0-2.576 2.74-4.22 4.96-2.917l19.234 11.325a5.571 5.571 0 012.708 4.779c0 .993-.243 1.954-.73 2.761-.457.838-1.157 1.52-1.978 2.017l-11.382 6.733a.919.919 0 01-.974 0l-11.35-6.67a.994.994 0 01-.488-.87zM0 40.731V19.352c0-3.692 1.948-7.136 5.082-8.967L21.911.487c2.16-1.272 4.9.28 4.93 2.824a1.868 1.868 0 00-1.857-1.707c-.365 0-.7.093-.973.248L6.178 12.372c-1.4.837-2.587 2.047-3.257 3.567-.486 1.117-.79 2.328-.79 3.63 0 1.304.273 2.545.79 3.662.7 1.52 1.857 2.73 3.257 3.568l1.765 1.024 5.173 3.041 13.268 7.788a.982.982 0 01.487.838v17.16c0 2.574-2.739 4.219-4.96 2.916L5.082 49.668C1.917 47.868 0 44.455 0 40.73z" fill="#37EB98"/><path d="M7.942 27.855l-1.765-1.024c-1.4-.838-2.586-2.048-3.256-3.568A8.683 8.683 0 012.13 19.6c0-1.303.274-2.544.791-3.63.67-1.52 1.856-2.73 3.256-3.568l17.864-10.55c.274-.186.608-.248.974-.248.973 0 1.765.745 1.856 1.706V20.563c0 .342-.183.683-.487.838L13.116 29.19c-.64.373-.64 1.304 0 1.707l-5.174-3.04z" fill="url(#fpaint0_linear)"/><defs><linearGradient id="fpaint0_linear" x1="2.135" y1="16.249" x2="26.858" y2="16.249" gradientUnits="userSpaceOnUse"><stop stop-color="#37D198"/><stop offset=".191" stop-color="#37D998"/><stop offset=".613" stop-color="#37E798"/><stop offset="1" stop-color="#37EB98"/></linearGradient></defs></svg>