<?xml version="1.0" encoding="utf-8"?><svg width="78" height="54" fill="none" xmlns="http://www.w3.org/2000/svg" viewBox="0 0 78 54"><path d="M12.586 24.322c-3.614 0-6.604-1.128-8.972-3.385C1.246 18.68 0 15.67 0 12.16c0-3.636 1.246-6.52 3.614-8.776C5.982 1.128 8.972 0 12.586 0c4.362 0 7.726 1.88 9.845 5.767l-4.237 2.131c-.499-1.003-1.246-1.755-2.243-2.507-.997-.627-2.119-1.003-3.24-1.003-2.119 0-3.863.752-5.234 2.257-1.37 1.504-2.119 3.26-2.119 5.516 0 2.257.748 4.137 2.119 5.516 1.37 1.505 3.115 2.257 5.234 2.257 1.121 0 2.243-.376 3.24-1.003a6.18 6.18 0 002.243-2.507l4.237 2.13c-2.243 3.762-5.483 5.768-9.845 5.768zM68.29 23.82h-4.985V4.64h-8.723V.25h22.306v4.388H68.29V23.82zM46.232 4.639V.25H31.03v4.388h5.11v14.794h-5.11v4.387H46.232v-4.387h-4.984V4.639h4.984zM46.482 53.533H31.029v-23.57h15.328v4.389H36.014V49.145h10.343v4.388h.125zM68.539 53.533h-6.231L53.21 29.838h5.732l6.48 18.179 6.48-18.179h5.733l-9.097 23.695z" fill="#000"/><path d="M42.867 45.133c1.859 0 3.365-1.515 3.365-3.385 0-1.869-1.506-3.384-3.364-3.384-1.859 0-3.365 1.515-3.365 3.385 0 1.869 1.506 3.384 3.364 3.384zM10.468 53.533H1.246v-23.57h9.222c3.738 0 6.729 1.129 8.972 3.26 2.368 2.132 3.49 5.015 3.49 8.526 0 3.51-1.122 6.393-3.49 8.525-2.243 2.256-5.234 3.26-8.972 3.26zm0-4.388c2.243 0 3.987-.752 5.358-2.13 1.37-1.38 1.994-3.135 1.994-5.267 0-2.13-.623-4.011-1.994-5.39-1.246-1.38-3.115-2.132-5.483-2.132H6.106V49.02h4.362v.125z" fill="#000"/></svg>