<?xml version="1.0" encoding="utf-8"?><svg width="37" height="38" fill="none" xmlns="http://www.w3.org/2000/svg" viewBox="0 0 37 38"><path d="M18.5 38C28.72 38 37 29.496 37 19S28.72 0 18.5 0 0 8.504 0 19s8.28 19 18.5 19zM8.465 18.588l17.837-7.063c.828-.307 1.551.207 1.283 1.493l.002-.001-3.038 14.695c-.225 1.041-.827 1.295-1.67.804l-4.626-3.5-2.23 2.206c-.247.254-.455.467-.933.467l.328-4.834 8.572-7.953c.373-.337-.083-.527-.575-.191l-10.593 6.85-4.566-1.464c-.992-.323-1.013-1.018.21-1.509z" fill="#000"/></svg>