<?xml version="1.0" encoding="utf-8"?><svg viewBox="0 0 285 101" xmlns="http://www.w3.org/2000/svg" xmlns:xlink="http://www.w3.org/1999/xlink"><style>:root>svg{display:none}:root>svg:target{display:block}</style><svg fill="none" viewBox="0 0 285 101" id="corner-dotted" xmlns="http://www.w3.org/2000/svg"><path fill-rule="evenodd" clip-rule="evenodd" d="M345.188 38.845a3.884 3.884 0 11-.001-7.769 3.884 3.884 0 01.001 7.77zm27.19-3.884a3.885 3.885 0 107.77 0 3.885 3.885 0 00-7.77 0zm31.076 0a3.885 3.885 0 107.77-.001 3.885 3.885 0 00-7.77.001zm-93.228 0a3.884 3.884 0 107.769 0 3.884 3.884 0 00-7.769 0zm-27.192 3.884a3.884 3.884 0 110-7.768 3.884 3.884 0 010 7.768zm-34.959-3.884a3.884 3.884 0 107.769 0 3.884 3.884 0 00-7.769 0zM372.378 3.885a3.885 3.885 0 107.77 0 3.885 3.885 0 00-7.77 0zm31.075 0a3.885 3.885 0 107.77-.001 3.885 3.885 0 00-7.77.001zM345.188 7.77A3.885 3.885 0 11345.187 0a3.885 3.885 0 01.001 7.77zm-34.962-3.884a3.884 3.884 0 107.769 0 3.884 3.884 0 00-7.769 0zm-27.192 3.884a3.884 3.884 0 110-7.768 3.884 3.884 0 010 7.768zm-34.959-3.884a3.884 3.884 0 107.769 0 3.884 3.884 0 00-7.769 0zM221.339 69.922a3.885 3.885 0 110-7.77 3.885 3.885 0 010 7.77zm-3.885 27.191a3.885 3.885 0 107.77 0 3.885 3.885 0 00-7.77 0zm-31.077 0a3.884 3.884 0 107.769 0 3.884 3.884 0 00-7.769 0zm0-31.076a3.884 3.884 0 107.769 0 3.884 3.884 0 00-7.769 0zM159.114 38.845a3.884 3.884 0 110-7.768 3.884 3.884 0 010 7.768zm27.191-3.884a3.884 3.884 0 107.769 0 3.884 3.884 0 00-7.769 0zm31.077 0a3.884 3.884 0 107.769 0 3.884 3.884 0 00-7.769 0zm-93.228 0a3.884 3.884 0 107.769 0 3.884 3.884 0 00-7.769 0zm-27.192 3.884a3.884 3.884 0 110-7.769 3.884 3.884 0 010 7.77zm-34.96-3.884a3.885 3.885 0 107.768 0 3.885 3.885 0 00-7.769 0zM186.304 3.885a3.885 3.885 0 107.77-.002 3.885 3.885 0 00-7.77.002zm31.078 0a3.885 3.885 0 107.769 0 3.885 3.885 0 00-7.769 0zM159.114 7.77a3.884 3.884 0 110-7.768 3.884 3.884 0 010 7.768zm-34.961-3.884a3.885 3.885 0 107.77-.002 3.885 3.885 0 00-7.77.002zM96.962 7.769a3.884 3.884 0 110-7.769 3.884 3.884 0 010 7.77zm-34.96-3.884a3.884 3.884 0 107.768 0 3.884 3.884 0 00-7.769 0zM159.267 69.922a3.884 3.884 0 11-.001-7.77 3.884 3.884 0 01.001 7.77zm-34.962 27.191a3.884 3.884 0 107.769 0 3.884 3.884 0 00-7.769 0zm31.077.002a3.884 3.884 0 107.768 0 3.884 3.884 0 00-7.768 0zm-58.269 3.883a3.885 3.885 0 110-7.77 3.885 3.885 0 010 7.77zm-34.96-3.885a3.885 3.885 0 107.77 0 3.885 3.885 0 00-7.77 0zm-27.19 3.885a3.885 3.885 0 110-7.769 3.885 3.885 0 010 7.769zM0 97.113a3.885 3.885 0 107.77 0 3.885 3.885 0 00-7.77 0zm124.305-31.076a3.884 3.884 0 107.769 0 3.884 3.884 0 00-7.769 0zm-27.192 3.885a3.885 3.885 0 110-7.77 3.885 3.885 0 010 7.77zm-34.96-3.885a3.884 3.884 0 107.77 0 3.884 3.884 0 00-7.77 0zm-27.19 3.885a3.884 3.884 0 110-7.77 3.884 3.884 0 010 7.77zM0 66.037a3.884 3.884 0 107.769 0 3.884 3.884 0 00-7.769 0z" fill="#5C5C5C" fill-opacity=".2"/></svg><svg fill="none" viewBox="0 0 229 101" id="dotted" xmlns="http://www.w3.org/2000/svg"><path fill-rule="evenodd" clip-rule="evenodd" d="M-54.964 38.845a3.885 3.885 0 100-7.769 3.885 3.885 0 000 7.77zm-27.19-3.884a3.885 3.885 0 11-7.77 0 3.885 3.885 0 017.77 0zm-31.077 0a3.884 3.884 0 11-7.769 0 3.884 3.884 0 017.769 0zm93.229 0a3.885 3.885 0 11-7.77 0 3.885 3.885 0 017.77 0zm27.191 3.884a3.884 3.884 0 100-7.769 3.884 3.884 0 000 7.77zm34.96-3.884a3.885 3.885 0 11-7.77 0 3.885 3.885 0 017.77 0zM-82.155 3.885a3.885 3.885 0 11-7.769 0 3.885 3.885 0 017.77 0zm-31.075 0a3.884 3.884 0 11-7.769 0 3.884 3.884 0 017.769 0zm58.266 3.884a3.885 3.885 0 100-7.769 3.885 3.885 0 000 7.77zm34.962-3.884a3.885 3.885 0 11-7.77 0 3.885 3.885 0 017.77 0zM7.189 7.769A3.885 3.885 0 107.19 0a3.885 3.885 0 000 7.77zm34.96-3.884a3.885 3.885 0 11-7.77 0 3.885 3.885 0 017.77 0zM-117.115 69.922a3.884 3.884 0 10.001-7.77 3.884 3.884 0 00-.001 7.77zm34.96 27.191a3.885 3.885 0 11-7.769 0 3.885 3.885 0 017.77 0zm-31.076.002a3.884 3.884 0 11-7.768 0 3.884 3.884 0 017.768 0zm58.27 3.883a3.885 3.885 0 100-7.77 3.885 3.885 0 000 7.77zm34.959-3.885a3.885 3.885 0 11-7.77 0 3.885 3.885 0 017.77 0zm27.19 3.885a3.885 3.885 0 100-7.77 3.885 3.885 0 000 7.77zm34.962-3.885a3.885 3.885 0 11-7.77 0 3.885 3.885 0 017.77 0zM-82.155 66.037a3.885 3.885 0 11-7.769 0 3.885 3.885 0 017.77 0zm27.193 3.885a3.885 3.885 0 100-7.77 3.885 3.885 0 000 7.77zm34.96-3.885a3.885 3.885 0 11-7.77 0 3.885 3.885 0 017.77 0zm27.19 3.885a3.885 3.885 0 100-7.77 3.885 3.885 0 000 7.77zm34.962-3.885a3.885 3.885 0 11-7.77 0 3.885 3.885 0 017.77 0zM131.109 38.845a3.885 3.885 0 100-7.77 3.885 3.885 0 000 7.77zm-27.19-3.884a3.884 3.884 0 11-7.769 0 3.884 3.884 0 017.769 0zm-31.078 0a3.884 3.884 0 11-7.769 0 3.884 3.884 0 017.77 0zm93.229 0a3.884 3.884 0 11-7.769 0 3.884 3.884 0 017.769 0zm27.191 3.884a3.884 3.884 0 10.001-7.769 3.884 3.884 0 00-.001 7.77zm34.961-3.884a3.884 3.884 0 11-7.769 0 3.884 3.884 0 017.769 0zM103.92 3.885a3.885 3.885 0 11-7.77 0 3.885 3.885 0 017.77 0zm-31.078 0a3.885 3.885 0 11-7.769 0 3.885 3.885 0 017.77 0zM131.11 7.77A3.885 3.885 0 10131.111 0a3.885 3.885 0 00-.001 7.77zm34.961-3.884a3.884 3.884 0 11-7.769 0 3.884 3.884 0 017.769 0zm27.192 3.884a3.884 3.884 0 100-7.768 3.884 3.884 0 000 7.768zm34.96-3.884a3.884 3.884 0 11-7.769 0 3.884 3.884 0 017.769 0zM68.957 69.922a3.884 3.884 0 100-7.77 3.884 3.884 0 000 7.77zm34.962 27.191a3.885 3.885 0 11-7.77 0 3.885 3.885 0 017.77 0zm-31.078.002a3.884 3.884 0 11-7.768 0 3.884 3.884 0 017.768 0zm58.269 3.883a3.885 3.885 0 100-7.77 3.885 3.885 0 000 7.77zm34.96-3.885a3.885 3.885 0 11-7.77 0 3.885 3.885 0 017.77 0zm27.19 3.885a3.885 3.885 0 100-7.77 3.885 3.885 0 000 7.77zm34.963-3.885a3.884 3.884 0 11-7.769 0 3.884 3.884 0 017.769 0zM103.919 66.037a3.884 3.884 0 11-7.769 0 3.884 3.884 0 017.769 0zm27.191 3.885a3.884 3.884 0 10.001-7.77 3.884 3.884 0 00-.001 7.77zm34.96-3.885a3.884 3.884 0 11-7.769 0 3.884 3.884 0 017.769 0zm27.19 3.885a3.884 3.884 0 10.001-7.77 3.884 3.884 0 00-.001 7.77zm34.964-3.885a3.885 3.885 0 11-7.77-.001 3.885 3.885 0 017.77.001z" fill="#5C5C5C" fill-opacity=".2"/></svg><svg fill="none" viewBox="0 0 39 63" id="down" xmlns="http://www.w3.org/2000/svg"><g clip-path="url(#cclip0)" fill="#000"><path d="M19.5 0c7.168 0 13 5.68 13 12.66v12.68c0 6.98-5.832 12.66-13 12.66s-13-5.679-13-12.66V12.66C6.5 5.68 12.332 0 19.5 0zM7.944 25.34c0 6.205 5.184 11.253 11.556 11.253 6.372 0 11.556-5.048 11.556-11.253V12.66c0-6.204-5.184-11.253-11.556-11.253-6.372 0-11.556 5.049-11.556 11.254v12.68z"/><path d="M19.5 4.222c.4 0 .723.315.723.704v6.373a.713.713 0 01-.723.703.713.713 0 01-.722-.704V4.927c0-.39.324-.704.722-.704z"/></g><path d="M8 51l11.5 11L31 51" stroke="#000" stroke-width="1.6" stroke-linecap="round" stroke-linejoin="round"/><defs><clipPath id="cclip0"><path fill="#fff" transform="matrix(-1 0 0 1 39 0)" d="M0 0h39v38H0z"/></clipPath></defs></svg><svg fill="none" viewBox="0 0 38 38" id="facebook-black" xmlns="http://www.w3.org/2000/svg"><path d="M38 19C38 8.505 29.494 0 19 0 8.505 0 0 8.505 0 19c0 10.494 8.505 19 19 19 .111 0 .223 0 .334-.007V23.208h-4.082v-4.757h4.082v-3.503c0-4.06 2.479-6.272 6.1-6.272 1.738 0 3.23.126 3.66.186v4.245H26.6c-1.967 0-2.353.935-2.353 2.308v3.028h4.713l-.616 4.758h-4.097v14.064C32.19 34.987 38 27.676 38 19z" fill="#000"/></svg><svg fill="none" viewBox="0 0 38 38" id="instagram-black" xmlns="http://www.w3.org/2000/svg"><path d="M22.746 19.212a3.596 3.596 0 11-7.192 0 3.596 3.596 0 017.192 0z" fill="#000"/><path d="M27.56 12.85a3.343 3.343 0 00-.807-1.24 3.341 3.341 0 00-1.24-.807c-.38-.148-.952-.324-2.003-.372-1.138-.051-1.48-.063-4.36-.063-2.88 0-3.222.011-4.36.063-1.051.048-1.622.224-2.002.372a3.339 3.339 0 00-1.24.807 3.343 3.343 0 00-.808 1.24c-.148.38-.323.952-.371 2.003-.052 1.138-.063 1.48-.063 4.36 0 2.88.01 3.222.063 4.36.048 1.051.223 1.622.371 2.002.173.47.449.893.807 1.24.348.36.772.635 1.24.808.38.148.952.323 2.004.371 1.137.052 1.478.063 4.359.063 2.881 0 3.222-.01 4.36-.063 1.051-.047 1.622-.223 2.003-.371a3.572 3.572 0 002.047-2.048c.148-.38.324-.95.372-2.003.052-1.137.062-1.479.062-4.36 0-2.88-.01-3.221-.062-4.359-.048-1.051-.224-1.623-.372-2.003zm-8.41 11.902a5.54 5.54 0 110-11.08 5.54 5.54 0 010 11.08zM24.91 14.75a1.295 1.295 0 110-2.59 1.295 1.295 0 010 2.59z" fill="#000"/><path d="M19.15.425C8.775.425.362 8.838.362 19.212.362 29.587 8.775 38 19.15 38c10.374 0 18.788-8.413 18.788-18.788C37.938 8.838 29.523.425 19.15.425zM29.873 23.66c-.052 1.149-.235 1.933-.501 2.619a5.516 5.516 0 01-3.156 3.155c-.686.267-1.47.449-2.618.502-1.15.052-1.518.065-4.448.065-2.93 0-3.297-.013-4.448-.066-1.148-.052-1.932-.234-2.618-.5a5.286 5.286 0 01-1.911-1.245 5.287 5.287 0 01-1.245-1.911c-.266-.686-.449-1.47-.5-2.619-.054-1.15-.066-1.518-.066-4.448 0-2.93.012-3.297.065-4.447.052-1.149.234-1.933.5-2.62.272-.719.697-1.371 1.246-1.91a5.285 5.285 0 011.91-1.244c.687-.267 1.47-.45 2.62-.502 1.15-.052 1.517-.065 4.447-.065s3.297.013 4.448.066c1.148.052 1.932.234 2.618.5.72.271 1.372.696 1.911 1.245.55.54.974 1.191 1.245 1.91.267.687.449 1.471.501 2.62.053 1.15.065 1.518.065 4.447 0 2.93-.012 3.298-.065 4.448z" fill="#000"/></svg><svg fill="none" viewBox="0 0 186 61" id="new-logo" xmlns="http://www.w3.org/2000/svg"><path d="M69.72 28.724c0-2.359.395-4.469 1.187-6.33.79-1.862 1.856-3.382 3.165-4.5a13.972 13.972 0 014.412-2.544 15.486 15.486 0 015.082-.869c2.709 0 5.143.559 7.365 1.707v5.492c-1.735-1.396-3.896-2.11-6.452-2.11-2.495 0-4.656.776-6.421 2.327-1.765 1.552-2.678 3.817-2.678 6.827 0 1.427.244 2.699.76 3.816a7.255 7.255 0 002.07 2.669c.883.651 1.826 1.179 2.922 1.52 1.065.341 2.19.527 3.317.527 2.86 0 5.051-.744 6.634-2.203v5.555c-2.283 1.148-4.778 1.706-7.456 1.706-1.765 0-3.47-.28-5.082-.838a14.556 14.556 0 01-4.443-2.451c-1.34-1.086-2.404-2.513-3.195-4.282-.792-1.769-1.187-3.785-1.187-6.02zM100.608 17.367c0 .993-.274 1.738-.852 2.266-.579.496-1.278.775-2.16.775-.853 0-1.583-.248-2.131-.775-.578-.497-.852-1.273-.852-2.265 0-.962.274-1.707.852-2.204.578-.496 1.278-.775 2.13-.775.852 0 1.582.248 2.16.775.548.497.853 1.242.853 2.204zm-.457 24.451h-5.112V23.45h5.112v18.37zM106.269 18.112l5.082-1.272v6.61h5.599v4.467h-5.599v7.199c0 1.83.943 2.761 2.83 2.761a8.502 8.502 0 003.195-.62v4.282c-1.461.527-3.043.807-4.747.807-1.857 0-3.378-.497-4.595-1.49-1.187-.993-1.796-2.575-1.796-4.716v-8.223h-2.982V23.45h2.982v-5.337h.031zM121.27 15.04h9.647c4.412 0 7.76 1.21 10.073 3.662 2.282 2.42 3.439 5.678 3.439 9.743s-1.157 7.291-3.439 9.743c-2.283 2.42-5.661 3.661-10.073 3.661h-9.647V15.04zm15.52 19.61c1.339-1.396 2.009-3.475 2.009-6.236 0-2.762-.67-4.84-2.009-6.237-1.339-1.396-3.286-2.11-5.873-2.11h-4.108v16.662h4.108c2.587.031 4.534-.682 5.873-2.078zM147.2 32.634c0-1.645.274-3.134.852-4.407.578-1.272 1.309-2.296 2.222-3.04a9.932 9.932 0 012.921-1.676 8.986 8.986 0 013.104-.558c1.765 0 3.287.341 4.595 1.024 1.309.682 2.252 1.582 2.861 2.668.609 1.086 1.035 2.296 1.278 3.661.244 1.366.152 2.731-.213 4.065h-12.446c.273 1.272.973 2.234 2.13 2.855 1.156.62 2.526.93 4.078.93 1.947 0 3.712-.372 5.325-1.116v4.157c-1.734.776-3.895 1.149-6.482 1.149-2.952 0-5.386-.87-7.334-2.576-1.947-1.706-2.891-4.096-2.891-7.136zm12.964-1.738c.122-.838-.122-1.707-.7-2.606-.578-.9-1.582-1.335-3.013-1.335-1.126 0-2.099.342-2.921 1.055-.822.714-1.217 1.676-1.248 2.886h7.882zM180.553 23.45h5.448l-7.274 18.368h-5.386l-7.273-18.369h5.447l4.534 12.722 4.504-12.722zM135.909 50.103c0-.683.121-1.303.334-1.83a4.13 4.13 0 01.913-1.304c.366-.31.792-.559 1.279-.745a4.65 4.65 0 011.46-.248c.791 0 1.491.155 2.13.496v1.583c-.517-.404-1.126-.62-1.856-.62-.73 0-1.339.216-1.856.682-.518.434-.761 1.117-.761 1.986 0 .403.061.776.213 1.117.152.31.365.59.609.776.243.186.547.34.852.434.304.093.639.155.974.155.821 0 1.46-.217 1.917-.651v1.613c-.67.341-1.37.496-2.161.496a4.522 4.522 0 01-1.461-.248 4.368 4.368 0 01-1.278-.714c-.395-.31-.7-.713-.913-1.24-.274-.497-.395-1.087-.395-1.738zM143.851 46.131h5.265v1.458h-3.652v1.645h3.347v1.458h-3.347v1.738h3.713v1.458h-5.326v-7.757zM152.555 53.888h-1.613v-7.757h1.491l3.469 5.058c-.03-.31-.03-.683-.03-1.055V46.13h1.613v7.757h-1.491l-3.47-5.057c.031.31.031.682.031 1.054v4.003zM158.976 46.131h6.178v1.49h-2.283v6.267h-1.582v-6.267h-2.282v-1.49h-.031zM166.614 46.131h5.265v1.458h-3.652v1.645h3.348v1.458h-3.348v1.738h3.713v1.458h-5.326v-7.757zM175.349 53.888h-1.613v-7.757h3.073c.396 0 .761.031 1.096.124.335.093.639.217.943.404.305.186.518.434.7.775.152.342.244.745.244 1.21 0 1.18-.548 1.955-1.644 2.297l2.222 2.916h-1.856l-2.009-2.7h-1.187v2.731h.031zm0-6.299v2.203h1.552c.365 0 .669-.093.913-.279.243-.186.365-.465.365-.838 0-.372-.122-.651-.365-.837-.244-.187-.548-.28-.913-.28h-1.552v.031z" fill="#1A1A1A"/><path d="M29.732 56.712V39.553c0-.341.183-.683.487-.838l7.79-4.592 6.94-4.065 10.255-6.02c.639-.372 1.43.094 1.43.838v15.856c0 3.693-1.948 7.137-5.082 8.967l-16.86 9.93c-2.19 1.303-4.96-.31-4.96-2.917zM29.732 20.532V3.374c0-2.576 2.74-4.22 4.96-2.917l19.234 11.325a5.571 5.571 0 012.708 4.779c0 .993-.243 1.954-.73 2.761-.457.838-1.157 1.52-1.978 2.017l-11.382 6.733a.919.919 0 01-.974 0l-11.35-6.67a.994.994 0 01-.488-.87zM0 40.731V19.352c0-3.692 1.948-7.136 5.082-8.967L21.911.487c2.16-1.272 4.9.28 4.93 2.824a1.868 1.868 0 00-1.857-1.707c-.365 0-.7.093-.973.248L6.178 12.372c-1.4.837-2.587 2.047-3.257 3.567-.486 1.117-.79 2.328-.79 3.63 0 1.304.273 2.545.79 3.662.7 1.52 1.857 2.73 3.257 3.568l1.765 1.024 5.173 3.041 13.268 7.788a.982.982 0 01.487.838v17.16c0 2.574-2.739 4.219-4.96 2.916L5.082 49.668C1.917 47.868 0 44.455 0 40.73z" fill="#37EB98"/><path d="M7.942 27.855l-1.765-1.024c-1.4-.838-2.586-2.048-3.256-3.568A8.683 8.683 0 012.13 19.6c0-1.303.274-2.544.791-3.63.67-1.52 1.856-2.73 3.256-3.568l17.864-10.55c.274-.186.608-.248.974-.248.973 0 1.765.745 1.856 1.706V20.563c0 .342-.183.683-.487.838L13.116 29.19c-.64.373-.64 1.304 0 1.707l-5.174-3.04z" fill="url(#fpaint0_linear)"/><defs><linearGradient id="fpaint0_linear" x1="2.135" y1="16.249" x2="26.858" y2="16.249" gradientUnits="userSpaceOnUse"><stop stop-color="#37D198"/><stop offset=".191" stop-color="#37D998"/><stop offset=".613" stop-color="#37E798"/><stop offset="1" stop-color="#37EB98"/></linearGradient></defs></svg><svg fill="none" viewBox="0 0 78 54" id="site-logo" xmlns="http://www.w3.org/2000/svg"><path d="M12.586 24.322c-3.614 0-6.604-1.128-8.972-3.385C1.246 18.68 0 15.67 0 12.16c0-3.636 1.246-6.52 3.614-8.776C5.982 1.128 8.972 0 12.586 0c4.362 0 7.726 1.88 9.845 5.767l-4.237 2.131c-.499-1.003-1.246-1.755-2.243-2.507-.997-.627-2.119-1.003-3.24-1.003-2.119 0-3.863.752-5.234 2.257-1.37 1.504-2.119 3.26-2.119 5.516 0 2.257.748 4.137 2.119 5.516 1.37 1.505 3.115 2.257 5.234 2.257 1.121 0 2.243-.376 3.24-1.003a6.18 6.18 0 002.243-2.507l4.237 2.13c-2.243 3.762-5.483 5.768-9.845 5.768zM68.29 23.82h-4.985V4.64h-8.723V.25h22.306v4.388H68.29V23.82zM46.232 4.639V.25H31.03v4.388h5.11v14.794h-5.11v4.387H46.232v-4.387h-4.984V4.639h4.984zM46.482 53.533H31.029v-23.57h15.328v4.389H36.014V49.145h10.343v4.388h.125zM68.539 53.533h-6.231L53.21 29.838h5.732l6.48 18.179 6.48-18.179h5.733l-9.097 23.695z" fill="#000"/><path d="M42.867 45.133c1.859 0 3.365-1.515 3.365-3.385 0-1.869-1.506-3.384-3.364-3.384-1.859 0-3.365 1.515-3.365 3.385 0 1.869 1.506 3.384 3.364 3.384zM10.468 53.533H1.246v-23.57h9.222c3.738 0 6.729 1.129 8.972 3.26 2.368 2.132 3.49 5.015 3.49 8.526 0 3.51-1.122 6.393-3.49 8.525-2.243 2.256-5.234 3.26-8.972 3.26zm0-4.388c2.243 0 3.987-.752 5.358-2.13 1.37-1.38 1.994-3.135 1.994-5.267 0-2.13-.623-4.011-1.994-5.39-1.246-1.38-3.115-2.132-5.483-2.132H6.106V49.02h4.362v.125z" fill="#000"/></svg><svg fill="none" viewBox="0 0 37 38" id="telegram-black" xmlns="http://www.w3.org/2000/svg"><path d="M18.5 38C28.72 38 37 29.496 37 19S28.72 0 18.5 0 0 8.504 0 19s8.28 19 18.5 19zM8.465 18.588l17.837-7.063c.828-.307 1.551.207 1.283 1.493l.002-.001-3.038 14.695c-.225 1.041-.827 1.295-1.67.804l-4.626-3.5-2.23 2.206c-.247.254-.455.467-.933.467l.328-4.834 8.572-7.953c.373-.337-.083-.527-.575-.191l-10.593 6.85-4.566-1.464c-.992-.323-1.013-1.018.21-1.509z" fill="#000"/></svg></svg>