<?xml version="1.0" encoding="UTF-8"?>
<!DOCTYPE svg PUBLIC "-//W3C//DTD SVG 1.1//EN" "http://www.w3.org/Graphics/SVG/1.1/DTD/svg11.dtd">
<!-- Creator: CorelDRAW 2021.5 -->
<svg xmlns="http://www.w3.org/2000/svg" xml:space="preserve" width="135px" height="59px" version="1.1" style="shape-rendering:geometricPrecision; text-rendering:geometricPrecision; image-rendering:optimizeQuality; fill-rule:evenodd; clip-rule:evenodd"
viewBox="0 0 2.45 1.06"
 xmlns:xlink="http://www.w3.org/1999/xlink"
 xmlns:xodm="http://www.corel.com/coreldraw/odm/2003">
 <defs>
  <style type="text/css">
   <![CDATA[
    .fil2 {fill:#FEFEFE}
    .fil1 {fill:#757575}
    .fil0 {fill:#757575}
    .fil3 {fill:#757575;fill-rule:nonzero}
   ]]>
  </style>
 </defs>
 <g id="Слой_x0020_1">
  <metadata id="CorelCorpID_0Corel-Layer"/>
  <g id="_2214720712512">
   <path class="fil0" d="M1.54 0.47l-0.95 0c-0.05,0 -0.06,-0.03 -0.03,-0.06l0.4 -0.38c0.04,-0.04 0.08,-0.04 0.11,0l0.47 0.44z"/>
   <path class="fil1" d="M1.12 0.34l0 0.13 0.75 0c0.04,0 0.05,-0.03 0.02,-0.06l-0.4 -0.38c-0.03,-0.04 -0.07,-0.04 -0.11,0l-0.32 0.3 0.06 0.01z"/>
   <path class="fil2" d="M1.01 0.38c0.12,-0.12 0.12,-0.11 0.21,-0.2l0.07 0.06 0 -0.02 0.06 0 0 0.07 0.09 0.09 -0.07 0 0 0.1 -0.16 0 0 -0.07 -0.07 0 0 0.07 -0.07 0 0 -0.1 -0.06 0z"/>
  </g>
  <g id="_2214720712704">
   <polygon class="fil3" points="0.36,0.96 0.36,0.77 0.29,0.96 0.18,0.96 0.11,0.77 0.11,0.96 0,0.96 0,0.6 0.15,0.6 0.24,0.83 0.32,0.6 0.47,0.6 0.47,0.96 "/>
   <path class="fil3" d="M0.88 1.06l0 -0.07 0.15 0c0.01,0 0.01,-0.01 0.01,-0.02l0 -0.01 -0.11 0c-0.05,0 -0.08,-0.03 -0.08,-0.07l0 -0.15c0,-0.04 0.03,-0.06 0.08,-0.06l0.21 0 0 0.32c0,0.04 -0.03,0.06 -0.08,0.06l-0.18 0zm0.16 -0.3l-0.08 0c-0.01,0 -0.02,0 -0.02,0.01l0 0.1c0,0.01 0.01,0.01 0.02,0.01l0.08 0 0 -0.12z"/>
   <path class="fil3" d="M1.37 0.85l-0.09 0c0,0 -0.01,0 -0.01,0.01l0 0.02c0,0 0.01,0.01 0.01,0.01l0.08 0c0.01,0 0.01,-0.01 0.01,-0.01l0 -0.03zm-0.12 0.11c-0.05,0 -0.07,-0.03 -0.07,-0.07l0 -0.04c0,-0.04 0.02,-0.06 0.07,-0.06l0.12 0 0 -0.02c0,-0.01 0,-0.01 -0.01,-0.01l-0.15 0 0 -0.08 0.18 0c0.05,0 0.08,0.02 0.08,0.07l0 0.14c0,0.04 -0.03,0.07 -0.08,0.07l-0.14 0z"/>
   <path class="fil3" d="M1.84 0.96l0 -0.18c0,-0.01 0,-0.02 -0.01,-0.02l-0.06 0 0 0.2 -0.09 0 0 -0.2 -0.08 0 0 0.2 -0.09 0 0 -0.21 0 -0.07 0.35 0c0.05,0 0.08,0.02 0.08,0.07l0 0.21 -0.1 0z"/>
   <polygon class="fil3" points="1.98,0.96 1.98,0.68 2.07,0.68 2.07,0.96 "/>
   <polygon class="fil3" points="2.45,0.96 2.34,0.81 2.45,0.68 2.34,0.68 2.28,0.75 2.23,0.68 2.11,0.68 2.22,0.81 2.11,0.96 2.23,0.96 2.28,0.88 2.34,0.96 "/>
   <path class="fil0" d="M2.03 0.58c0.02,0 0.04,0.02 0.04,0.04 0,0.03 -0.02,0.05 -0.04,0.05 -0.03,0 -0.05,-0.02 -0.05,-0.05 0,-0.02 0.02,-0.04 0.05,-0.04z"/>
   <path class="fil3" d="M0.61 0.79l0.09 0c0.01,0 0.01,-0.01 0.01,-0.01l0 -0.02c0,-0.01 0,-0.01 -0.01,-0.01l-0.08 0c-0.01,0 -0.01,0 -0.01,0.01l0 0.03zm0.12 -0.11c0.05,0 0.07,0.02 0.07,0.06l0 0.04c0,0.05 -0.02,0.07 -0.07,0.07l-0.12 0 0 0.01c0,0.01 0.01,0.02 0.02,0.02l0.15 0 0 0.08 -0.19 0c-0.05,0 -0.07,-0.03 -0.07,-0.07l0 -0.14c0,-0.05 0.02,-0.07 0.07,-0.07l0.14 0z"/>
  </g>
 </g>
</svg>
