<?xml version="1.0" encoding="UTF-8"?>
<!DOCTYPE svg PUBLIC "-//W3C//DTD SVG 1.1//EN" "http://www.w3.org/Graphics/SVG/1.1/DTD/svg11.dtd">
<!-- Creator: CorelDRAW 2021.5 -->
<svg xmlns="http://www.w3.org/2000/svg" xml:space="preserve" width="12.2767mm" height="1.95mm" version="1.1" style="shape-rendering:geometricPrecision; text-rendering:geometricPrecision; image-rendering:optimizeQuality; fill-rule:evenodd; clip-rule:evenodd"
viewBox="0 0 45.89 7.29"
 xmlns:xlink="http://www.w3.org/1999/xlink"
 xmlns:xodm="http://www.corel.com/coreldraw/odm/2003">
 <defs>
  <style type="text/css">
   <![CDATA[
    .str0 {stroke:#757575;stroke-width:0.75;stroke-miterlimit:22.9256}
    .fil3 {fill:#FEFEFE}
    .fil1 {fill:#757575}
    .fil2 {fill:#B5B5B5}
    .fil0 {fill:#757575;fill-rule:nonzero}
   ]]>
  </style>
 </defs>
 <g id="Слой_x0020_1">
  <metadata id="CorelCorpID_0Corel-Layer"/>
  <g id="_2212943268304">
   <polygon class="fil0" points="1.87,5.66 1.87,1.8 -0,1.8 -0,0.52 5.44,0.52 5.44,1.8 3.57,1.8 3.57,5.66 "/>
   <path class="fil0" d="M5.68 0.52l1.47 0 0 1.25 0.88 0c0.11,0 0.22,0 0.34,0 0.11,0 0.23,0.01 0.34,0.03 0.12,0.02 0.23,0.05 0.34,0.08 0.11,0.04 0.22,0.1 0.32,0.17 0.18,0.13 0.32,0.29 0.41,0.49 0.09,0.19 0.13,0.39 0.13,0.58l0 2.54 -1.47 0 0 -1.98c0,-0.09 -0.01,-0.2 -0.03,-0.32 -0.02,-0.12 -0.09,-0.24 -0.19,-0.34 -0.09,-0.1 -0.19,-0.16 -0.3,-0.19 -0.11,-0.03 -0.21,-0.04 -0.31,-0.04l-0.46 0 0 2.88 -1.47 0 0 -5.14z"/>
   <path class="fil0" d="M12.83 3.21c0.11,0 0.17,-0.02 0.2,-0.07 0.03,-0.05 0.04,-0.09 0.04,-0.13 0,-0.05 -0.02,-0.11 -0.05,-0.15 -0.03,-0.05 -0.11,-0.09 -0.22,-0.11 -0.06,-0.01 -0.13,-0.02 -0.21,-0.02 -0.08,-0 -0.14,-0.01 -0.18,-0.01 -0.08,0 -0.18,0 -0.28,0.01 -0.1,0.01 -0.18,0.03 -0.23,0.06 -0.07,0.04 -0.12,0.1 -0.14,0.17 -0.02,0.08 -0.03,0.16 -0.01,0.26l1.09 0zm-0.94 2.45c-0.15,0 -0.29,-0 -0.43,-0.01 -0.13,-0 -0.26,-0.02 -0.38,-0.05 -0.12,-0.03 -0.23,-0.08 -0.33,-0.15 -0.1,-0.07 -0.19,-0.17 -0.27,-0.29 -0.08,-0.14 -0.14,-0.32 -0.16,-0.54 -0.03,-0.22 -0.04,-0.5 -0.04,-0.86 0,-0.18 0,-0.34 0,-0.51 0,-0.16 0.01,-0.31 0.03,-0.45 0.02,-0.14 0.05,-0.27 0.09,-0.39 0.04,-0.12 0.11,-0.22 0.2,-0.31 0.09,-0.09 0.2,-0.17 0.34,-0.22 0.14,-0.05 0.29,-0.09 0.45,-0.11 0.16,-0.02 0.34,-0.04 0.52,-0.04 0.18,-0 0.37,-0.01 0.56,-0.01 0.4,0 0.74,0.01 1,0.04 0.26,0.02 0.48,0.1 0.64,0.23 0.09,0.07 0.17,0.16 0.23,0.27 0.06,0.11 0.1,0.22 0.13,0.34 0.03,0.12 0.05,0.24 0.06,0.36 0.01,0.12 0.01,0.23 0.01,0.34 0,0.13 -0.01,0.26 -0.03,0.39 -0.02,0.13 -0.09,0.24 -0.21,0.33 -0.07,0.05 -0.13,0.09 -0.19,0.1 -0.06,0.01 -0.13,0.01 -0.2,0.01l-2.16 0c-0.01,0.05 -0,0.11 0.01,0.17 0.01,0.06 0.03,0.11 0.06,0.15 0.07,0.1 0.16,0.15 0.28,0.17 0.12,0.01 0.25,0.02 0.38,0.02l1.92 0 0 1.04 -2.51 0z"/>
   <path class="fil0" d="M14.9 3.41c0,-0.09 0,-0.19 0.01,-0.3 0.01,-0.11 0.03,-0.22 0.06,-0.34 0.03,-0.11 0.08,-0.23 0.14,-0.33 0.06,-0.11 0.15,-0.21 0.26,-0.29 0.11,-0.09 0.23,-0.16 0.36,-0.21 0.13,-0.05 0.26,-0.09 0.39,-0.11 0.13,-0.02 0.26,-0.04 0.38,-0.04 0.12,-0 0.23,-0.01 0.33,-0.01l0.97 0 0 1.01 -0.51 0c-0.14,0 -0.28,0.02 -0.41,0.05 -0.13,0.03 -0.24,0.11 -0.33,0.23 -0.08,0.11 -0.14,0.24 -0.16,0.37 -0.02,0.13 -0.03,0.26 -0.03,0.37l0 1.86 -1.47 0 0 -2.25z"/>
   <path class="fil0" d="M18.04 2.47c0,-0.06 0.01,-0.13 0.03,-0.21 0.02,-0.08 0.06,-0.15 0.12,-0.23 0.1,-0.13 0.22,-0.2 0.35,-0.23 0.13,-0.02 0.28,-0.04 0.44,-0.04l3.41 0c0.22,0 0.45,0.03 0.67,0.09 0.22,0.06 0.41,0.16 0.56,0.3 0.14,0.13 0.24,0.29 0.31,0.48 0.07,0.2 0.1,0.38 0.1,0.57l0 2.45 -1.47 0 0 -2.16c0,-0.08 -0.01,-0.18 -0.03,-0.28 -0.02,-0.11 -0.06,-0.19 -0.13,-0.27 -0.04,-0.04 -0.1,-0.08 -0.18,-0.12 -0.08,-0.03 -0.18,-0.05 -0.29,-0.05l-0.16 0 0 2.88 -1.47 0 0 -2.88 -0.56 0c-0.07,0 -0.11,0.01 -0.14,0.02 -0.03,0.01 -0.05,0.03 -0.06,0.04 -0.01,0.02 -0.03,0.05 -0.03,0.08 -0,0.04 -0.01,0.07 -0.01,0.11l0 2.62 -1.47 0 0 -3.19z"/>
   <path class="fil0" d="M33.19 5.66c-0.11,0 -0.21,-0.02 -0.29,-0.06 -0.08,-0.04 -0.15,-0.1 -0.2,-0.17 -0.05,-0.07 -0.09,-0.15 -0.12,-0.24 -0.03,-0.09 -0.04,-0.18 -0.04,-0.28 0,-0.19 0.03,-0.34 0.1,-0.46 0.06,-0.11 0.15,-0.21 0.27,-0.3l1.72 -1.28c0.04,-0.03 0.06,-0.05 0.06,-0.07 0,-0.02 -0.03,-0.04 -0.07,-0.04l-1.92 0 0 -1 3.14 0c0.04,0 0.09,0 0.17,0.01 0.08,0.01 0.16,0.04 0.24,0.08 0.08,0.05 0.16,0.12 0.22,0.21 0.07,0.1 0.1,0.23 0.1,0.4 0,0.22 -0.04,0.38 -0.11,0.5 -0.07,0.12 -0.16,0.21 -0.25,0.28l-1.66 1.25c-0.04,0.03 -0.06,0.06 -0.06,0.08 0,0.02 0.01,0.03 0.02,0.03 0.02,0 0.04,0 0.04,0l1.95 0 0 1.04 -3.3 0z"/>
   <path class="fil0" d="M38.2 3.71c0,0.22 0.02,0.37 0.05,0.47 0.03,0.1 0.06,0.17 0.09,0.21 0,0.01 0.02,0.03 0.05,0.06 0.03,0.03 0.07,0.06 0.12,0.09 0.05,0.03 0.12,0.06 0.2,0.08 0.08,0.02 0.17,0.04 0.29,0.04 0.2,0 0.35,-0.03 0.45,-0.1 0.1,-0.06 0.16,-0.12 0.2,-0.17 0.06,-0.08 0.1,-0.18 0.12,-0.3 0.02,-0.12 0.03,-0.24 0.03,-0.39 0,-0.21 -0.01,-0.36 -0.04,-0.46 -0.03,-0.1 -0.06,-0.18 -0.1,-0.23 -0.04,-0.05 -0.11,-0.1 -0.2,-0.16 -0.09,-0.06 -0.24,-0.09 -0.45,-0.09 -0.2,0 -0.35,0.03 -0.45,0.09 -0.09,0.06 -0.16,0.11 -0.2,0.16 -0.03,0.04 -0.05,0.11 -0.09,0.21 -0.03,0.1 -0.05,0.26 -0.05,0.49zm0.79 -1.99c0.15,0 0.31,0 0.48,0.01 0.16,0.01 0.32,0.02 0.48,0.05 0.15,0.02 0.3,0.06 0.44,0.12 0.14,0.05 0.26,0.13 0.37,0.22 0.12,0.11 0.22,0.23 0.29,0.38 0.07,0.14 0.12,0.29 0.16,0.44 0.03,0.15 0.06,0.29 0.06,0.43 0.01,0.14 0.01,0.25 0.01,0.35 0,0.1 -0,0.22 -0.01,0.35 -0.01,0.14 -0.03,0.28 -0.06,0.43 -0.04,0.15 -0.09,0.29 -0.16,0.44 -0.07,0.14 -0.17,0.27 -0.29,0.38 -0.11,0.09 -0.23,0.17 -0.37,0.22 -0.14,0.05 -0.28,0.09 -0.44,0.12 -0.15,0.02 -0.31,0.04 -0.48,0.05 -0.16,0.01 -0.32,0.01 -0.48,0.01 -0.16,0 -0.32,-0 -0.48,-0.01 -0.16,-0.01 -0.32,-0.02 -0.48,-0.05 -0.15,-0.02 -0.3,-0.06 -0.44,-0.12 -0.14,-0.05 -0.26,-0.13 -0.37,-0.22 -0.12,-0.11 -0.22,-0.23 -0.29,-0.38 -0.07,-0.14 -0.12,-0.29 -0.16,-0.44 -0.03,-0.15 -0.06,-0.29 -0.06,-0.43 -0.01,-0.14 -0.01,-0.25 -0.01,-0.35 0,-0.1 0,-0.22 0.01,-0.35 0.01,-0.14 0.03,-0.28 0.06,-0.43 0.04,-0.15 0.09,-0.29 0.16,-0.44 0.07,-0.14 0.17,-0.27 0.29,-0.38 0.11,-0.09 0.23,-0.17 0.37,-0.22 0.14,-0.05 0.28,-0.09 0.44,-0.12 0.15,-0.02 0.31,-0.04 0.48,-0.05 0.16,-0.01 0.32,-0.01 0.48,-0.01z"/>
   <path class="fil0" d="M41.65 2.47c0,-0.07 0.01,-0.15 0.02,-0.24 0.02,-0.09 0.06,-0.17 0.14,-0.24 0.05,-0.05 0.12,-0.1 0.19,-0.12 0.08,-0.03 0.15,-0.05 0.23,-0.07 0.08,-0.01 0.16,-0.02 0.24,-0.03 0.08,-0 0.15,-0 0.21,-0l1.38 0c0.23,0 0.46,0.02 0.69,0.05 0.23,0.04 0.44,0.13 0.65,0.29 0.11,0.09 0.2,0.18 0.26,0.28 0.07,0.1 0.12,0.2 0.15,0.3 0.04,0.1 0.06,0.2 0.07,0.3 0.01,0.1 0.02,0.19 0.02,0.27l0 2.39 -1.47 0 0 -1.97c0,-0.14 -0.01,-0.26 -0.03,-0.37 -0.02,-0.11 -0.07,-0.21 -0.13,-0.3 -0.07,-0.08 -0.14,-0.14 -0.24,-0.18 -0.09,-0.04 -0.22,-0.06 -0.37,-0.06l-0.26 0c-0.03,0 -0.06,0 -0.1,0.01 -0.04,0.01 -0.07,0.02 -0.1,0.05 -0.04,0.03 -0.06,0.07 -0.06,0.11 -0,0.04 -0,0.07 -0,0.11l0 2.6 -1.47 0 0 -3.19z"/>
   <g>
    <path class="fil1 str0" d="M37.81 0.37c0.28,0 0.5,0.22 0.5,0.49 0,0.27 -0.23,0.49 -0.5,0.49 -0.28,0 -0.5,-0.22 -0.5,-0.49 0,-0.27 0.23,-0.49 0.5,-0.49z"/>
    <path class="fil1 str0" d="M40.18 0.37c0.28,0 0.5,0.22 0.5,0.49 0,0.27 -0.23,0.49 -0.5,0.49 -0.28,0 -0.5,-0.22 -0.5,-0.49 0,-0.27 0.23,-0.49 0.5,-0.49z"/>
   </g>
   <g>
    <path class="fil2" d="M28.25 7.29c2.01,0 3.65,-1.6 3.65,-3.57 0,-1.97 -1.63,-3.57 -3.65,-3.57 -2.01,0 -3.65,1.6 -3.65,3.57 0,1.97 1.63,3.57 3.65,3.57z"/>
    <path class="fil3" d="M29.41 0.7c0.38,0.13 0.91,0.53 1.15,0.87 0,0 0.11,0.17 0.02,0.25 -0.35,0.32 -0.77,-0.56 -1.33,-0.75 -0.27,-0.09 -0.19,-0.49 0.16,-0.37z"/>
   </g>
  </g>
 </g>
</svg>
