<?xml version="1.0" encoding="UTF-8"?>
<!DOCTYPE svg PUBLIC "-//W3C//DTD SVG 1.1//EN" "http://www.w3.org/Graphics/SVG/1.1/DTD/svg11.dtd">
<!-- Creator: CorelDRAW 2021.5 -->
<svg xmlns="http://www.w3.org/2000/svg" xml:space="preserve" width="11.8533mm" height="9.9835mm" version="1.1" style="shape-rendering:geometricPrecision; text-rendering:geometricPrecision; image-rendering:optimizeQuality; fill-rule:evenodd; clip-rule:evenodd"
viewBox="0 0 47.71 40.18"
 xmlns:xlink="http://www.w3.org/1999/xlink"
 xmlns:xodm="http://www.corel.com/coreldraw/odm/2003">
 <defs>
  <style type="text/css">
   <![CDATA[
    .fil0 {fill:#757575}
    .fil1 {fill:#757575}
    .fil2 {fill:#757575;fill-rule:nonzero}
   ]]>
  </style>
 </defs>
 <g id="Слой_x0020_1">
  <metadata id="CorelCorpID_0Corel-Layer"/>
  <g id="_2176552191200">
   <g>
    <path class="fil0" d="M9.73 33.5c0.73,0.09 1.69,0.01 2.32,-0.16 1.52,-0.41 3.11,-1.29 4.37,-2.15 0.13,-0.09 0.26,-0.18 0.39,-0.27 0.13,-0.09 0.39,-0.23 0.31,-0.33 -0.08,-0.11 -0.32,0.03 -0.53,0.11 -0.19,0.07 -0.34,0.13 -0.52,0.2 -1.06,0.44 -2.02,0.85 -3.2,1.01 -0.5,0.07 -2.03,0.2 -2.53,0.19 -2.15,-0.05 -3.86,-1.02 -5.3,-2.46 -0.14,-0.14 -0.23,-0.24 -0.34,-0.39 -0.12,-0.15 -0.18,-0.17 -0.34,-0.41 -0.62,-0.94 -0.61,-0.86 -1.03,-1.86 -0.9,-2.11 -0.1,-4.03 0.95,-5.89 0.03,-0.06 0.19,-0.27 0.04,-0.26 -0.05,0 -0.23,0.12 -0.28,0.15 -0.34,0.21 -0.71,0.48 -1.01,0.77 -0.56,0.55 -1.18,1.3 -1.43,2.25 -0.4,1.47 -0.16,3.09 0.5,4.33 0.28,0.53 0.67,1.12 1.05,1.57 1.3,1.54 2.93,2.8 4.93,3.33 0.58,0.16 1.06,0.21 1.66,0.28z"/>
    <path class="fil0" d="M11.91 30.52c0.09,-0.23 -0.12,-0.23 -0.33,-0.29 -0.18,-0.05 -0.37,-0.1 -0.54,-0.15 -0.36,-0.1 -0.71,-0.21 -1.06,-0.33 -1.14,-0.38 -2.17,-0.88 -2.95,-1.76 -0.42,-0.48 -0.73,-0.97 -0.93,-1.6 -0.04,-0.11 -0.09,-0.4 -0.14,-0.49 -0.04,0.05 -0,0.17 0.01,0.23 0.11,0.61 0.3,1.06 0.62,1.58 0.17,0.28 0.09,0.15 0.26,0.37 0.33,0.43 0.53,0.65 0.98,1.02 0.83,0.68 1.76,1.1 2.85,1.33 0.3,0.06 0.98,0.15 1.23,0.09z"/>
    <path class="fil0" d="M44.48 21.76c0.02,-1.87 -0.42,-3.63 -1.13,-5.3 -0,0.06 -0.01,0.12 -0.01,0.18 -0.05,0.49 -0.2,0.93 -0.46,1.32 0.18,0.51 0.34,1.03 0.51,1.54 0.22,0.65 -0.03,1.35 -0.58,1.72 -0.03,1.01 -0.25,2.04 -0.7,3.06 -0.4,0.92 -1.09,1.97 -1.68,2.58 -4.57,4.22 -9.33,3.84 -14.01,1.03 6.54,8.07 18.1,2.22 18.06,-6.12zm-7.36 -14.19c-1.22,-1.09 -2.93,-2.26 -4.23,-2.3 0.69,0.56 1.64,1.35 2.64,2.3l1.59 -0z"/>
    <path class="fil1" d="M23.82 30.45l-0.29 -0.04c-0.23,-1 0.18,-2.29 0.64,-3.45l-0.02 -0.03c-0.27,0.26 -0.63,0.43 -1.02,0.43 -0.28,0.25 -0.63,0.68 -1.09,1.48 -0.55,-0.54 -1.77,-0.41 -2.5,-0.79 -1.14,-0.59 -1.71,-0.65 -2.45,-0.74 0.98,2.12 3.91,0.71 4.04,3.5 -1.15,-0.01 -1.47,0.04 -2.63,-0.34 -0.8,-0.26 -1.49,-0.59 -2.17,-0.99 -0.73,-0.43 -1.99,-1.3 -2.87,-2.08 -0.03,0 -0.06,0 -0.08,0l0 0 -1.17 -0c-0.02,-0 -0.04,-0 -0.06,-0 0.66,0.74 1.45,1.35 2.54,2.14 1.05,0.75 2.51,1.6 3.9,1.95 2.58,2.01 2.89,0.09 5.09,1.92 0.91,0 0.72,1.25 0.75,1.76 0.03,0.58 0.03,1.19 -0.01,1.75 -0.05,0.63 -0.09,1.08 0.02,1.73 0.18,1.04 0.96,2.01 1.95,1.23 0.64,-0.51 0.7,-1.3 0.8,-2.42 -0.64,-2.29 -0.18,-3.84 -1.03,-5.42 -0.19,-0.35 -0.4,-0.65 -0.63,-0.82 0.69,-2.93 3.75,-2.23 5.78,-3.87l-0.02 0c-4.1,0.69 -5.92,0.06 -7.14,2.72 -0.06,0.1 -0.24,0.32 -0.32,0.36z"/>
    <path class="fil1" d="M16.2 4.51c-0.1,-0.05 -0.31,-0.25 -0.42,-0.33 -1.19,-0.87 -2.7,-1.4 -4.19,-1.35 -3.07,0.12 -5.57,1.98 -7.64,3.93 -0.48,0.45 -0.97,1 -1.45,1.61 -1.57,1.99 -2.57,4.31 -2.48,7 0.05,1.64 0.46,3.21 0.98,4.53 0.21,0.53 0.44,1.05 0.72,1.53 -0.55,-3.29 -2.35,-9.78 4.97,-15.31 1.07,-0.78 2.47,-1.54 4.06,-1.9 1.76,-0.4 3.61,-0.15 5.03,0.91 0.32,0.24 0.58,0.48 0.85,0.74 0.13,0.13 0.25,0.27 0.37,0.41 0.4,0.42 1.12,1.47 1.45,2.01 0.04,0.06 0.07,0.16 0.14,0.2l0.06 -0.06c0,-0.11 -0.09,-0.29 -0.16,-0.46 -0.38,-1.02 -0.97,-2.06 -1.68,-2.87 -0.11,-0.13 -0.29,-0.28 -0.39,-0.41 0.07,-0.39 0.61,-1.12 0.88,-1.38 0.85,-0.83 1.76,-1.29 2.95,-1.73 1.43,-0.52 2.58,-0.62 4.16,-0.53 1.88,0.11 4.11,0.85 5.49,2.07 0.33,0.29 0.61,0.58 0.87,0.9 0.1,0.13 0.27,0.32 0.37,0.49 0.34,0.54 0.64,1.01 0.9,1.63 0.04,0.08 0.22,0.53 0.26,0.57 0.1,0.1 0.25,0.06 0.3,-0.04 0.05,-0.09 0.03,-0.29 0.03,-0.39 -0.01,-0.23 -0.04,-0.49 -0.07,-0.7l-0.98 -2.27c-0.04,-0.03 -0.21,-0.26 -0.27,-0.33 -2.22,-2.59 -6.86,-3.49 -9.97,-2.74 -1.21,0.29 -2.22,0.81 -3.11,1.37 -0.67,0.43 -1.4,1.05 -1.76,1.82 -0.2,0.42 -0.17,0.61 -0.24,1.06z"/>
    <path class="fil1" d="M7.02 8.98c-0.67,0.3 -1.39,1.34 -1.8,2.17 -1.25,2.51 -1.73,6.1 -0.45,8.7 0.09,0.17 0.24,0.45 0.35,0.6 0.09,0.12 0.22,0.06 0.17,-0.1 -0.13,-0.36 -0.23,-0.56 -0.37,-1.01 -0.15,-0.47 -0.28,-0.94 -0.36,-1.43 -0.41,-2.48 0.04,-4.32 0.95,-6.66 0.26,-0.66 0.67,-1.42 1.18,-1.88l0.41 -0.32c0.06,-0.07 0.01,-0.11 -0.07,-0.08z"/>
    <path class="fil1" d="M21.47 4.27c0.25,-0.21 1.29,-0.58 1.65,-0.66 0.86,-0.2 1.3,-0.21 2.1,-0.16 0.71,0.05 1.55,0.31 2.15,0.73 0.13,0.09 1.03,0.83 0.68,0.96 -0.1,0.04 -0.55,-0.23 -0.64,-0.28 -0.96,-0.52 -1.91,-1.06 -2.99,-1.13 -0.15,-0.01 -0.27,-0.03 -0.42,-0.02 -0.34,0.02 -0.44,-0.01 -0.84,0.06 -0.76,0.13 -0.96,0.21 -1.67,0.49z"/>
    <path class="fil0" d="M34.33 28.36c-0.1,-0.25 0.13,-0.25 0.36,-0.32 0.2,-0.06 0.4,-0.12 0.6,-0.17 0.39,-0.12 0.78,-0.23 1.17,-0.37 1.26,-0.43 2.38,-0.99 3.23,-1.97 0.46,-0.53 0.79,-1.07 1.01,-1.77 0.04,-0.13 0.1,-0.45 0.15,-0.54 0.04,0.06 0,0.19 -0.01,0.25 -0.12,0.67 -0.33,1.17 -0.67,1.75 -0.18,0.31 -0.1,0.16 -0.29,0.41 -0.36,0.48 -0.58,0.72 -1.07,1.13 -0.91,0.76 -1.93,1.23 -3.12,1.49 -0.33,0.07 -1.08,0.18 -1.35,0.11z"/>
   </g>
   <path class="fil2" d="M12 21.29l-0.12 0.96c-0.59,-0.29 -1.07,-0.44 -1.44,-0.44 -0.21,0 -0.39,0.04 -0.52,0.11 -0.13,0.07 -0.21,0.17 -0.22,0.29 -0.01,0.09 0.02,0.18 0.1,0.27 0.08,0.09 0.29,0.19 0.62,0.33 0.33,0.13 0.6,0.26 0.79,0.37 0.2,0.11 0.36,0.28 0.48,0.48 0.13,0.21 0.17,0.47 0.13,0.79 -0.06,0.45 -0.27,0.82 -0.63,1.09 -0.37,0.27 -0.82,0.4 -1.36,0.4 -0.59,0 -1.13,-0.16 -1.65,-0.47l0.13 -1.05c0.29,0.22 0.55,0.38 0.78,0.48 0.23,0.1 0.48,0.15 0.76,0.15 0.46,0 0.71,-0.15 0.75,-0.45 0.01,-0.1 -0.02,-0.2 -0.1,-0.29 -0.08,-0.09 -0.29,-0.2 -0.63,-0.34 -0.34,-0.13 -0.6,-0.25 -0.79,-0.37 -0.19,-0.11 -0.35,-0.27 -0.48,-0.48 -0.12,-0.21 -0.17,-0.47 -0.13,-0.8 0.05,-0.42 0.26,-0.76 0.61,-1.02 0.36,-0.26 0.81,-0.39 1.36,-0.39 0.5,0 1.02,0.13 1.55,0.38zm2.23 -0.31l-0.6 4.9 -1.17 0 0.6 -4.9 1.17 0zm5.86 0l-0.6 4.9 -0.98 0 -2.23 -3.14 -0.38 3.14 -1.17 0 0.6 -4.9 1.08 0 2.15 2.99 0.37 -2.99 1.17 0zm5.31 0l-0.11 0.9 -1.71 0 -0.49 4 -1.17 0 0.49 -4 -1.71 0 0.11 -0.9 4.59 0zm3.71 4l-0.11 0.9 -3.47 0 0.6 -4.9 3.43 0 -0.11 0.9 -2.25 0 -0.13 1.03 2.15 0 -0.11 0.9 -2.15 0 -0.14 1.18 2.3 0zm5.47 -4l-3.06 4 2.57 0 -0.11 0.9 -4.57 0 3.08 -4 -2.41 0 0.11 -0.9 4.39 0zm-24.83 -5.89l2.06 0c0.47,0 0.82,0.14 1.07,0.43 0.25,0.29 0.35,0.63 0.31,1.02 -0.04,0.41 -0.21,0.76 -0.51,1.04 -0.3,0.29 -0.69,0.43 -1.16,0.43l-0.91 0 -0.2 1.97 -1.15 0 0.49 -4.9zm1.06 0.9l-0.11 1.13 0.53 0c0.48,0 0.74,-0.19 0.77,-0.57 0.02,-0.21 -0.03,-0.36 -0.15,-0.44 -0.12,-0.08 -0.33,-0.12 -0.64,-0.12l-0.41 0zm5.78 -0.97c0.79,0 1.4,0.25 1.83,0.76 0.44,0.51 0.62,1.09 0.55,1.76 -0.07,0.68 -0.37,1.27 -0.92,1.77 -0.54,0.5 -1.2,0.75 -1.97,0.75 -0.78,0 -1.39,-0.25 -1.83,-0.75 -0.44,-0.5 -0.63,-1.09 -0.56,-1.77 0.07,-0.67 0.37,-1.26 0.91,-1.77 0.54,-0.5 1.2,-0.76 1.99,-0.76zm-0.4 4.02c0.44,0 0.8,-0.14 1.1,-0.41 0.3,-0.28 0.46,-0.64 0.51,-1.09 0.05,-0.45 -0.05,-0.81 -0.29,-1.09 -0.24,-0.27 -0.58,-0.41 -1.01,-0.41 -0.44,0 -0.8,0.14 -1.1,0.41 -0.29,0.28 -0.47,0.64 -0.51,1.09 -0.05,0.45 0.05,0.81 0.29,1.09 0.24,0.28 0.58,0.41 1.02,0.41zm6.99 0.05l-0.09 0.9 -3.52 0 0.49 -4.9 1.15 0 -0.4 4 2.37 0zm1.01 0.9l0.23 -2.27 -1.56 -2.63 1.39 0 0.85 1.54 1.16 -1.54 1.39 0 -2.08 2.63 -0.23 2.27 -1.15 0zm6.28 -3.08l1.66 -1.81 1.01 0 -0.49 4.9 -1.15 0 0.31 -3.06 -1.41 1.54 -0.16 0 -1.1 -1.54 -0.31 3.06 -1.15 0 0.49 -4.9 1 0 1.3 1.81zm6.69 2.19l-0.09 0.9 -3.4 0 0.49 -4.9 3.35 0 -0.09 0.9 -2.2 0 -0.1 1.03 2.1 0 -0.09 0.9 -2.1 0 -0.12 1.18 2.25 0zm1.29 -4l2.06 0c0.45,0 0.8,0.14 1.05,0.41 0.25,0.28 0.36,0.61 0.32,1 -0.05,0.54 -0.36,0.94 -0.91,1.2 0.22,0.11 0.41,0.41 0.57,0.9 0.16,0.49 0.31,0.95 0.46,1.39l-1.26 0c-0.06,-0.16 -0.16,-0.47 -0.3,-0.92 -0.14,-0.45 -0.27,-0.75 -0.39,-0.87 -0.12,-0.13 -0.25,-0.19 -0.41,-0.19l-0.33 0 -0.2 1.99 -1.15 0 0.49 -4.9zm1.06 0.9l-0.11 1.11 0.6 0c0.19,0 0.35,-0.05 0.47,-0.14 0.12,-0.1 0.19,-0.24 0.21,-0.42 0.04,-0.37 -0.16,-0.55 -0.6,-0.55l-0.58 0zm-24.98 -6.92l-0.1 0.9 -1.63 0 -0.46 4 -1.12 0 0.46 -4 -1.63 0 0.1 -0.9 4.39 0zm2.53 0l1.44 4.9 -1.21 0 -0.26 -0.97 -2.01 0 -0.45 0.97 -1.19 0 2.37 -4.9 1.31 0zm-0.26 3.07l-0.51 -1.9 -0.88 1.9 1.39 0zm5.82 -2.77l-0.11 0.96c-0.57,-0.29 -1.03,-0.44 -1.38,-0.44 -0.2,0 -0.37,0.04 -0.5,0.11 -0.13,0.07 -0.2,0.17 -0.21,0.29 -0.01,0.09 0.02,0.18 0.1,0.27 0.08,0.08 0.27,0.19 0.59,0.33 0.32,0.13 0.57,0.26 0.76,0.37 0.19,0.12 0.34,0.28 0.46,0.48 0.12,0.21 0.16,0.47 0.13,0.79 -0.05,0.45 -0.25,0.82 -0.6,1.09 -0.35,0.27 -0.78,0.4 -1.3,0.4 -0.56,0 -1.09,-0.16 -1.58,-0.47l0.12 -1.05c0.28,0.22 0.53,0.38 0.75,0.47 0.22,0.1 0.46,0.15 0.73,0.15 0.44,0 0.68,-0.15 0.72,-0.45 0.01,-0.1 -0.02,-0.2 -0.1,-0.29 -0.08,-0.09 -0.28,-0.2 -0.6,-0.34 -0.32,-0.13 -0.58,-0.26 -0.76,-0.37 -0.19,-0.11 -0.34,-0.27 -0.46,-0.48 -0.12,-0.21 -0.16,-0.48 -0.12,-0.8 0.05,-0.42 0.24,-0.76 0.59,-1.02 0.34,-0.26 0.78,-0.39 1.3,-0.39 0.48,0 0.98,0.13 1.49,0.38zm5.47 -0.31l-0.56 4.9 -1.13 0 0.23 -1.99 -2.24 0 -0.23 1.99 -1.12 0 0.56 -4.9 1.13 0 -0.22 1.96 2.24 0 0.22 -1.96 1.13 0zm4.81 0l-1.73 2.3 1.7 2.59 -1.41 0 -1.52 -2.3 -0.26 2.3 -1.13 0 0.56 -4.9 1.13 0 -0.25 2.2 1.68 -2.2 1.24 0zm3.85 4l-0.1 0.9 -3.33 0 0.56 -4.9 3.28 0 -0.1 0.9 -2.16 0 -0.12 1.03 2.06 0 -0.1 0.9 -2.06 0 -0.13 1.18 2.2 0zm5.9 -4l-0.56 4.9 -0.94 0 -2.14 -3.14 -0.36 3.14 -1.13 0 0.56 -4.9 1.03 0 2.07 2.99 0.34 -2.99 1.13 0zm5.09 0l-0.1 0.9 -1.63 0 -0.46 4 -1.13 0 0.46 -4 -1.63 0 0.1 -0.9 4.4 0z"/>
  </g>
 </g>
</svg>
