<?xml version="1.0" encoding="UTF-8"?>
<!DOCTYPE svg PUBLIC "-//W3C//DTD SVG 1.1//EN" "http://www.w3.org/Graphics/SVG/1.1/DTD/svg11.dtd">
<!-- Creator: CorelDRAW 2021.5 -->
<svg xmlns="http://www.w3.org/2000/svg" xml:space="preserve" width="11.8533mm" height="9.3048mm" version="1.1" style="shape-rendering:geometricPrecision; text-rendering:geometricPrecision; image-rendering:optimizeQuality; fill-rule:evenodd; clip-rule:evenodd"
viewBox="0 0 53.84 42.26"
 xmlns:xlink="http://www.w3.org/1999/xlink"
 xmlns:xodm="http://www.corel.com/coreldraw/odm/2003">
 <defs>
  <style type="text/css">
   <![CDATA[
    .fil0 {fill:#757575}
    .fil1 {fill:#757575;fill-rule:nonzero}
   ]]>
  </style>
 </defs>
 <g id="Слой_x0020_1">
  <metadata id="CorelCorpID_0Corel-Layer"/>
  <g id="_2181348236880">
   <path class="fil0" d="M8.06 19.07l0 9.92c0,0.19 0.07,0.24 0.27,0.24l5.55 0 0 -7.36 10.96 -7.65c0.34,-0.24 0.68,-0.48 1.03,-0.73l3.97 -2.76 2.94 2.03c0.34,0.24 0.68,0.48 1.03,0.73 2.4,1.84 5.34,3.73 7.81,5.62 0.34,0.24 0.62,0.39 0.96,0.68l3.01 2.08 0 6.63c0,0.39 -0.14,0.73 0.27,0.73l5.34 0c0.21,0 0.27,-0.05 0.27,-0.24l0 -9.92c0,-0.24 -0.41,-0.39 -0.62,-0.58l-5.2 -3.68 0 -1.99c0,-0.53 -0.34,-0.63 -0.96,-1.11l-2.26 -1.84c-0.55,-0.44 -1.03,-0.87 -1.58,-1.26l0 2.76c-0.27,-0.15 -0.41,-0.29 -0.62,-0.48l-10.41 -7.36 -9.52 6.73c-0.48,0.34 -0.89,0.63 -1.37,0.97l-10.27 7.26c-0.27,0.15 -0.62,0.29 -0.62,0.58z"/>
   <polygon class="fil0" points="30.11,19.46 33.05,19.46 33.05,16.56 30.11,16.56 "/>
   <path class="fil0" d="M30.11 20.33l0 2.66 2.94 0 0 -2.66c0,-0.19 -0.07,-0.24 -0.27,-0.24l-2.4 0c-0.21,0 -0.27,0.05 -0.27,0.24z"/>
   <polygon class="fil0" points="26.61,19.46 29.49,19.46 29.49,16.56 26.61,16.56 "/>
   <path class="fil0" d="M26.61 20.33l0 2.66 2.88 0 0 -2.66c0,-0.19 -0.07,-0.24 -0.27,-0.24l-2.33 0c-0.27,0 -0.27,0.05 -0.27,0.24z"/>
   <path class="fil0" d="M18.19 4.74c-0.21,1.55 -0.48,1.26 2.4,1.26 0.41,0 0.41,0 0.48,-0.34 0.07,-0.29 0,-0.73 -0.07,-0.92 -0.75,-0.1 -2.26,-0.19 -2.81,0z"/>
   <path class="fil0" d="M23.12 3.73c0,0.73 0.07,0.58 1.58,0.58 0.27,0 0.82,0 1.1,0 0.48,-0.1 0.34,-0.24 0.34,-0.77 0,-0.77 -0.27,-0.53 -2.47,-0.53 -0.62,0 -0.55,0.1 -0.55,0.73z"/>
   <path class="fil0" d="M21.41 5.18c0,1.02 0.07,0.82 2.19,0.82 0.75,0 0.75,0.05 0.82,-0.34 0.07,-0.29 0,-0.73 -0.07,-0.92 -0.34,-0.1 -1.85,-0.05 -2.4,-0.05 -0.48,0 -0.55,0 -0.55,0.48z"/>
   <path class="fil0" d="M4.15 19.61c-0.89,0 -1.23,-0.24 -1.16,0.68 0,0.82 0.34,0.63 1.16,0.63 0.48,0 1.37,0.1 1.71,-0.1 0.21,-0.19 0.14,-0.87 0.07,-1.11 -0.41,-0.19 -1.23,-0.1 -1.78,-0.1z"/>
   <path class="fil0" d="M19.83 6.39c-0.14,0.34 -0.14,0.39 -0.14,0.77 0.07,0.58 0.07,0.48 1.23,0.48 1.51,0 1.71,0.14 1.78,-0.34 0,-0.05 0,-0.48 0,-0.48l-0.07 -0.44c-0.55,-0.05 -2.4,-0.14 -2.81,0z"/>
   <path class="fil0" d="M4.43 27.59c0.82,0 1.85,0.34 1.57,-1.02 -0.14,-0.39 -0.62,-0.29 -1.23,-0.29 -1.51,0 -1.78,-0.19 -1.78,0.63 0,0.77 0,0.68 1.44,0.68z"/>
   <path class="fil0" d="M6.48 12.97l-0.07 0.19c0,0.44 -0.14,0.77 0.14,0.97 0.27,0.19 2.33,0.1 2.74,0.05 0.41,-1.55 -0.21,-1.31 -2.67,-1.26 -0.14,0.05 -0.07,-0.05 -0.14,0.05z"/>
   <path class="fil0" d="M11.41 11.81c0,0.82 -0.07,0.73 1.03,0.73 1.51,0 2.12,0.29 1.99,-0.92 -0.07,-0.48 -0.34,-0.39 -1.37,-0.39 -0.34,0 -0.75,0.05 -1.1,0.05 -0.55,0 -0.55,0 -0.55,0.53z"/>
   <path class="fil0" d="M5.04 22.95c-1.85,0 -2.12,-0.29 -2.05,0.68 0,0.82 0.34,0.63 1.16,0.63 0.34,0 1.57,0.15 1.71,-0.15l0.07 -0.15c0,0 0,-0.05 0,-0.05l0 -0.87 -0.89 -0.1z"/>
   <path class="fil0" d="M8.13 15.83l2.4 0c0.48,0 0.48,0.1 0.55,-0.39 0.14,-1.26 -0.48,-0.87 -2.47,-0.87 -0.75,0 -0.62,0.68 -0.48,1.26z"/>
   <path class="fil0" d="M4.7 15.1c0,0.97 0.21,0.77 1.16,0.73 0.55,0 1.16,0.05 1.64,0 0.27,-0.29 0.48,-1.26 -0.27,-1.26 -1.99,0 -2.53,-0.24 -2.53,0.53z"/>
   <path class="fil0" d="M9.77 13.46c0,0.87 -0.07,0.77 0.82,0.77l2.12 -0.05 0 -1.21c-0.68,-0.1 -1.44,-0.05 -2.12,-0.05 -0.55,0 -0.82,-0.1 -0.82,0.53z"/>
   <path class="fil0" d="M8.81 17.52l0.07 -0.05c0.14,-0.15 0.27,-0.19 0.41,-0.29l0.07 -0.14c0.07,-0.97 -0.07,-0.82 -1.03,-0.77 -0.55,0 -1.44,-0.15 -1.85,0.05 -0.14,0.29 -0.14,0.87 0,1.16 0.41,0.19 1.78,0.1 2.33,0.05z"/>
   <path class="fil0" d="M4.22 16.27c-0.89,0 -1.16,-0.24 -1.16,0.63 0,0.87 0.34,0.68 1.16,0.63 0.48,0 1.37,0.15 1.71,-0.1 0.14,-0.24 0.14,-0.82 0,-1.07 -0.34,-0.24 -1.23,-0.1 -1.71,-0.1z"/>
   <path class="fil0" d="M13.12 10.07c0,0.53 -0.14,0.77 0.27,0.82l2.19 0.05c0.62,-0.05 0.48,-0.15 0.48,-0.77 0,-0.44 0.07,-0.48 -0.41,-0.53l-1.99 0c-0.48,0 -0.55,-0.05 -0.55,0.44z"/>
   <path class="fil0" d="M16.55 7.5c0.27,0.19 1.71,0.15 2.33,0.15 0.55,0 0.48,-0.15 0.48,-0.82 0.07,-0.63 -0.21,-0.48 -1.3,-0.48 -0.21,0 -1.37,0 -1.44,0.05 -0.34,0.1 -0.27,0.92 -0.07,1.11z"/>
   <path class="fil0" d="M14.84 7.99c-0.14,0.34 -0.14,0.87 -0.07,1.16 0.55,0.1 2.05,0.15 2.53,0.1l0.34 -0.1c0.21,-1.36 0.27,-1.26 -2.33,-1.16l-0.48 0z"/>
   <path class="fil0" d="M20.18 3.1l-0.07 0.05 -0.14 0.1 -0.14 0.1 -0.07 0.1c-0.07,1.11 -0.14,0.82 2.19,0.87 0.75,0 0.62,-0.05 0.68,-0.15 0.14,-0.19 0.14,-0.82 0,-1.02 -0.21,-0.24 -0.34,-0.15 -1.03,-0.15 -0.41,0 -0.82,0 -1.23,0l-0.21 0.1z"/>
   <path class="fil0" d="M8.74 11.33c-0.21,0.1 -0.21,0.1 -0.41,0.24 -0.14,0.15 0,0.05 -0.14,0.15 -0.14,0.15 -0.07,0.05 -0.14,0.19 0,0.87 0.34,0.58 1.16,0.63 1.58,0.05 1.85,0.24 1.85,-0.63l-0.14 -0.53c-0.27,-0.19 -1.85,-0.19 -2.19,-0.05z"/>
   <path class="fil0" d="M20.31 9.25c0.27,-0.1 0.21,-0.05 0.41,-0.24 0,-0.15 0,-0.1 0.14,-0.1l0.14 -0.05 0 -0.14c0.07,-1.02 -0.14,-0.73 -2.05,-0.73 -0.07,0 -0.34,-0.05 -0.41,-0.05 -0.82,0.1 -0.41,1.11 -0.34,1.16 0.27,0.34 1.64,0.15 2.12,0.15z"/>
   <path class="fil0" d="M7.17 19.17l0 -0.44c0.14,-0.15 0.34,-0.24 0.48,-0.39 0.07,-0.73 -0.75,-0.44 -2.12,-0.44 -0.14,0 -0.34,-0.05 -0.48,0 -0.68,0.1 -0.27,1.16 -0.27,1.16 0.27,0.24 2.05,0.15 2.4,0.1z"/>
   <path class="fil0" d="M22.51 1.45l-0.07 0.1c-0.21,0.1 -0.27,0.1 -0.41,0.24 -0.21,0.14 -0.27,0.19 -0.41,0.29l-0.14 0.1c0,0.1 -0.07,0.1 0,0.19 0.07,0.29 0,0.14 0.07,0.24 0.48,0.1 2.33,0.14 2.81,-0.05 0,-0.1 0,0.05 0.07,-0.19 0.07,-0.29 0.07,-0.82 -0.07,-0.97 -0.41,-0.15 -1.44,-0.15 -1.85,0.05z"/>
   <path class="fil0" d="M7.1 24.59c-2.47,0 -2.47,-0.24 -2.47,0.68 0,0.87 0.21,0.63 2.47,0.63l0 -1.31z"/>
   <path class="fil0" d="M7.1 21.25c-2.4,0 -2.47,-0.24 -2.47,0.63 0,0.92 0.14,0.68 2.47,0.68l0 -1.31z"/>
   <path class="fil0" d="M27.85 2.28l-0.07 -0.1c-0.21,-0.1 -0.34,-0.24 -0.55,-0.39 -0.21,-0.15 -0.34,-0.19 -0.55,-0.34l-0.07 -0.1 -1.3 0c-0.68,0.1 -0.55,1.16 -0.07,1.26l2.05 0.05c0.48,0 0.55,0.05 0.55,-0.39z"/>
   <path class="fil0" d="M7.17 29.19l0 -1.16c-0.34,-0.1 -2.12,-0.19 -2.33,0 -0.27,0.24 -0.27,0.92 0,1.11 0.27,0.19 1.85,0.1 2.33,0.05z"/>
   <path class="fil0" d="M18.05 10.89l0.14 -0.05 0.14 -0.1 0.14 -0.1 0 -0.05c0.34,-0.19 0.48,-0.34 0.75,-0.53l0.14 -0.05c0,-0.53 -0.21,-0.39 -1.3,-0.39 -1.37,0 -1.64,-0.19 -1.64,0.63 0,0.77 0.21,0.68 1.64,0.63z"/>
   <path class="fil0" d="M11.07 9.68c-0.27,0.15 -0.34,0.24 -0.62,0.39 -0.21,0.15 -0.27,0.24 -0.48,0.39l-0.14 0.1 -0.07 0.05 0.07 0.29 2.81 0.05 0.07 -0.29c0,-0.1 0,-0.29 0,-0.39 0,0 0,-0.24 0,-0.24l-0.07 -0.24c0,-0.05 0,-0.05 -0.07,-0.1l-1.51 0z"/>
   <path class="fil0" d="M2.03 22.51c0.48,0.1 1.92,0.24 2.19,-0.1 0.14,-0.19 0.14,-0.82 -0.07,-1.02 -0.21,-0.24 -1.71,-0.19 -2.12,-0.1l0 1.21z"/>
   <path class="fil0" d="M2.1 19.17c2.4,0.05 2.19,0.15 2.26,-0.34 0.14,-1.07 -0.21,-0.92 -0.48,-0.92l-1.78 0 0 1.26z"/>
   <path class="fil0" d="M2.1 25.9c0.55,0 1.3,0.05 1.78,0 0.41,-0.05 0.34,-0.05 0.41,-0.44 0.07,-0.44 -0.07,-0.63 -0.07,-0.82l-2.12 -0.05 0 1.31z"/>
   <path class="fil0" d="M2.03 28.03l0 1.16 2.26 0 -0.07 -1.21c-0.48,-0.1 -1.78,-0.1 -2.19,0.05z"/>
   <path class="fil0" d="M15.79 12.54l0.07 -0.05c0.34,-0.14 0.48,-0.29 0.68,-0.48 0.14,-0.14 0.27,-0.19 0.41,-0.29 0.14,-0.1 0.21,-0.15 0.34,-0.24l0.14 -0.1c-0.34,-0.24 -2.53,-0.1 -2.6,-0.05l-0.14 0.48c0,0.87 0.34,0.73 1.1,0.73z"/>
   <path class="fil0" d="M11.82 9.1l-0.07 0.1c0.27,0.1 2.33,0.1 2.53,-0.05 0.14,-0.15 0.21,-0.68 0.07,-0.97 -0.07,-0.34 -0.55,-0.24 -0.96,-0.19 -0.55,0.34 -1.03,0.77 -1.57,1.11z"/>
   <path class="fil0" d="M27.3 4.26l0.07 -0.05c0.27,-0.19 0.48,-0.29 0.75,-0.48 0.21,-0.19 0.48,-0.39 0.75,-0.53l0 -0.19c-1.1,-0.05 -2.6,-0.53 -2.33,1.02 0.14,0.39 0.34,0.29 0.75,0.24z"/>
   <path class="fil0" d="M13.33 14.23c0.21,-0.05 -0.07,0.05 0.21,-0.1l0.68 -0.48c0.27,-0.19 0.68,-0.44 0.82,-0.68 -0.27,-0.1 -1.64,-0.15 -1.85,0.1 -0.21,0.15 -0.14,0.68 -0.07,1.02l0.21 0.14z"/>
   <path class="fil0" d="M15.59 6.44c-0.48,0.34 -0.89,0.58 -1.37,0.92 0,0.15 0.07,0.1 -0.07,0.1l-0.14 0.1c0.34,0.14 1.58,0.14 1.92,0l0.14 -0.82c-0.07,-0.44 -0.07,-0.44 -0.48,-0.29z"/>
   <path class="fil0" d="M23.6 0.63l-0.21 0.29 2.4 0.05c0,-0.05 0,-0.1 0,-0.1l-0.48 -0.44c-0.21,-0.1 -0.48,-0.39 -0.75,-0.44 -0.27,0.1 -0.21,0.15 -0.48,0.29 -0.21,0.15 -0.27,0.19 -0.48,0.34z"/>
   <path class="fil0" d="M4.02 14.72c-0.27,0.19 -0.48,0.34 -0.75,0.53l-0.14 0.1 -0.14 0.05 -0.27 0.19 -0.07 0.1 0.34 0.15c0.14,0.05 1.03,0.05 1.3,-0.05 0.14,-0.29 0.07,-0.77 0,-1.16l-0.27 0.1z"/>
   <path class="fil0" d="M25.04 5.91c0.41,-0.24 0.75,-0.53 1.16,-0.82 0,-0.15 0,-0.1 0.14,-0.1l0.07 -0.05 0.14 -0.1c-0.27,-0.24 -0.96,-0.24 -1.3,-0.15 -0.27,0.05 -0.34,0.05 -0.34,0.68 -0.07,0.39 -0.07,0.44 0.14,0.53z"/>
   <path class="fil0" d="M7.17 24.21l0 -1.21c-0.27,-0.05 -0.48,-0.05 -0.68,0.05 -0.21,0.77 -0.21,1.31 0.68,1.16z"/>
   <path class="fil0" d="M7.17 27.55l0 -1.21c-0.68,-0.1 -0.75,0 -0.75,0.68 0,0.58 0.14,0.63 0.75,0.53z"/>
   <path class="fil0" d="M6.48 19.61c-0.07,0.24 -0.14,0.63 -0.07,0.92 0.07,0.44 0.27,0.39 0.68,0.39l0 -1.31 -0.62 0z"/>
   <path class="fil0" d="M11.62 15.54l0.07 -0.1 0.07 -0.05c0.27,-0.15 0.27,-0.19 0.55,-0.34 0.21,-0.14 0.27,-0.19 0.48,-0.34l0.07 -0.1c-0.21,-0.05 -1.1,-0.1 -1.23,-0.05 -0.34,0.14 -0.21,0.77 -0.21,0.77 0.07,0.29 -0.07,0.15 0.21,0.19z"/>
   <path class="fil0" d="M17.03 5.37l-0.14 0.05 -0.07 0.1 -0.14 0.1 -0.14 0.1 -0.14 0.1c0.07,0.1 -0.27,0.19 0.75,0.15 0.07,0 0.14,0 0.27,0 0.27,-0.05 0.14,-0.05 0.21,-0.1 0,-0.15 0.07,-0.19 0.07,-0.39l-0.14 -0.48c-0.27,0.15 -0.34,0.24 -0.55,0.39z"/>
   <path class="fil0" d="M2.03 17.48c0.55,0.15 0.62,0 0.62,-0.58 0,-0.68 -0.14,-0.68 -0.62,-0.58l0 1.16z"/>
   <path class="fil0" d="M2.1 20.91c0.48,-0.05 0.48,0 0.55,-0.44 0,-0.29 0,-0.68 -0.07,-0.87l-0.48 0 0 1.31z"/>
   <path class="fil0" d="M2.58 26.29l-0.34 0c-0.21,0.29 -0.21,0.82 -0.14,1.06 0.07,0.24 0.07,0.1 0.14,0.24l0.41 0 -0.07 -1.31z"/>
   <path class="fil0" d="M2.58 22.95l-0.48 0c0,0.63 -0.07,0.97 0.14,1.31l0.41 0 -0.07 -1.31z"/>
   <path class="fil0" d="M23.19 7.21c0.27,-0.1 0.34,-0.19 0.62,-0.39 0.21,-0.15 0.27,-0.24 0.48,-0.39 -0.14,-0.24 -0.96,-0.1 -0.96,-0.1 -0.34,0.15 -0.21,0.68 -0.14,0.87z"/>
   <path class="fil0" d="M5.39 13.7l-0.07 0.1 -0.14 0.05 -0.14 0.15 -0.14 0.05c0.07,0.1 0,0.19 0.48,0.19 0.07,0 0.27,0 0.27,0 0.55,-0.1 0.48,-0.63 0.27,-0.87 -0.27,0.15 -0.27,0.19 -0.55,0.34z"/>
   <path class="fil0" d="M18.67 4.16l0.27 0.15c0.48,-0.05 0.48,-0.15 0.41,-0.58 -0.27,0.1 -0.48,0.29 -0.68,0.44z"/>
   <path class="fil1" d="M1.22 36.66l2.61 0 0 1.17 -3.83 0 0 -6.19 3.79 0 0 1.17 -2.56 0 0 1.32 2.34 0 0 1.15 -2.34 0 0 1.39zm4.69 0l2.36 0 0 1.17 -3.58 0 0 -6.19 1.22 0 0 5.02zm4.27 0l2.61 0 0 1.17 -3.83 0 0 -6.19 3.78 0 0 1.17 -2.56 0 0 1.32 2.34 0 0 1.15 -2.34 0 0 1.39zm9.5 -2.16l0 0.48c0,0.88 -0.28,1.6 -0.85,2.15 -0.57,0.55 -1.3,0.82 -2.19,0.82 -0.96,0 -1.75,-0.31 -2.37,-0.93 -0.63,-0.62 -0.94,-1.38 -0.94,-2.28 0,-0.9 0.31,-1.67 0.93,-2.29 0.62,-0.62 1.39,-0.94 2.31,-0.94 0.58,0 1.11,0.13 1.58,0.39 0.48,0.26 0.85,0.61 1.11,1.05l-1.04 0.6c-0.15,-0.25 -0.37,-0.46 -0.67,-0.62 -0.3,-0.16 -0.63,-0.24 -1,-0.24 -0.59,0 -1.07,0.19 -1.45,0.58 -0.38,0.39 -0.57,0.87 -0.57,1.46 0,0.58 0.19,1.07 0.58,1.45 0.39,0.38 0.9,0.57 1.53,0.57 0.47,0 0.86,-0.1 1.17,-0.31 0.31,-0.21 0.52,-0.5 0.63,-0.86l-1.87 0 0 -1.08 3.1 0zm4.72 3.33l-0.39 -1.11 -2.54 0 -0.37 1.11 -1.32 0 2.17 -6.19 1.51 0 2.18 6.19 -1.24 0zm-2.54 -2.26l1.74 0 -0.89 -2.53 -0.85 2.53zm7.96 -3.94l1.22 0 0 6.19 -0.93 0 -2.65 -3.79 0 3.79 -1.22 0 0 -6.19 0.93 0 2.65 3.77 0 -3.77zm6.46 0l0 1.17 -1.67 0 0 5.02 -1.22 0 0 -5.02 -1.66 0 0 -1.17 4.55 0zm4.11 5.02l2.36 0 0 1.17 -3.58 0 0 -6.19 1.22 0 0 5.02zm5.26 1.29c-0.69,0 -1.26,-0.19 -1.7,-0.58 -0.44,-0.39 -0.66,-0.91 -0.66,-1.57l0 -4.17 1.21 0 0 4.07c0,0.32 0.09,0.58 0.28,0.77 0.19,0.19 0.48,0.28 0.87,0.28 0.4,0 0.69,-0.09 0.87,-0.28 0.19,-0.19 0.28,-0.45 0.28,-0.77l0 -4.07 1.22 0 0 4.17c0,0.65 -0.22,1.18 -0.66,1.57 -0.44,0.39 -1.01,0.58 -1.71,0.58zm8.08 -0.12l-1.39 0 -1.2 -2.02 -1.2 2.02 -1.38 0 1.89 -3.18 -1.79 -3.01 1.38 0 1.11 1.85 1.1 -1.85 1.38 0 -1.79 3.01 1.9 3.18z"/>
   <path class="fil1" d="M2.83 41.25c-0.11,0.31 -0.28,0.55 -0.51,0.73 -0.24,0.19 -0.52,0.28 -0.84,0.28 -0.41,0 -0.76,-0.14 -1.04,-0.42 -0.29,-0.28 -0.43,-0.63 -0.43,-1.04 0,-0.4 0.14,-0.74 0.42,-1.02 0.28,-0.28 0.62,-0.42 1.03,-0.42 0.33,0 0.62,0.09 0.86,0.27 0.24,0.18 0.41,0.43 0.5,0.75l-0.68 0c-0.15,-0.3 -0.39,-0.46 -0.69,-0.46 -0.24,0 -0.43,0.08 -0.58,0.25 -0.15,0.17 -0.23,0.37 -0.23,0.61 0,0.24 0.08,0.44 0.23,0.62 0.15,0.18 0.35,0.27 0.58,0.27 0.31,0 0.54,-0.15 0.69,-0.44l0.68 0zm1.78 -1.26l-0.55 0 0 2.22 -0.63 0 0 -2.22 -0.55 0 0 -0.56 1.73 0 0 0.56zm0.93 2.22l-0.63 0 0 -2.78 0.97 0c0.31,0 0.56,0.08 0.74,0.23 0.19,0.16 0.29,0.4 0.29,0.71 0,0.31 -0.1,0.54 -0.31,0.7 -0.18,0.14 -0.44,0.21 -0.76,0.21l-0.3 0 0 0.94zm0 -2.22l0 0.73 0.28 0c0.31,0 0.47,-0.12 0.47,-0.37 0,-0.24 -0.16,-0.36 -0.47,-0.36l-0.28 0zm3.01 2.28c-0.4,0 -0.75,-0.14 -1.03,-0.42 -0.28,-0.28 -0.43,-0.62 -0.43,-1.03 0,-0.4 0.14,-0.75 0.43,-1.02 0.28,-0.28 0.63,-0.42 1.03,-0.42 0.41,0 0.75,0.14 1.03,0.41 0.28,0.28 0.42,0.62 0.42,1.03 0,0.41 -0.14,0.75 -0.42,1.03 -0.28,0.28 -0.62,0.42 -1.03,0.42zm0 -2.32c-0.23,0 -0.43,0.09 -0.58,0.26 -0.16,0.17 -0.24,0.38 -0.24,0.61 0,0.23 0.08,0.44 0.24,0.61 0.16,0.18 0.35,0.26 0.58,0.26 0.24,0 0.43,-0.09 0.59,-0.27 0.15,-0.17 0.22,-0.37 0.22,-0.61 0,-0.24 -0.08,-0.44 -0.23,-0.61 -0.15,-0.17 -0.35,-0.25 -0.59,-0.25zm4.16 2.27l-0.62 0 0 -1.72 -1.18 1.72 -0.53 0 0 -2.78 0.63 0 0 1.7 1.17 -1.7 0.52 0 0 2.78zm2.04 -2.22l-0.55 0 0 2.22 -0.63 0 0 -2.22 -0.55 0 0 -0.56 1.73 0 0 0.56zm1.82 2.22l-1.52 0 0 -2.78 1.52 0 0 0.56 -0.89 0 0 0.53 0.87 0 0 0.56 -0.87 0 0 0.57 0.89 0 0 0.57zm2.76 0l-0.65 0 -0.61 -2.04 -0.62 2.04 -0.65 0 0.91 -2.78 0.71 0 0.91 2.78zm2.15 -0.87c0,0.3 -0.1,0.53 -0.31,0.68 -0.18,0.13 -0.42,0.19 -0.74,0.19l-0.83 0 0 -2.78 0.63 0 0 1.04 0.22 0c0.69,0 1.03,0.29 1.03,0.88zm-0.63 0c0,-0.23 -0.15,-0.35 -0.45,-0.35l-0.18 0 0 0.66 0.18 0c0.3,0 0.45,-0.1 0.45,-0.31zm3.22 0.87l-0.63 0 0 -1.14 -0.97 0 0 1.14 -0.63 0 0 -2.78 0.63 0 0 1.08 0.97 0 0 -1.08 0.63 0 0 2.78zm3.18 0l-0.63 0 0 -2.78 0.63 0 0 2.78zm-0.85 -0.87c0,0.29 -0.1,0.51 -0.3,0.66 -0.18,0.13 -0.42,0.2 -0.72,0.2l-0.81 0 0 -2.78 0.63 0 0 1.04c0.36,0 0.64,0.06 0.83,0.17 0.25,0.14 0.37,0.38 0.37,0.72zm-0.61 0c0,-0.14 -0.04,-0.23 -0.12,-0.29 -0.07,-0.04 -0.17,-0.07 -0.32,-0.07l-0.15 0 0 0.66 0.15 0c0.3,0 0.44,-0.1 0.44,-0.31zm3.47 0.87l-1.52 0 0 -2.78 1.52 0 0 0.56 -0.89 0 0 0.53 0.87 0 0 0.56 -0.87 0 0 0.57 0.89 0 0 0.57zm4.61 0l-0.58 0 0 -1.57c0,-0.06 0,-0.15 0.01,-0.27 0,-0.12 0.01,-0.21 0.01,-0.27l-0 0 -0.67 2.11 -0.43 0 -0.67 -2.13 -0 0c0,0.06 0,0.15 0.01,0.27 0.01,0.13 0.01,0.22 0.01,0.27l0 1.58 -0.6 0 0 -2.78 0.85 0 0.62 1.93 0.61 -1.93 0.84 0 0 2.78zm2.98 0l-0.69 0 -0.18 -0.5 -1 0 -0.19 0.5 -0.68 0 1.11 -2.78 0.52 0 1.11 2.78zm-1.04 -1.02l-0.32 -1 -0.32 1 0.64 0zm2.66 -1.2l-0.55 0 0 2.22 -0.63 0 0 -2.22 -0.55 0 0 -0.56 1.73 0 0 0.56zm1.82 2.22l-1.52 0 0 -2.78 1.52 0 0 0.56 -0.89 0 0 0.53 0.87 0 0 0.56 -0.87 0 0 0.57 0.89 0 0 0.57zm1.09 0l-0.63 0 0 -2.78 0.97 0c0.31,0 0.56,0.08 0.74,0.23 0.19,0.16 0.29,0.4 0.29,0.71 0,0.31 -0.1,0.54 -0.31,0.7 -0.18,0.14 -0.44,0.21 -0.76,0.21l-0.3 0 0 0.94zm0 -2.22l0 0.73 0.28 0c0.31,0 0.47,-0.12 0.47,-0.37 0,-0.24 -0.16,-0.36 -0.47,-0.36l-0.28 0zm3.99 2.22l-0.62 0 0 -1.72 -1.18 1.72 -0.53 0 0 -2.78 0.63 0 0 1.7 1.17 -1.7 0.52 0 0 2.78zm2.98 0l-0.69 0 -0.18 -0.5 -1 0 -0.19 0.5 -0.68 0 1.11 -2.78 0.52 0 1.11 2.78zm-1.04 -1.02l-0.32 -1 -0.32 1 0.64 0zm3.59 1.02l-0.65 0 -0.61 -2.04 -0.62 2.04 -0.65 0 0.91 -2.78 0.71 0 0.91 2.78zm2.94 0l-0.63 0 0 -2.78 0.63 0 0 2.78zm-0.85 -0.87c0,0.29 -0.1,0.51 -0.3,0.66 -0.18,0.13 -0.42,0.2 -0.72,0.2l-0.81 0 0 -2.78 0.63 0 0 1.04c0.36,0 0.64,0.06 0.83,0.17 0.25,0.14 0.37,0.38 0.37,0.72zm-0.61 0c0,-0.14 -0.04,-0.23 -0.12,-0.29 -0.07,-0.04 -0.17,-0.07 -0.32,-0.07l-0.15 0 0 0.66 0.15 0c0.3,0 0.44,-0.1 0.44,-0.31z"/>
  </g>
 </g>
</svg>
