<?xml version="1.0" encoding="UTF-8"?>
<!DOCTYPE svg PUBLIC "-//W3C//DTD SVG 1.1//EN" "http://www.w3.org/Graphics/SVG/1.1/DTD/svg11.dtd">
<!-- Creator: CorelDRAW 2021.5 -->
<svg xmlns="http://www.w3.org/2000/svg" xml:space="preserve" width="13.1233mm" height="9.6912mm" version="1.1" style="shape-rendering:geometricPrecision; text-rendering:geometricPrecision; image-rendering:optimizeQuality; fill-rule:evenodd; clip-rule:evenodd"
viewBox="0 0 75.3 55.61"
 xmlns:xlink="http://www.w3.org/1999/xlink"
 xmlns:xodm="http://www.corel.com/coreldraw/odm/2003">
 <defs>
  <style type="text/css">
   <![CDATA[
    .fil2 {fill:#757575}
    .fil4 {fill:#757575}
    .fil3 {fill:#757575}
    .fil5 {fill:#FFF}
    .fil6 {fill:#FFF}
    .fil0 {fill:#FFF;fill-rule:nonzero}
    .fil1 {fill:#B5B5B5;fill-rule:nonzero}
   ]]>
  </style>
 </defs>
 <g id="Слой_x0020_1">
  <metadata id="CorelCorpID_0Corel-Layer"/>
  <g id="_2170510603248">
   <g>
    <g>
     <path class="fil1" d="M4.48 46.98c0,0.67 -0.2,1.18 -0.59,1.55 -0.39,0.36 -0.94,0.54 -1.65,0.54 -0.71,0 -1.26,-0.18 -1.65,-0.54 -0.39,-0.36 -0.59,-0.88 -0.59,-1.55l0 -3.19 1.2 0 0 2.92c0,0.89 0.34,1.34 1.03,1.34 0.7,0 1.05,-0.45 1.05,-1.34l0 -2.92 1.2 0 0 3.19zm4.43 1.96l-1.12 0 0 -1.93c0,-0.49 -0.21,-0.73 -0.63,-0.73 -0.48,0 -0.72,0.3 -0.72,0.91l0 1.75 -1.11 0 0 -3.42 1.11 0 0 0.44c0.27,-0.36 0.65,-0.55 1.14,-0.55 0.88,0 1.32,0.48 1.32,1.43l0 2.1zm2.05 -4.69c0,0.17 -0.06,0.31 -0.19,0.44 -0.13,0.12 -0.28,0.19 -0.45,0.19 -0.18,0 -0.33,-0.06 -0.46,-0.19 -0.13,-0.12 -0.2,-0.27 -0.2,-0.44 0,-0.17 0.07,-0.31 0.2,-0.44 0.13,-0.12 0.28,-0.19 0.46,-0.19 0.17,0 0.32,0.06 0.45,0.19 0.13,0.12 0.19,0.27 0.19,0.44zm-0.08 4.69l-1.11 0 0 -3.42 1.11 0 0 3.42zm2.71 -2.53l-0.66 0 0 2.53 -1.12 0 0 -2.53 -0.42 0 0 -0.89 0.42 0 0 -1.27 1.12 0 0 1.27 0.66 0 0 0.89zm3.94 0.98l-2.77 0c0.02,0.24 0.1,0.44 0.24,0.58 0.15,0.16 0.35,0.24 0.6,0.24 0.36,0 0.62,-0.13 0.76,-0.38l1.06 0.21c-0.32,0.67 -0.92,1 -1.82,1 -0.57,0 -1.04,-0.18 -1.41,-0.53 -0.37,-0.34 -0.55,-0.78 -0.55,-1.3 0,-0.53 0.18,-0.96 0.55,-1.31 0.36,-0.35 0.83,-0.52 1.4,-0.52 0.59,0 1.07,0.18 1.42,0.54 0.34,0.34 0.52,0.78 0.52,1.31l0 0.14zm-1.08 -0.65c-0.1,-0.38 -0.37,-0.57 -0.83,-0.57 -0.42,0 -0.69,0.19 -0.82,0.57l1.65 0zm5.45 2.19l-1.07 0 0 -0.44c-0.26,0.37 -0.65,0.56 -1.16,0.56 -0.5,0 -0.92,-0.18 -1.26,-0.53 -0.34,-0.35 -0.51,-0.78 -0.51,-1.3 0,-0.53 0.17,-0.96 0.5,-1.31 0.33,-0.35 0.75,-0.52 1.25,-0.52 0.47,0 0.86,0.18 1.17,0.53 -0.02,-0.11 -0.02,-0.26 -0.02,-0.45l0 -1.94 1.11 0 0 5.39zm-1.07 -1.73c0,-0.25 -0.08,-0.46 -0.25,-0.62 -0.17,-0.16 -0.38,-0.24 -0.64,-0.24 -0.26,0 -0.47,0.08 -0.64,0.25 -0.16,0.17 -0.25,0.38 -0.25,0.64 0,0.26 0.08,0.47 0.25,0.63 0.17,0.17 0.38,0.25 0.65,0.25 0.27,0 0.48,-0.08 0.64,-0.25 0.16,-0.17 0.24,-0.39 0.24,-0.66zm38.04 -0.85c0,0.86 -0.26,1.53 -0.77,2.02 -0.49,0.46 -1.13,0.69 -1.93,0.69 -0.83,0 -1.5,-0.25 -2.02,-0.75 -0.52,-0.5 -0.78,-1.15 -0.78,-1.95 0,-0.78 0.27,-1.42 0.81,-1.94 0.54,-0.51 1.22,-0.77 2.05,-0.77 0.53,0 1,0.12 1.42,0.34 0.42,0.23 0.74,0.55 0.95,0.95l-1.1 0.51c-0.3,-0.55 -0.75,-0.83 -1.32,-0.83 -0.44,0 -0.81,0.17 -1.12,0.5 -0.3,0.33 -0.46,0.74 -0.46,1.23 0,0.51 0.15,0.93 0.45,1.26 0.3,0.33 0.68,0.5 1.13,0.5 0.36,0 0.66,-0.1 0.92,-0.3 0.26,-0.2 0.38,-0.46 0.38,-0.76l-1.22 0 0 -0.92 2.6 0 0 0.21zm3.24 -0.84l-0.17 0.95c-0.12,-0.04 -0.27,-0.06 -0.45,-0.06 -0.58,0 -0.87,0.33 -0.87,1l0 1.53 -1.12 0 0 -3.42 1.09 0 0 0.57c0.24,-0.42 0.59,-0.63 1.05,-0.63 0.16,0 0.32,0.02 0.46,0.06zm4.19 1.72c0,0.52 -0.19,0.95 -0.58,1.3 -0.4,0.35 -0.89,0.53 -1.49,0.53 -0.6,0 -1.1,-0.18 -1.49,-0.53 -0.39,-0.34 -0.58,-0.78 -0.58,-1.3 0,-0.52 0.2,-0.96 0.59,-1.3 0.39,-0.35 0.89,-0.52 1.49,-0.52 0.6,0 1.1,0.17 1.49,0.52 0.39,0.35 0.59,0.78 0.59,1.3zm-1.17 0c0,-0.25 -0.09,-0.46 -0.26,-0.62 -0.17,-0.17 -0.39,-0.25 -0.65,-0.25 -0.26,0 -0.48,0.08 -0.65,0.25 -0.17,0.17 -0.26,0.37 -0.26,0.62 0,0.25 0.09,0.45 0.26,0.62 0.17,0.17 0.39,0.25 0.65,0.25 0.26,0 0.48,-0.08 0.65,-0.25 0.17,-0.17 0.26,-0.37 0.26,-0.62zm5.34 0.35c0,0.48 -0.15,0.84 -0.46,1.1 -0.31,0.25 -0.75,0.38 -1.33,0.38 -1.21,0 -1.81,-0.52 -1.81,-1.56l0 -1.97 1.11 0 0 1.84c0,0.55 0.23,0.82 0.7,0.82 0.25,0 0.42,-0.06 0.53,-0.19 0.11,-0.13 0.16,-0.34 0.16,-0.62l0 -1.84 1.11 0 0 2.06zm4.82 -0.36c0,0.53 -0.17,0.96 -0.5,1.31 -0.33,0.35 -0.75,0.52 -1.25,0.52 -0.47,0 -0.86,-0.18 -1.17,-0.53 0.02,0.11 0.02,0.26 0.02,0.45l0 1.94 -1.11 0 0 -5.39 1.07 0 0 0.44c0.25,-0.36 0.64,-0.55 1.16,-0.55 0.5,0 0.93,0.17 1.26,0.52 0.34,0.35 0.51,0.78 0.51,1.29zm-1.15 0c0,-0.26 -0.08,-0.47 -0.25,-0.63 -0.17,-0.16 -0.38,-0.24 -0.65,-0.24 -0.27,0 -0.48,0.08 -0.64,0.25 -0.16,0.16 -0.24,0.38 -0.24,0.66 0,0.25 0.09,0.46 0.25,0.62 0.17,0.16 0.38,0.25 0.64,0.25 0.26,0 0.47,-0.08 0.64,-0.25 0.16,-0.17 0.25,-0.38 0.25,-0.65z"/>
     <path class="fil1" d="M28.98 48.79c-0.45,0.18 -0.87,0.27 -1.27,0.27 -0.83,0 -1.51,-0.26 -2.06,-0.77 -0.54,-0.51 -0.81,-1.16 -0.81,-1.94 0,-0.76 0.28,-1.4 0.84,-1.93 0.56,-0.52 1.23,-0.78 2.03,-0.78 0.45,0 0.87,0.1 1.26,0.29l0 1.37c-0.33,-0.37 -0.76,-0.55 -1.27,-0.55 -0.46,0 -0.85,0.15 -1.15,0.45 -0.31,0.3 -0.46,0.68 -0.46,1.15 0,0.48 0.15,0.87 0.46,1.16 0.3,0.29 0.68,0.43 1.15,0.43 0.49,0 0.92,-0.18 1.28,-0.55l0 1.38zm4.41 -1.4l-2.77 0c0.02,0.24 0.1,0.44 0.24,0.58 0.15,0.16 0.35,0.24 0.6,0.24 0.36,0 0.62,-0.13 0.76,-0.38l1.06 0.21c-0.32,0.67 -0.92,1 -1.82,1 -0.57,0 -1.04,-0.18 -1.41,-0.53 -0.37,-0.34 -0.55,-0.78 -0.55,-1.3 0,-0.53 0.18,-0.96 0.55,-1.31 0.36,-0.35 0.83,-0.52 1.4,-0.52 0.59,0 1.07,0.18 1.42,0.54 0.34,0.34 0.52,0.78 0.52,1.31l0 0.14zm-1.08 -0.65c-0.1,-0.38 -0.37,-0.57 -0.83,-0.57 -0.42,0 -0.69,0.19 -0.82,0.57l1.65 0zm7.3 2.19l-1.12 0 0 -1.93c0,-0.49 -0.16,-0.73 -0.49,-0.73 -0.19,0 -0.34,0.07 -0.46,0.2 -0.13,0.15 -0.19,0.36 -0.19,0.63l0 1.83 -1.12 0 0 -1.93c0,-0.49 -0.17,-0.73 -0.51,-0.73 -0.42,0 -0.63,0.3 -0.63,0.91l0 1.75 -1.11 0 0 -3.42 1.11 0 0 0.44c0.27,-0.36 0.61,-0.55 1.02,-0.55 0.55,0 0.94,0.21 1.17,0.64 0.1,-0.18 0.25,-0.33 0.44,-0.44 0.21,-0.13 0.44,-0.2 0.69,-0.2 0.8,0 1.19,0.48 1.19,1.43l0 2.1zm4.47 -1.54l-2.77 0c0.02,0.24 0.1,0.44 0.24,0.58 0.15,0.16 0.35,0.24 0.6,0.24 0.36,0 0.62,-0.13 0.76,-0.38l1.06 0.21c-0.32,0.67 -0.92,1 -1.82,1 -0.57,0 -1.04,-0.18 -1.41,-0.53 -0.37,-0.34 -0.55,-0.78 -0.55,-1.3 0,-0.53 0.18,-0.96 0.55,-1.31 0.36,-0.35 0.83,-0.52 1.4,-0.52 0.59,0 1.07,0.18 1.42,0.54 0.34,0.34 0.52,0.78 0.52,1.31l0 0.14zm-1.08 -0.65c-0.1,-0.38 -0.37,-0.57 -0.83,-0.57 -0.42,0 -0.69,0.19 -0.82,0.57l1.65 0zm5.25 2.19l-1.12 0 0 -1.93c0,-0.49 -0.21,-0.73 -0.63,-0.73 -0.48,0 -0.72,0.3 -0.72,0.91l0 1.75 -1.11 0 0 -3.42 1.11 0 0 0.44c0.27,-0.36 0.65,-0.55 1.14,-0.55 0.88,0 1.32,0.48 1.32,1.43l0 2.1zm2.63 -2.53l-0.66 0 0 2.53 -1.12 0 0 -2.53 -0.42 0 0 -0.89 0.42 0 0 -1.27 1.12 0 0 1.27 0.66 0 0 0.89z"/>
    </g>
    <path class="fil1" d="M45.42 52.22l0 2.55 0.59 0 0 -1.07 0.11 0c0.32,0 0.45,0.22 0.54,0.51 0.06,0.19 0.11,0.39 0.2,0.56l0.65 0c-0.13,-0.25 -0.21,-0.53 -0.31,-0.8 -0.11,-0.31 -0.26,-0.53 -0.61,-0.61l0.93 -1.14 -0.73 0 -0.73 1.06 -0.06 0 0 -1.06 -0.59 0zm2.02 0.7l0.71 1.7c0.02,0.05 0.02,0.07 0.02,0.09 0,0.02 -0.01,0.05 -0.03,0.08 -0.06,0.09 -0.16,0.19 -0.25,0.23 -0.09,0.05 -0.19,0.08 -0.26,0.1l0.13 0.48c0.15,-0.01 0.37,-0.08 0.58,-0.25 0.22,-0.19 0.4,-0.48 0.68,-1.22l0.45 -1.22 -0.64 0 -0.24 0.91c-0.03,0.11 -0.06,0.25 -0.08,0.35l-0.02 0c-0.02,-0.1 -0.06,-0.24 -0.09,-0.34l-0.29 -0.91 -0.67 0zm2.28 1.84c0.12,0.01 0.41,0.03 0.67,0.03 0.39,0 1.14,-0.05 1.14,-0.57 0,-0.25 -0.19,-0.41 -0.48,-0.45l0 -0.01c0.19,-0.03 0.39,-0.16 0.39,-0.4 0,-0.44 -0.63,-0.47 -0.95,-0.47 -0.3,0 -0.63,0.03 -0.78,0.05l0 1.83zm0.59 -1.5c0.07,-0 0.12,-0.01 0.2,-0.01 0.24,0 0.35,0.07 0.35,0.19 0,0.14 -0.15,0.2 -0.39,0.2l-0.15 0 0 -0.38zm-0 0.72l0.17 0c0.28,0 0.44,0.07 0.44,0.23 0,0.18 -0.2,0.24 -0.41,0.24 -0.09,0 -0.14,0 -0.2,-0.01l0 -0.47zm3.21 -0.3c0,-0.44 -0.2,-0.8 -0.84,-0.8 -0.35,0 -0.62,0.09 -0.75,0.17l0.11 0.37c0.13,-0.08 0.34,-0.14 0.53,-0.14 0.3,0 0.35,0.14 0.35,0.24l0 0.02c-0.68,0 -1.13,0.23 -1.13,0.71 0,0.29 0.23,0.57 0.62,0.57 0.23,0 0.43,-0.08 0.55,-0.23l0.01 0 0.04 0.19 0.54 0c-0.02,-0.1 -0.03,-0.27 -0.03,-0.45l0 -0.65zm-0.58 0.42c0,0.03 -0,0.07 -0.01,0.1 -0.04,0.12 -0.17,0.21 -0.31,0.21 -0.13,0 -0.24,-0.07 -0.24,-0.22 0,-0.22 0.24,-0.29 0.56,-0.29l0 0.2zm4.44 -0.42c0,-0.44 -0.2,-0.8 -0.84,-0.8 -0.35,0 -0.62,0.09 -0.75,0.17l0.11 0.37c0.13,-0.08 0.34,-0.14 0.53,-0.14 0.3,0 0.35,0.14 0.35,0.24l0 0.02c-0.68,0 -1.13,0.23 -1.13,0.71 0,0.29 0.23,0.57 0.62,0.57 0.23,0 0.43,-0.08 0.55,-0.23l0.01 0 0.04 0.19 0.54 0c-0.02,-0.1 -0.03,-0.27 -0.03,-0.45l0 -0.65zm-0.58 0.42c0,0.03 -0,0.07 -0.01,0.1 -0.04,0.12 -0.17,0.21 -0.31,0.21 -0.13,0 -0.24,-0.07 -0.24,-0.22 0,-0.22 0.24,-0.29 0.56,-0.29l0 0.2zm1.05 -1.18l0 1.85 0.73 0c0.13,-0.29 0.28,-0.61 0.4,-0.87 0.08,-0.17 0.13,-0.3 0.2,-0.5l0.02 0c-0.02,0.39 -0.04,0.51 -0.04,0.8l0 0.56 0.57 0 0 -1.85 -0.73 0 -0.37 0.8c-0.08,0.17 -0.13,0.32 -0.22,0.53l-0.02 -0c0.02,-0.25 0.03,-0.46 0.03,-0.75l0 -0.57 -0.57 0zm0.37 -0.76c0.02,0.33 0.19,0.53 0.55,0.53 0.34,0 0.56,-0.18 0.58,-0.53l-0.38 0c-0.01,0.16 -0.07,0.27 -0.19,0.27 -0.11,0 -0.18,-0.1 -0.18,-0.27l-0.38 0zm1.98 0.76l0 1.85 1.52 0 0.02 0.6 0.45 0 0.03 -1 -0.22 -0.01 0 -1.45 -0.6 0 0 1.41 -0.6 0 0 -1.41 -0.6 0zm4.02 1.11c0.01,-0.04 0.02,-0.13 0.02,-0.23 0,-0.46 -0.24,-0.92 -0.86,-0.92 -0.67,0 -0.97,0.52 -0.97,0.99 0,0.58 0.37,0.94 1.03,0.94 0.26,0 0.5,-0.04 0.7,-0.12l-0.08 -0.39c-0.16,0.05 -0.33,0.08 -0.53,0.08 -0.28,0 -0.53,-0.11 -0.54,-0.35l1.24 0zm-1.25 -0.39c0.02,-0.15 0.12,-0.37 0.37,-0.37 0.28,0 0.34,0.23 0.34,0.37l-0.71 0zm1.56 1.14l0.54 0 0.03 -0.73c0.01,-0.15 0.01,-0.42 0.02,-0.65l0.02 0c0.04,0.17 0.11,0.44 0.16,0.61l0.23 0.73 0.44 0 0.26 -0.75c0.1,-0.3 0.11,-0.36 0.19,-0.61l0.01 0c0,0.22 0.02,0.49 0.02,0.65l0.03 0.74 0.56 0 -0.12 -1.85 -0.76 0 -0.21 0.66c-0.06,0.18 -0.12,0.38 -0.15,0.51l-0.01 0c-0.04,-0.17 -0.09,-0.36 -0.13,-0.47l-0.21 -0.7 -0.76 0 -0.13 1.85zm4.59 -0.74c0.01,-0.04 0.02,-0.13 0.02,-0.23 0,-0.46 -0.24,-0.92 -0.86,-0.92 -0.67,0 -0.97,0.52 -0.97,0.99 0,0.58 0.37,0.94 1.03,0.94 0.26,0 0.5,-0.04 0.7,-0.12l-0.08 -0.39c-0.16,0.05 -0.33,0.08 -0.53,0.08 -0.28,0 -0.53,-0.11 -0.54,-0.35l1.24 0zm-1.25 -0.39c0.02,-0.15 0.12,-0.37 0.37,-0.37 0.28,0 0.34,0.23 0.34,0.37l-0.71 0zm1.62 -0.72l0 1.85 0.6 0 0 -0.73 0.61 0 0 0.73 0.6 0 0 -1.85 -0.6 0 0 0.67 -0.61 0 0 -0.67 -0.6 0zm2.08 0l0 0.44 0.56 0 0 1.41 0.6 0 0 -1.41 0.56 0 0 -0.44 -1.72 0zm-16.21 1.38c-0.09,0.04 -0.2,0.06 -0.34,0.06 -0.29,0 -0.53,-0.18 -0.53,-0.52 -0,-0.3 0.2,-0.52 0.52,-0.52 0.16,0 0.26,0.03 0.34,0.06l0.09 -0.43c-0.13,-0.05 -0.3,-0.07 -0.46,-0.07 -0.72,0 -1.1,0.44 -1.1,0.98 0,0.58 0.4,0.95 1.02,0.95 0.23,0 0.43,-0.04 0.54,-0.09l-0.07 -0.42z"/>
   </g>
   <g>
    <polygon class="fil2" points="37.23,39.44 21.95,30.07 21.95,10.27 37.23,20.06 "/>
    <polygon class="fil3" points="53.35,10.21 53.35,30.07 38.07,39.44 38.07,20.06 "/>
    <polygon class="fil4" points="22.31,9.53 37.65,0 52.95,9.5 37.65,19.36 "/>
    <path class="fil0" d="M36.78 31.85c0,2.05 -0.6,3.26 -1.8,3.63 -1.2,0.37 -2.9,-0.13 -5.09,-1.5 -2.2,-1.37 -3.96,-2.91 -5.16,-4.78 -1.2,-1.87 -1.97,-3.96 -1.97,-6.01l0 -11.65 3.99 2.49 0 10.82c0,1.95 0.73,3.45 2.76,5 1.14,0.87 3.29,1.58 3.29,-1.32l0 -10.82 3.99 2.49 0 11.65z"/>
    <path class="fil5" d="M47.58 14.91l-0.94 4.66c-3.24,1.17 -4.79,5.5 -4.82,8.53 -0.03,2.64 1.21,4.49 3.87,2.51 1.57,-1.17 3.06,-3.6 3.31,-6.26l-2.97 1.87 0.02 -3.44 6.67 -4.09c0.07,5.48 -1.45,9.68 -3.82,12.52 -1.32,1.58 -3.72,3.55 -5.89,3.77 -2.07,0.21 -3.64,-1.15 -4.07,-4.06 -0.23,-1.53 -0.13,-3.35 0.17,-4.87 0.95,-4.94 4.28,-9.34 8.49,-11.13z"/>
    <path class="fil6" d="M30.32 5.33c-4.77,3.58 -2.28,9.09 5.3,10.15 4.69,0.66 10.21,-1.08 11.58,-4.21 0.69,-1.56 0.48,-3.89 -1.65,-5.61l-3.03 1.82c1.39,1.05 1.04,2.58 0.27,3.55 -1.14,1.43 -3.79,2.26 -6.3,1.77 -3.49,-0.67 -6.01,-3.47 -3.32,-5.79l-2.85 -1.68z"/>
   </g>
  </g>
 </g>
</svg>
