<?xml version="1.0" encoding="UTF-8"?>
<!DOCTYPE svg PUBLIC "-//W3C//DTD SVG 1.1//EN" "http://www.w3.org/Graphics/SVG/1.1/DTD/svg11.dtd">
<!-- Creator: CorelDRAW 2021.5 -->
<svg xmlns="http://www.w3.org/2000/svg" xml:space="preserve" width="11.43mm" height="4.6956mm" version="1.1" style="shape-rendering:geometricPrecision; text-rendering:geometricPrecision; image-rendering:optimizeQuality; fill-rule:evenodd; clip-rule:evenodd"
viewBox="0 0 21.93 9.01"
 xmlns:xlink="http://www.w3.org/1999/xlink"
 xmlns:xodm="http://www.corel.com/coreldraw/odm/2003">
 <defs>
  <style type="text/css">
   <![CDATA[
    .fil1 {fill:#757575}
    .fil0 {fill:#757575;fill-rule:nonzero}
   ]]>
  </style>
 </defs>
 <g id="Слой_x0020_1">
  <metadata id="CorelCorpID_0Corel-Layer"/>
  <g id="_2201429243888">
   <path class="fil0" d="M4.34 3.2c0.14,0.41 0.21,0.85 0.21,1.31l0 0 -0 0c0,1.25 -0.57,2.38 -1.49,3.2 -0.8,0.72 -1.88,1.19 -3.07,1.3l0 -0.46c1.06,-0.1 2.02,-0.53 2.73,-1.17 0.83,-0.74 1.34,-1.75 1.34,-2.87l-0 0 0 0c0,-0.34 -0.05,-0.67 -0.13,-0.98l0.41 -0.32z"/>
   <path class="fil0" d="M-0 0c1.19,0.11 2.27,0.58 3.07,1.3 0.1,0.09 0.19,0.18 0.28,0.27l-0.37 0.3c-0.08,-0.08 -0.16,-0.16 -0.25,-0.24 -0.72,-0.64 -1.67,-1.07 -2.73,-1.17l0 -0.46z"/>
   <path class="fil0" d="M3.38 3.97c0.03,0.18 0.05,0.35 0.05,0.54l0 0 0 0 0 0 -0 0c0,0.97 -0.44,1.85 -1.15,2.49 -0.6,0.53 -1.39,0.9 -2.27,1l0 -0.46c0.75,-0.1 1.42,-0.41 1.93,-0.87 0.62,-0.55 1,-1.32 1,-2.16l-0 0 0 0 0 -0 0 0c0,-0.06 -0,-0.12 -0.01,-0.18l0.45 -0.36z"/>
   <path class="fil0" d="M-0 1.02c0.88,0.1 1.67,0.46 2.27,1 0.08,0.07 0.16,0.15 0.24,0.23l-0.37 0.3c-0.06,-0.07 -0.13,-0.13 -0.2,-0.2 -0.51,-0.46 -1.18,-0.77 -1.93,-0.87l0 -0.46z"/>
   <path class="fil1" d="M3.97 7.07l1.69 1.35 0 0.55 -1.96 -1.56c0.09,-0.11 0.18,-0.22 0.27,-0.34z"/>
   <path class="fil1" d="M4.26 6.61l1.41 1.12 0 -0.55 -1.21 -0.96c-0.06,0.14 -0.12,0.27 -0.19,0.4z"/>
   <path class="fil1" d="M0.06 4.5l5.61 -4.47 0 0.55 -4.92 3.92 1.59 1.27c-0.07,0.12 -0.15,0.24 -0.24,0.36l-2.04 -1.63z"/>
   <path class="fil1" d="M1.62 4.5l0.95 0.76c0.05,-0.15 0.08,-0.31 0.1,-0.47l-0.36 -0.28 3.36 -2.67 0 -0.55 -4.05 3.22z"/>
   <path class="fil0" d="M8.25 3.35l0.11 0.16c0.03,-0.05 0.05,-0.11 0.07,-0.17 0.02,-0.06 0.02,-0.13 0.02,-0.2 0,-0.2 -0.05,-0.37 -0.15,-0.49 -0.1,-0.13 -0.23,-0.19 -0.38,-0.19 -0.15,0 -0.28,0.06 -0.38,0.19 -0.1,0.13 -0.15,0.29 -0.15,0.48 0,0.2 0.05,0.36 0.15,0.49 0.1,0.13 0.23,0.19 0.39,0.19 0.02,0 0.04,-0 0.07,-0.01 0.02,-0.01 0.05,-0.01 0.07,-0.03l-0.29 -0.42 0.48 0zm0.8 1.18l-0.48 0 -0.22 -0.32c-0.06,0.04 -0.12,0.06 -0.2,0.08 -0.07,0.02 -0.15,0.03 -0.24,0.03 -0.12,0 -0.23,-0.02 -0.34,-0.05 -0.11,-0.03 -0.21,-0.08 -0.3,-0.15 -0.15,-0.11 -0.26,-0.25 -0.35,-0.43 -0.08,-0.17 -0.13,-0.36 -0.13,-0.56 0,-0.16 0.03,-0.31 0.08,-0.46 0.05,-0.14 0.13,-0.27 0.24,-0.39 0.1,-0.11 0.22,-0.2 0.35,-0.26 0.13,-0.06 0.27,-0.09 0.42,-0.09 0.15,0 0.29,0.03 0.42,0.09 0.13,0.06 0.25,0.15 0.35,0.26 0.1,0.11 0.18,0.24 0.24,0.39 0.05,0.14 0.08,0.3 0.08,0.46 0,0.17 -0.03,0.33 -0.08,0.47 -0.06,0.15 -0.14,0.27 -0.25,0.38l0.37 0.55zm0.32 -0.27l0 -2.28 0.56 0 0 2.28 -0.56 0zm2.61 0l-1.81 0 1.03 -1.79 -0.83 0 0 -0.49 1.72 0 -1.03 1.78 0.91 0 0 0.5zm0.36 0l0 -2.28 0.56 0 0 2.28 -0.56 0zm1.01 0l0 -2.28 0.56 0 0 1.75 0.69 0 0 0.53 -1.25 0zm2.87 -0.91l0.11 0.16c0.03,-0.05 0.05,-0.11 0.07,-0.17 0.02,-0.06 0.02,-0.13 0.02,-0.2 0,-0.2 -0.05,-0.37 -0.15,-0.49 -0.1,-0.13 -0.23,-0.19 -0.38,-0.19 -0.15,0 -0.28,0.06 -0.38,0.19 -0.1,0.13 -0.15,0.29 -0.15,0.48 0,0.2 0.05,0.36 0.15,0.49 0.1,0.13 0.23,0.19 0.39,0.19 0.02,0 0.04,-0 0.07,-0.01 0.02,-0.01 0.05,-0.01 0.07,-0.03l-0.29 -0.42 0.48 0zm0.8 1.18l-0.48 0 -0.22 -0.32c-0.06,0.04 -0.12,0.06 -0.2,0.08 -0.07,0.02 -0.15,0.03 -0.24,0.03 -0.12,0 -0.23,-0.02 -0.34,-0.05 -0.11,-0.03 -0.21,-0.08 -0.3,-0.15 -0.15,-0.11 -0.26,-0.25 -0.35,-0.43 -0.08,-0.17 -0.13,-0.36 -0.13,-0.56 0,-0.16 0.03,-0.31 0.08,-0.46 0.05,-0.14 0.13,-0.27 0.24,-0.39 0.1,-0.11 0.22,-0.2 0.35,-0.26 0.13,-0.06 0.27,-0.09 0.42,-0.09 0.15,0 0.29,0.03 0.42,0.09 0.13,0.06 0.25,0.15 0.35,0.26 0.1,0.11 0.18,0.24 0.24,0.39 0.05,0.14 0.08,0.3 0.08,0.46 0,0.17 -0.03,0.33 -0.08,0.47 -0.06,0.15 -0.14,0.27 -0.25,0.38l0.37 0.55zm0.29 -2.55l0.56 0 0 1.11c0,0.16 0,0.28 0.01,0.35 0.01,0.07 0.02,0.13 0.04,0.18 0.02,0.06 0.06,0.1 0.11,0.13 0.05,0.03 0.12,0.05 0.19,0.05 0.08,0 0.14,-0.02 0.19,-0.05 0.05,-0.03 0.09,-0.08 0.11,-0.13 0.02,-0.05 0.03,-0.11 0.04,-0.18 0.01,-0.07 0.01,-0.19 0.01,-0.35l0 -0.16 0 -0.95 0.56 0 0 1.21c0,0.25 -0.01,0.43 -0.04,0.55 -0.03,0.12 -0.07,0.22 -0.14,0.3 -0.07,0.09 -0.17,0.16 -0.29,0.21 -0.12,0.05 -0.27,0.07 -0.45,0.07 -0.18,0 -0.32,-0.02 -0.45,-0.07 -0.12,-0.05 -0.22,-0.12 -0.29,-0.21 -0.06,-0.08 -0.11,-0.19 -0.14,-0.3 -0.03,-0.12 -0.04,-0.3 -0.04,-0.55l0 -0.24 0 -0.97zm4.6 2.28l-0.52 0 -0.12 -0.99c-0.01,-0.07 -0.02,-0.15 -0.02,-0.23 -0.01,-0.09 -0.01,-0.18 -0.02,-0.28 -0.01,0.1 -0.04,0.22 -0.08,0.36 -0.01,0.03 -0.01,0.05 -0.02,0.07l-0.28 1.07 -0.37 0 -0.28 -1.07c-0,-0.01 -0.01,-0.04 -0.02,-0.07 -0.04,-0.14 -0.06,-0.26 -0.08,-0.36 -0.01,0.09 -0.01,0.17 -0.02,0.26 -0.01,0.08 -0.02,0.17 -0.03,0.25l-0.12 0.99 -0.52 0 0.32 -2.28 0.55 0 0.31 1.18c0,0.01 0.01,0.02 0.01,0.04 0.03,0.1 0.05,0.19 0.05,0.27 0,-0.04 0.01,-0.09 0.02,-0.14 0.01,-0.05 0.02,-0.11 0.04,-0.18l0.31 -1.17 0.55 0 0.31 2.28z"/>
   <path class="fil0" d="M6.75 6.85l0.11 -0.44c0.08,0.07 0.17,0.13 0.27,0.17 0.1,0.04 0.19,0.06 0.29,0.06 0.07,0 0.12,-0.01 0.16,-0.03 0.04,-0.02 0.05,-0.06 0.05,-0.1 0,-0.07 -0.07,-0.13 -0.22,-0.16 -0.05,-0.01 -0.09,-0.02 -0.12,-0.03 -0.17,-0.05 -0.29,-0.11 -0.36,-0.19 -0.07,-0.08 -0.11,-0.18 -0.11,-0.3 0,-0.16 0.06,-0.28 0.17,-0.38 0.11,-0.09 0.27,-0.14 0.46,-0.14 0.1,0 0.2,0.01 0.31,0.04 0.1,0.02 0.21,0.06 0.32,0.11l-0.11 0.4c-0.07,-0.05 -0.15,-0.09 -0.22,-0.12 -0.08,-0.03 -0.15,-0.04 -0.23,-0.04 -0.06,0 -0.11,0.01 -0.14,0.03 -0.03,0.02 -0.05,0.05 -0.05,0.09 0,0.06 0.07,0.11 0.22,0.15 0.03,0.01 0.06,0.02 0.07,0.02 0.19,0.06 0.32,0.12 0.4,0.2 0.07,0.08 0.11,0.18 0.11,0.31 0,0.17 -0.06,0.3 -0.18,0.4 -0.12,0.1 -0.29,0.15 -0.49,0.15 -0.14,0 -0.27,-0.02 -0.38,-0.05 -0.12,-0.03 -0.23,-0.08 -0.33,-0.15zm2.76 -0.89c-0.01,-0.09 -0.04,-0.17 -0.1,-0.22 -0.06,-0.06 -0.13,-0.08 -0.21,-0.08 -0.09,0 -0.16,0.03 -0.22,0.08 -0.05,0.05 -0.09,0.13 -0.11,0.23l0.63 0zm0.54 0.32l-1.19 0c0,0.13 0.03,0.22 0.09,0.29 0.06,0.07 0.15,0.1 0.26,0.1 0.08,0 0.15,-0.02 0.21,-0.05 0.06,-0.03 0.1,-0.08 0.13,-0.15l0.42 0.17c-0.05,0.12 -0.14,0.22 -0.26,0.29 -0.13,0.07 -0.28,0.1 -0.46,0.1 -0.27,0 -0.49,-0.08 -0.66,-0.24 -0.16,-0.16 -0.25,-0.37 -0.25,-0.62 0,-0.25 0.08,-0.46 0.25,-0.63 0.17,-0.17 0.37,-0.25 0.63,-0.25 0.26,0 0.46,0.08 0.61,0.26 0.15,0.17 0.23,0.4 0.23,0.7l0 0.03zm2.39 0.7l0 -0.89c0,-0.14 -0.02,-0.24 -0.05,-0.29 -0.03,-0.05 -0.09,-0.08 -0.17,-0.08 -0.1,0 -0.18,0.04 -0.22,0.11 -0.04,0.07 -0.06,0.23 -0.06,0.46l0 0.69 -0.53 0 0 -0.89c0,-0.14 -0.02,-0.24 -0.05,-0.29 -0.03,-0.05 -0.09,-0.08 -0.17,-0.08 -0.1,0 -0.18,0.04 -0.22,0.11 -0.04,0.07 -0.06,0.23 -0.06,0.46l0 0.69 -0.54 0 0 -1.63 0.54 0 0 0.28c0.07,-0.12 0.14,-0.2 0.23,-0.25 0.09,-0.05 0.19,-0.08 0.3,-0.08 0.13,0 0.23,0.03 0.31,0.08 0.08,0.05 0.14,0.13 0.17,0.23 0.06,-0.1 0.14,-0.18 0.22,-0.23 0.09,-0.05 0.19,-0.08 0.31,-0.08 0.09,0 0.18,0.02 0.25,0.05 0.07,0.03 0.13,0.08 0.18,0.15 0.04,0.05 0.07,0.11 0.08,0.18 0.02,0.07 0.02,0.18 0.02,0.34l0 0.04 0 0.93 -0.55 0zm2.02 -1.03c-0.01,-0.09 -0.04,-0.17 -0.1,-0.22 -0.06,-0.06 -0.13,-0.08 -0.21,-0.08 -0.09,0 -0.16,0.03 -0.22,0.08 -0.05,0.05 -0.09,0.13 -0.11,0.23l0.63 0zm0.54 0.32l-1.19 0c0,0.13 0.03,0.22 0.09,0.29 0.06,0.07 0.15,0.1 0.26,0.1 0.08,0 0.15,-0.02 0.21,-0.05 0.06,-0.03 0.1,-0.08 0.13,-0.15l0.42 0.17c-0.05,0.12 -0.14,0.22 -0.26,0.29 -0.13,0.07 -0.28,0.1 -0.46,0.1 -0.27,0 -0.49,-0.08 -0.66,-0.24 -0.16,-0.16 -0.25,-0.37 -0.25,-0.62 0,-0.25 0.08,-0.46 0.25,-0.63 0.17,-0.17 0.37,-0.25 0.63,-0.25 0.26,0 0.46,0.08 0.61,0.26 0.15,0.17 0.23,0.4 0.23,0.7l0 0.03zm0.32 0.7l0 -1.63 0.51 0 0 0.33c0.07,-0.13 0.16,-0.23 0.25,-0.29 0.1,-0.06 0.21,-0.09 0.35,-0.09 0.1,0 0.19,0.02 0.27,0.05 0.08,0.03 0.14,0.08 0.19,0.15 0.04,0.06 0.07,0.12 0.09,0.2 0.02,0.08 0.03,0.2 0.03,0.35l0 0.93 -0.55 0 0 -0.87c0,-0.13 -0.02,-0.22 -0.06,-0.28 -0.04,-0.06 -0.11,-0.09 -0.2,-0.09 -0.11,0 -0.2,0.04 -0.25,0.13 -0.05,0.09 -0.08,0.23 -0.08,0.43l0 0.68 -0.54 0zm2.16 0l0 -1.22 -0.23 0 0 -0.41 0.23 0 0 -0.49 0.54 0 0 0.49 0.23 0 0 0.41 -0.23 0 0 1.22 -0.54 0z"/>
  </g>
 </g>
</svg>
