<?xml version="1.0" encoding="UTF-8"?>
<!DOCTYPE svg PUBLIC "-//W3C//DTD SVG 1.1//EN" "http://www.w3.org/Graphics/SVG/1.1/DTD/svg11.dtd">
<!-- Creator: CorelDRAW 2021.5 -->
<svg xmlns="http://www.w3.org/2000/svg" xml:space="preserve" width="11.0067mm" height="6.8341mm" version="1.1" style="shape-rendering:geometricPrecision; text-rendering:geometricPrecision; image-rendering:optimizeQuality; fill-rule:evenodd; clip-rule:evenodd"
viewBox="0 0 21.56 13.39"
 xmlns:xlink="http://www.w3.org/1999/xlink"
 xmlns:xodm="http://www.corel.com/coreldraw/odm/2003">
 <defs>
  <style type="text/css">
   <![CDATA[
    .fil0 {fill:#757575}
   ]]>
  </style>
 </defs>
 <g id="Слой_x0020_1">
  <metadata id="CorelCorpID_0Corel-Layer"/>
  <path class="fil0" d="M18.79 3.31l2.77 0 -0.27 1.45 -1.12 0 -0.26 1.36 1.01 0 -0.25 1.36 -1.01 0 -1.08 5.91 -1.64 0 1.86 -10.08zm-0.59 0l-1.68 0 -1.02 5.31c-0.07,0.36 -0.13,0.59 -0.18,0.69 -0.06,0.09 -0.13,0.14 -0.24,0.14 -0.09,0 -0.15,-0.05 -0.17,-0.13 -0.01,-0.09 0.01,-0.29 0.07,-0.61l1.04 -5.4 -1.69 0 -0.82 4.27c-0.15,0.81 -0.25,1.34 -0.27,1.6 -0.01,0.25 0.02,0.5 0.13,0.73 0.09,0.23 0.28,0.42 0.56,0.56 0.27,0.15 0.59,0.22 0.98,0.22 0.35,0 0.66,-0.06 0.95,-0.18 0.28,-0.12 0.52,-0.3 0.72,-0.53 0.2,-0.23 0.34,-0.46 0.41,-0.68 0.08,-0.22 0.17,-0.6 0.27,-1.16l0.92 -4.81 0 0zm-6.88 4.64c0.07,-0.82 0.18,-1.82 0.33,-3.02 -0.44,1.38 -0.73,2.37 -0.89,3.02l0.56 0zm1.72 -4.64l-0.52 7.21 -1.55 0 0.17 -1.31 -0.59 0 -0.36 1.31 -1.68 0 2.37 -7.21 2.17 0zm-3.5 0l-1.42 0 -0.62 3.25 -0.33 -3.25 -1.41 0 -1.38 7.21 1.42 0 0.63 -3.28 0.25 3.28 1.48 0 1.38 -7.21 0 0zm-4.53 0.06l-1.4 3.26 0.34 3.9 -1.55 0 -0.28 -2.58 -0.5 2.58 -1.62 0 1.69 -10.52 1.62 0 -0.83 5.76 1.03 -2.39 1.49 0z"/>
 </g>
</svg>
