<?xml version="1.0" encoding="UTF-8"?>
<!DOCTYPE svg PUBLIC "-//W3C//DTD SVG 1.1//EN" "http://www.w3.org/Graphics/SVG/1.1/DTD/svg11.dtd">
<!-- Creator: CorelDRAW 2021.5 -->
<svg xmlns="http://www.w3.org/2000/svg" xml:space="preserve" width="13.1233mm" height="2.4519mm" version="1.1" style="shape-rendering:geometricPrecision; text-rendering:geometricPrecision; image-rendering:optimizeQuality; fill-rule:evenodd; clip-rule:evenodd"
viewBox="0 0 32.47 6.07"
 xmlns:xlink="http://www.w3.org/1999/xlink"
 xmlns:xodm="http://www.corel.com/coreldraw/odm/2003">
 <defs>
  <style type="text/css">
   <![CDATA[
    .fil2 {fill:#757575}
    .fil0 {fill:#757575;fill-rule:nonzero}
    .fil1 {fill:#757575;fill-rule:nonzero}
   ]]>
  </style>
 </defs>
 <g id="Слой_x0020_1">
  <metadata id="CorelCorpID_0Corel-Layer"/>
  <g id="_2177061969728">
   <path class="fil0" d="M26.86 6.07c-0.12,0 -0.21,-0.04 -0.28,-0.11 -0.07,-0.07 -0.11,-0.16 -0.11,-0.27l0 -3c0,-0.1 0.04,-0.19 0.11,-0.26 0.07,-0.08 0.17,-0.12 0.28,-0.12l3.95 0c0.11,0 0.2,0.04 0.27,0.12 0.08,0.07 0.12,0.16 0.12,0.26l0 3c0,0.11 -0.04,0.2 -0.12,0.27 -0.07,0.07 -0.16,0.11 -0.27,0.11 -0.12,0 -0.21,-0.04 -0.28,-0.11 -0.07,-0.07 -0.11,-0.16 -0.11,-0.27l0 -2.63 -1.18 0 0 0.75c0,0.11 -0.04,0.2 -0.12,0.27 -0.07,0.07 -0.16,0.1 -0.27,0.1 -0.12,0 -0.21,-0.03 -0.28,-0.1 -0.07,-0.07 -0.11,-0.16 -0.11,-0.27l0 -0.75 -1.19 0 0 2.63c0,0.11 -0.04,0.2 -0.12,0.27 -0.07,0.07 -0.16,0.11 -0.27,0.11z"/>
   <path class="fil0" d="M21.72 6.07c-0.12,0 -0.21,-0.04 -0.28,-0.11 -0.07,-0.07 -0.11,-0.16 -0.11,-0.27l0 -3c0,-0.1 0.04,-0.19 0.11,-0.26 0.07,-0.08 0.17,-0.12 0.28,-0.12 0.11,0 0.2,0.04 0.27,0.12 0.08,0.07 0.12,0.16 0.12,0.26l0 2.44c0,0.06 0.02,0.1 0.05,0.14 0.04,0.03 0.09,0.05 0.15,0.05l2.76 0c0.05,0 0.09,-0.02 0.14,-0.05 0.04,-0.04 0.06,-0.09 0.06,-0.14l0 -2.44c0,-0.1 0.04,-0.19 0.11,-0.26 0.07,-0.08 0.17,-0.12 0.28,-0.12 0.11,0 0.2,0.04 0.27,0.12 0.08,0.07 0.12,0.16 0.12,0.26l0 3c0,0.11 -0.04,0.2 -0.12,0.27 -0.07,0.07 -0.16,0.11 -0.27,0.11l-3.95 0z"/>
   <path class="fil0" d="M18.56 6.07c-0.12,0 -0.21,-0.04 -0.28,-0.11 -0.07,-0.07 -0.11,-0.16 -0.11,-0.27l0 -2.63 -1.58 0c-0.12,0 -0.21,-0.04 -0.28,-0.11 -0.07,-0.07 -0.11,-0.16 -0.11,-0.27 0,-0.1 0.04,-0.19 0.11,-0.26 0.07,-0.08 0.17,-0.12 0.28,-0.12l3.95 0c0.11,0 0.2,0.04 0.27,0.12 0.08,0.07 0.12,0.16 0.12,0.26 0,0.11 -0.04,0.2 -0.12,0.27 -0.07,0.07 -0.16,0.11 -0.27,0.11l-1.58 0 0 2.63c0,0.11 -0.04,0.2 -0.12,0.27 -0.07,0.07 -0.16,0.11 -0.27,0.11z"/>
   <path class="fil0" d="M11.46 6.07c-0.12,0 -0.21,-0.04 -0.28,-0.11 -0.07,-0.07 -0.11,-0.16 -0.11,-0.27l0 -3c0,-0.1 0.04,-0.19 0.11,-0.26 0.07,-0.08 0.17,-0.12 0.28,-0.12 0.11,0 0.2,0.04 0.27,0.12 0.08,0.07 0.12,0.16 0.12,0.26l3.56 0c0.11,0 0.2,0.04 0.27,0.12 0.08,0.07 0.12,0.16 0.12,0.26l0 2.63c0,0.11 -0.04,0.2 -0.12,0.27 -0.07,0.07 -0.16,0.11 -0.27,0.11 -0.12,0 -0.21,-0.04 -0.28,-0.11 -0.07,-0.07 -0.11,-0.16 -0.11,-0.27l0 -2.25 -3.16 0 0 2.25c0,0.11 -0.04,0.2 -0.12,0.27 -0.07,0.07 -0.16,0.11 -0.27,0.11z"/>
   <path class="fil0" d="M7.11 4.56c-0.12,0 -0.21,-0.04 -0.28,-0.11 -0.07,-0.07 -0.11,-0.16 -0.11,-0.27 0,-0.1 0.04,-0.19 0.11,-0.26 0.07,-0.08 0.17,-0.12 0.28,-0.12l2.57 0c0.05,0 0.09,-0.02 0.14,-0.05 0.04,-0.04 0.06,-0.09 0.06,-0.14l0 -0.37c0,-0.05 -0.02,-0.09 -0.06,-0.13 -0.04,-0.04 -0.09,-0.06 -0.14,-0.06l-0.2 0 0 -0.75 0.79 0c0.11,0 0.2,0.04 0.27,0.12 0.08,0.07 0.12,0.16 0.12,0.26l0 1.5c0,0.11 -0.04,0.2 -0.12,0.27 -0.07,0.07 -0.16,0.11 -0.27,0.11l-3.16 0z"/>
   <path class="fil1" d="M8.69 3.06c-0.12,0 -0.21,-0.04 -0.28,-0.11 -0.07,-0.07 -0.11,-0.16 -0.11,-0.27 0,-0.1 0.04,-0.19 0.11,-0.26 0.07,-0.08 0.17,-0.12 0.28,-0.12 0.11,0 0.2,0.04 0.27,0.12 0.08,0.07 0.12,0.16 0.12,0.26 0,0.11 -0.04,0.2 -0.12,0.27 -0.07,0.07 -0.16,0.11 -0.27,0.11z"/>
   <path class="fil1" d="M7.5 3.06c-0.12,0 -0.21,-0.04 -0.28,-0.11 -0.07,-0.07 -0.11,-0.16 -0.11,-0.27 0,-0.1 0.04,-0.19 0.11,-0.26 0.07,-0.08 0.17,-0.12 0.28,-0.12 0.11,0 0.2,0.04 0.27,0.12 0.08,0.07 0.12,0.16 0.12,0.26 0,0.11 -0.04,0.2 -0.12,0.27 -0.07,0.07 -0.16,0.11 -0.27,0.11z"/>
   <path class="fil0" d="M5.53 6.07c-0.12,0 -0.21,-0.04 -0.28,-0.11 -0.07,-0.07 -0.11,-0.16 -0.11,-0.27l0 -3c0,-0.1 0.04,-0.19 0.11,-0.26 0.07,-0.08 0.17,-0.12 0.28,-0.12l1.18 0 0 0.75 -0.59 0c-0.06,0 -0.11,0.02 -0.15,0.06 -0.03,0.04 -0.05,0.08 -0.05,0.13l0 1.88c0,0.06 0.02,0.1 0.05,0.14 0.04,0.03 0.09,0.05 0.15,0.05l3.36 0c0.11,0 0.2,0.04 0.27,0.12 0.08,0.07 0.12,0.16 0.12,0.26 0,0.11 -0.04,0.2 -0.12,0.27 -0.07,0.07 -0.16,0.11 -0.27,0.11l-3.95 0z"/>
   <path class="fil0" d="M0.4 6.07c-0.12,0 -0.21,-0.04 -0.28,-0.11 -0.07,-0.07 -0.11,-0.16 -0.11,-0.27l0 -3c0,-0.1 0.04,-0.19 0.11,-0.26 0.07,-0.08 0.17,-0.12 0.28,-0.12 0.11,0 0.2,0.04 0.27,0.12 0.08,0.07 0.12,0.16 0.12,0.26l0 2.44c0,0.06 0.02,0.1 0.05,0.14 0.04,0.03 0.09,0.05 0.15,0.05l0.2 0 0.39 -0.38 0.4 -0.37 0.39 -0.38 0.4 -0.37 0.39 -0.38 0.4 -0.37 0.39 -0.38c0,-0.1 0.04,-0.19 0.11,-0.26 0.07,-0.08 0.17,-0.12 0.28,-0.12 0.11,0 0.2,0.04 0.27,0.12 0.08,0.07 0.12,0.16 0.12,0.26l0 0.38 -0.39 0.37 -0.4 0.38 -0.39 0.37 -0.4 0.38 -0.39 0.37 -0.4 0.38 -0.39 0.37 -0.4 0.38 -1.18 0z"/>
   <path class="fil1" d="M8.69 1.91c-0.12,0 -0.21,-0.04 -0.28,-0.11 -0.07,-0.07 -0.11,-0.16 -0.11,-0.27 0,-0.1 0.04,-0.19 0.11,-0.26 0.07,-0.08 0.17,-0.12 0.28,-0.12 0.11,0 0.2,0.04 0.27,0.12 0.08,0.07 0.12,0.16 0.12,0.26 0,0.11 -0.04,0.2 -0.12,0.27 -0.07,0.07 -0.16,0.11 -0.27,0.11z"/>
   <path class="fil1" d="M8.69 0.75c-0.12,0 -0.21,-0.04 -0.28,-0.11 -0.07,-0.07 -0.11,-0.16 -0.11,-0.27 0,-0.1 0.04,-0.19 0.11,-0.26 0.07,-0.08 0.17,-0.12 0.28,-0.12 0.11,0 0.2,0.04 0.27,0.12 0.08,0.07 0.12,0.16 0.12,0.26 0,0.11 -0.04,0.2 -0.12,0.27 -0.07,0.07 -0.16,0.11 -0.27,0.11z"/>
   <path class="fil1" d="M7.5 1.91c-0.12,0 -0.21,-0.04 -0.28,-0.11 -0.07,-0.07 -0.11,-0.16 -0.11,-0.27 0,-0.1 0.04,-0.19 0.11,-0.26 0.07,-0.08 0.17,-0.12 0.28,-0.12 0.11,0 0.2,0.04 0.27,0.12 0.08,0.07 0.12,0.16 0.12,0.26 0,0.11 -0.04,0.2 -0.12,0.27 -0.07,0.07 -0.16,0.11 -0.27,0.11z"/>
   <path class="fil1" d="M7.5 0.75c-0.12,0 -0.21,-0.04 -0.28,-0.11 -0.07,-0.07 -0.11,-0.16 -0.11,-0.27 0,-0.1 0.04,-0.19 0.11,-0.26 0.07,-0.08 0.17,-0.12 0.28,-0.12 0.11,0 0.2,0.04 0.27,0.12 0.08,0.07 0.12,0.16 0.12,0.26 0,0.11 -0.04,0.2 -0.12,0.27 -0.07,0.07 -0.16,0.11 -0.27,0.11z"/>
   <path class="fil2" d="M31.48 2.05c0,-0.14 0.05,-0.25 0.14,-0.33 0.09,-0.08 0.21,-0.13 0.35,-0.13 0.14,0 0.26,0.04 0.35,0.13 0.09,0.09 0.14,0.2 0.14,0.33 0,0.13 -0.05,0.24 -0.14,0.33 -0.09,0.09 -0.21,0.13 -0.35,0.13 -0.14,0 -0.26,-0.04 -0.35,-0.13 -0.09,-0.09 -0.14,-0.2 -0.14,-0.33zm0.13 0c0,0.1 0.03,0.19 0.1,0.26 0.07,0.07 0.16,0.11 0.26,0.11 0.11,0 0.19,-0.04 0.26,-0.11 0.07,-0.07 0.1,-0.15 0.1,-0.26 0,-0.1 -0.03,-0.19 -0.1,-0.26 -0.07,-0.07 -0.16,-0.1 -0.26,-0.1 -0.11,0 -0.19,0.03 -0.26,0.1 -0.07,0.07 -0.1,0.15 -0.1,0.26zm0.17 0.26l0 -0.51 0.2 0c0.14,0 0.21,0.05 0.21,0.15 0,0.08 -0.05,0.13 -0.14,0.14l0.14 0.22 -0.11 0 -0.13 -0.22 -0.07 0 0 0.22 -0.11 0zm0.11 -0.43l0 0.13 0.1 0c0.07,0 0.1,-0.02 0.1,-0.07 0,-0.04 -0.04,-0.06 -0.11,-0.06l-0.09 0z"/>
  </g>
 </g>
</svg>
