<?xml version="1.0" encoding="UTF-8"?>
<!DOCTYPE svg PUBLIC "-//W3C//DTD SVG 1.1//EN" "http://www.w3.org/Graphics/SVG/1.1/DTD/svg11.dtd">
<!-- Creator: CorelDRAW 2021.5 -->
<svg xmlns="http://www.w3.org/2000/svg" xml:space="preserve" width="13.1233mm" height="3.4276mm" version="1.1" style="shape-rendering:geometricPrecision; text-rendering:geometricPrecision; image-rendering:optimizeQuality; fill-rule:evenodd; clip-rule:evenodd"
viewBox="0 0 34.66 9.05"
 xmlns:xlink="http://www.w3.org/1999/xlink"
 xmlns:xodm="http://www.corel.com/coreldraw/odm/2003">
 <defs>
  <style type="text/css">
   <![CDATA[
    .fil1 {fill:#757575}
    .fil0 {fill:#757575;fill-rule:nonzero}
   ]]>
  </style>
 </defs>
 <g id="Слой_x0020_1">
  <metadata id="CorelCorpID_0Corel-Layer"/>
  <g id="_2177244182256">
   <polygon class="fil0" points="34.64,3.56 34.54,4.26 32.74,4.26 32.74,5.12 34.42,5.12 34.42,5.83 32.74,5.83 32.74,6.78 34.56,6.78 34.66,7.49 31.87,7.49 31.87,3.56 "/>
   <path class="fil0" d="M28.79 3.56l0 2.66c0,0.18 0.06,0.33 0.19,0.45 0.13,0.12 0.29,0.18 0.49,0.18 0.2,0 0.37,-0.06 0.49,-0.17 0.12,-0.12 0.19,-0.27 0.19,-0.45l0 -2.66 0.88 0 0 2.68c0,0.26 -0.06,0.49 -0.18,0.69 -0.12,0.2 -0.3,0.35 -0.52,0.46 -0.23,0.11 -0.49,0.16 -0.78,0.16l-0.16 0c-0.29,0 -0.55,-0.05 -0.78,-0.16 -0.22,-0.11 -0.4,-0.26 -0.52,-0.46 -0.12,-0.2 -0.18,-0.43 -0.18,-0.69l0 -2.68 0.88 0z"/>
   <polygon class="fil0" points="25.88,5.38 26.19,5.88 26.21,5.87 26.21,3.56 27.02,3.56 27.02,7.49 26.27,7.49 25.03,5.68 24.72,5.17 24.7,5.19 24.7,7.49 23.89,7.49 23.89,3.56 24.64,3.56 "/>
   <polygon class="fil0" points="23.17,3.56 23.07,4.26 21.28,4.26 21.28,5.12 22.95,5.12 22.95,5.83 21.28,5.83 21.28,6.78 23.09,6.78 23.19,7.49 20.4,7.49 20.4,3.56 "/>
   <polygon class="fil0" points="17.28,3.56 18.17,6.37 18.2,6.37 19.1,3.56 19.95,3.56 18.65,7.49 17.64,7.49 16.35,3.56 "/>
   <path class="fil0" d="M15.47 6.72l-1.56 0 -0.28 0.77 -0.85 0 1.43 -3.93 1.05 0 1.43 3.93 -0.93 0 -0.29 -0.77zm-0.76 -2.21l-0.03 0 -0.53 1.54 1.09 0 -0.53 -1.54z"/>
   <path class="fil1" d="M3.93 0l-3.93 9.05 15.42 -7.29 -8.5 3.03 -3 -4.8zm0.28 3.1l-1.16 2.87 2.21 -0.78 -1.04 -2.09z"/>
   <polygon class="fil1" points="7.96,6.49 6.42,7.19 6.63,7.49 8.54,7.49 "/>
  </g>
 </g>
</svg>
