<?xml version="1.0" encoding="UTF-8"?>
<!DOCTYPE svg PUBLIC "-//W3C//DTD SVG 1.1//EN" "http://www.w3.org/Graphics/SVG/1.1/DTD/svg11.dtd">
<!-- Creator: CorelDRAW 2021.5 -->
<svg xmlns="http://www.w3.org/2000/svg" xml:space="preserve" width="12.7mm" height="2.6419mm" version="1.1" style="shape-rendering:geometricPrecision; text-rendering:geometricPrecision; image-rendering:optimizeQuality; fill-rule:evenodd; clip-rule:evenodd"
viewBox="0 0 34.84 7.25"
 xmlns:xlink="http://www.w3.org/1999/xlink"
 xmlns:xodm="http://www.corel.com/coreldraw/odm/2003">
 <defs>
  <style type="text/css">
   <![CDATA[
    .fil2 {fill:#757575}
    .fil1 {fill:#B5B5B5}
    .fil0 {fill:#757575;fill-rule:nonzero}
   ]]>
  </style>
 </defs>
 <g id="Слой_x0020_1">
  <metadata id="CorelCorpID_0Corel-Layer"/>
  <g id="_2177245813280">
   <path class="fil0" d="M15.23 4.28l-0.14 0.78c-0.16,-0.08 -0.34,-0.11 -0.52,-0.11 -0.27,0 -0.49,0.1 -0.66,0.29 -0.16,0.18 -0.24,0.4 -0.24,0.65 0,0.19 0.06,0.33 0.18,0.43 0.11,0.09 0.26,0.14 0.45,0.14 0.07,0 0.14,-0.01 0.2,-0.02 0.1,-0.02 0.22,-0.05 0.36,-0.11l-0.15 0.8c-0.14,0.04 -0.28,0.07 -0.41,0.09 -0.13,0.02 -0.26,0.03 -0.38,0.03 -0.38,0 -0.7,-0.1 -0.94,-0.29 -0.27,-0.21 -0.4,-0.52 -0.4,-0.91 0,-0.49 0.16,-0.92 0.47,-1.26 0.35,-0.4 0.83,-0.6 1.43,-0.6 0.13,0 0.26,0.01 0.38,0.03 0.12,0.02 0.23,0.04 0.32,0.06l0.06 0.01zm3.14 -0.04l-0.55 2.96 -1.03 0 0.2 -1.09 -0.69 0 -0.2 1.09 -1.03 0 0.55 -2.96 1.03 0 -0.19 1.02 0.69 0 0.19 -1.02 1.03 0zm2.71 0l-0.13 0.7 -1.32 0 -0.08 0.43 1.26 0 -0.12 0.68 -1.26 0 -0.08 0.46 1.35 0 -0.13 0.7 -2.36 0 0.55 -2.96 2.33 0zm4.15 0l-0.55 2.96 -0.92 0 0.43 -2.33 -0.02 0 -0.96 2.33 -0.86 0 -0.08 -2.33 -0.03 0 -0.43 2.33 -0.88 0 0.55 -2.96 1.53 0 0.05 1.62 0.02 0 0.63 -1.62 1.52 0zm1.42 0l-0.55 2.96 -1.03 0 0.55 -2.96 1.03 0zm2.64 0.04l-0.14 0.78c-0.16,-0.08 -0.34,-0.11 -0.52,-0.11 -0.27,0 -0.49,0.1 -0.66,0.29 -0.16,0.18 -0.24,0.4 -0.24,0.65 0,0.19 0.06,0.33 0.18,0.43 0.11,0.09 0.26,0.14 0.45,0.14 0.07,0 0.14,-0.01 0.2,-0.02 0.1,-0.02 0.22,-0.05 0.36,-0.11l-0.15 0.8c-0.14,0.04 -0.28,0.07 -0.41,0.09 -0.13,0.02 -0.26,0.03 -0.38,0.03 -0.38,0 -0.7,-0.1 -0.94,-0.29 -0.27,-0.21 -0.4,-0.52 -0.4,-0.91 0,-0.49 0.16,-0.92 0.47,-1.26 0.35,-0.4 0.83,-0.6 1.43,-0.6 0.13,0 0.26,0.01 0.38,0.03 0.12,0.02 0.23,0.04 0.32,0.06l0.06 0.01zm2.89 2.92l-1.09 0 -0.07 -0.63 -0.81 0 -0.3 0.63 -1.03 0 1.49 -2.96 1.39 0 0.41 2.96zm-1.14 -1.33l-0.11 -0.93 -0.02 0 -0.45 0.93 0.57 0zm3.8 0.46l-0.16 0.88 -2.3 0 0.55 -2.96 1.03 0 -0.38 2.09 1.27 0z"/>
   <g>
    <path class="fil1" d="M2.29 0l-2.29 0 3.5 6.04c0.38,0.65 1.23,1.18 1.89,1.18l3.52 0c0.34,0 0.45,-0.16 0.59,-0.29 -0.26,0.14 -0.49,0.06 -0.58,-0.1l-1.75 -3.03 -0.6 -1.03 -0.58 -1 -0.34 -0.58c-0.38,-0.65 -1.23,-1.18 -1.89,-1.18l-1.46 0z"/>
    <path class="fil2" d="M5.97 1.76l0.58 1 1.42 0 -0.82 1.03 1.75 3.03c0.1,0.16 0.33,0.24 0.58,0.1l2.52 -3.17c0.68,-0.85 0.79,-1 1.54,-1 0.97,0 1.04,0.03 1.65,-0.74l1.62 -2.02 -9.44 0 -1.41 1.76z"/>
   </g>
  </g>
 </g>
</svg>
