<?xml version="1.0" encoding="UTF-8"?>
<!DOCTYPE svg PUBLIC "-//W3C//DTD SVG 1.1//EN" "http://www.w3.org/Graphics/SVG/1.1/DTD/svg11.dtd">
<!-- Creator: CorelDRAW 2021.5 -->
<svg xmlns="http://www.w3.org/2000/svg" xml:space="preserve" width="13.5467mm" height="5.2205mm" version="1.1" style="shape-rendering:geometricPrecision; text-rendering:geometricPrecision; image-rendering:optimizeQuality; fill-rule:evenodd; clip-rule:evenodd"
viewBox="0 0 42.65 16.44"
 xmlns:xlink="http://www.w3.org/1999/xlink"
 xmlns:xodm="http://www.corel.com/coreldraw/odm/2003">
 <defs>
  <style type="text/css">
   <![CDATA[
    .fil0 {fill:#757575;fill-rule:nonzero}
   ]]>
  </style>
 </defs>
 <g id="Слой_x0020_1">
  <metadata id="CorelCorpID_0Corel-Layer"/>
  <g id="_2176692243392">
   <path class="fil0" d="M41.67 11.19l0.24 0c0.05,0 0.09,-0.01 0.12,-0.02 0.03,-0.01 0.05,-0.03 0.07,-0.05 0.02,-0.02 0.02,-0.05 0.02,-0.08 0,-0.04 -0.01,-0.07 -0.04,-0.1 -0.03,-0.03 -0.08,-0.04 -0.14,-0.04l-0.27 0 0 0.28zm-0.11 0.48l0 -0.85 0.38 0c0.08,0 0.13,0.01 0.17,0.02 0.04,0.02 0.07,0.04 0.09,0.08 0.02,0.04 0.04,0.08 0.04,0.13 0,0.06 -0.02,0.11 -0.06,0.15 -0.04,0.04 -0.1,0.07 -0.18,0.08 0.03,0.01 0.05,0.03 0.07,0.04 0.03,0.03 0.06,0.07 0.09,0.11l0.15 0.23 -0.14 0 -0.11 -0.18c-0.03,-0.05 -0.06,-0.09 -0.08,-0.12 -0.02,-0.03 -0.04,-0.05 -0.06,-0.06 -0.02,-0.01 -0.03,-0.02 -0.05,-0.02 -0.01,-0 -0.03,-0 -0.06,-0l-0.13 0 0 0.38 -0.11 0z"/>
   <path class="fil0" d="M41.23 11.24c0,-0.36 0.29,-0.65 0.65,-0.65 0.36,0 0.65,0.29 0.65,0.65 0,0.36 -0.29,0.65 -0.65,0.65 -0.36,0 -0.65,-0.29 -0.65,-0.65zm-0.11 0c0,0.42 0.34,0.77 0.76,0.77 0.42,0 0.76,-0.34 0.76,-0.77 0,-0.42 -0.34,-0.76 -0.76,-0.76 -0.42,0 -0.76,0.34 -0.76,0.76z"/>
   <path class="fil0" d="M9.75 11.11l-2.69 0c1.17,3.11 4.17,5.33 7.7,5.33 1.46,0 2.84,-0.39 4.03,-1.06l0 -3.03c-1.04,1.01 -2.46,1.64 -4.03,1.64 -2.14,0 -4,-1.16 -5,-2.89z"/>
   <path class="fil0" d="M14.76 0c-3.72,0 -6.86,2.46 -7.87,5.85l2.6 0c0.91,-2.01 2.92,-3.4 5.27,-3.4 1.67,0 3.17,0.71 4.22,1.84l1.02 -2.4c-1.42,-1.18 -3.25,-1.88 -5.24,-1.88z"/>
   <path class="fil0" d="M19.86 11.59c-1.16,0 -1.81,-0.44 -1.81,-1.74l0 -2.12 1.24 0 0 2.25c0,0.37 0.07,0.69 0.58,0.69 0.44,0 0.57,-0.28 0.57,-0.69l0 -2.25 1.24 0 0 2.13c0,1.21 -0.56,1.73 -1.81,1.73z"/>
   <path class="fil0" d="M24.68 11.49c-0.03,-0.08 -0.07,-0.32 -0.07,-0.66 0,-0.5 -0.08,-0.66 -0.66,-0.66l-0.38 0 0 1.31 -1.23 0 0 -3.76 1.78 0c1.26,0 1.68,0.34 1.68,1.07 0,0.44 -0.2,0.8 -0.64,0.92 0.4,0.15 0.64,0.24 0.64,1 0,0.56 0.03,0.66 0.13,0.66l0 0.11 -1.25 0zm-0.52 -2.88l-0.57 0 0 0.75 0.49 0c0.38,0 0.59,-0.09 0.59,-0.36 0,-0.27 -0.21,-0.39 -0.5,-0.39z"/>
   <path class="fil0" d="M28.27 11.59c-1.18,0 -1.97,-0.73 -1.97,-2.01 0,-1.18 0.8,-1.95 1.97,-1.95 1.34,0 1.98,0.97 1.98,1.96 0,1.28 -0.86,2 -1.98,2zm-0.01 -3.04c-0.56,0 -0.73,0.57 -0.73,1.04 0,0.48 0.15,1.08 0.74,1.08 0.53,0 0.74,-0.46 0.74,-1.08 0,-0.51 -0.2,-1.04 -0.75,-1.04z"/>
   <polygon class="fil0" points="19.87,16.14 19.87,12.38 22.94,12.38 22.94,13.26 21.1,13.26 21.1,13.8 22.65,13.8 22.65,14.68 21.1,14.68 21.1,15.27 23.01,15.27 23.01,16.14 "/>
   <polygon class="fil0" points="26.89,16.14 26.89,14.99 26.9,14.41 26.96,13.73 26.95,13.73 26.27,16.14 25.41,16.14 24.73,13.73 24.72,13.73 24.77,14.29 24.8,14.87 24.8,16.14 23.69,16.14 23.69,12.38 25.18,12.38 25.84,14.73 26.5,12.38 27.99,12.38 27.99,16.14 "/>
   <polygon class="fil0" points="28.84,16.14 28.84,12.38 31.9,12.38 31.9,13.26 30.07,13.26 30.07,13.8 31.62,13.8 31.62,14.68 30.07,14.68 30.07,15.27 31.98,15.27 31.98,16.14 "/>
   <polygon class="fil0" points="35.18,16.14 33.84,14.1 33.88,14.95 33.88,16.14 32.7,16.14 32.7,12.38 33.85,12.38 35.2,14.43 35.15,13.58 35.15,12.38 36.33,12.38 36.33,16.14 "/>
   <polygon class="fil0" points="36.98,12.38 36.98,13.37 38.1,13.37 38.1,16.14 39.33,16.14 39.33,13.37 40.43,13.37 40.43,12.38 "/>
   <polygon class="fil0" points="2.57,5.47 0,11.49 15.93,11.49 16.56,10 2.66,10 3,9.22 16.89,9.22 17.52,7.74 3.63,7.74 3.96,6.96 17.85,6.96 18.48,5.47 "/>
  </g>
 </g>
</svg>
