<?xml version="1.0" encoding="UTF-8"?>
<!DOCTYPE svg PUBLIC "-//W3C//DTD SVG 1.1//EN" "http://www.w3.org/Graphics/SVG/1.1/DTD/svg11.dtd">
<!-- Creator: CorelDRAW 2021.5 -->
<svg xmlns="http://www.w3.org/2000/svg" xml:space="preserve" width="6.1202mm" height="10.16mm" version="1.1" style="shape-rendering:geometricPrecision; text-rendering:geometricPrecision; image-rendering:optimizeQuality; fill-rule:evenodd; clip-rule:evenodd"
viewBox="0 0 9.62 15.97"
 xmlns:xlink="http://www.w3.org/1999/xlink"
 xmlns:xodm="http://www.corel.com/coreldraw/odm/2003">
 <defs>
  <style type="text/css">
   <![CDATA[
    .fil0 {fill:#757575}
   ]]>
  </style>
 </defs>
 <g id="Слой_x0020_1">
  <metadata id="CorelCorpID_0Corel-Layer"/>
  <path class="fil0" d="M4.81 -0c-1.13,3.4 -2.27,6.8 -3.4,10.19 0,-0.98 0,-1.96 0,-2.95 0.17,0 0.34,0 0.52,0 0.11,-0.4 0.22,-0.81 0.33,-1.21 -0.75,0 -1.5,0 -2.25,0 0,1.91 0,3.82 0,5.73 0.92,5.6 8.7,5.6 9.62,0 0,-1.91 0,-3.82 0,-5.73 -0.75,0 -1.5,0 -2.25,0 0.11,0.4 0.22,0.81 0.33,1.21 0.17,0 0.34,0 0.52,0 0,0.98 0,1.96 0,2.95 -1.13,-3.4 -2.27,-6.8 -3.4,-10.19zm0 9.37c0.81,0 1.53,0.4 1.94,1.02l-1.94 -6.18 -1.94 6.18c0.41,-0.61 1.13,-1.02 1.94,-1.02zm2.31 2.2c0,0.01 0,0.02 0,0.03 0,1.23 -1.03,2.23 -2.31,2.23 -1.28,0 -2.31,-1 -2.31,-2.23 0,-0.01 0,-0.02 0,-0.03l-0.49 1.56c1.58,1.93 4.02,1.93 5.6,0l-0.49 -1.56z"/>
 </g>
</svg>
