<?xml version="1.0" encoding="UTF-8"?>
<!DOCTYPE svg PUBLIC "-//W3C//DTD SVG 1.1//EN" "http://www.w3.org/Graphics/SVG/1.1/DTD/svg11.dtd">
<!-- Creator: CorelDRAW 2021.5 -->
<svg xmlns="http://www.w3.org/2000/svg" xml:space="preserve" width="11.43mm" height="4.4646mm" version="1.1" style="shape-rendering:geometricPrecision; text-rendering:geometricPrecision; image-rendering:optimizeQuality; fill-rule:evenodd; clip-rule:evenodd"
viewBox="0 0 36.18 14.13"
 xmlns:xlink="http://www.w3.org/1999/xlink"
 xmlns:xodm="http://www.corel.com/coreldraw/odm/2003">
 <defs>
  <style type="text/css">
   <![CDATA[
    .fil0 {fill:#757575}
    .fil1 {fill:#757575}
    .fil2 {fill:#757575;fill-rule:nonzero}
   ]]>
  </style>
 </defs>
 <g id="Слой_x0020_1">
  <metadata id="CorelCorpID_0Corel-Layer"/>
  <g id="_2176832022288">
   <g>
    <path class="fil0" d="M23.18 14.03l3.07 0 0 -0.9 -1.97 0 0 -0.72 1.87 0c0.06,0 0.08,-0.02 0.08,-0.08l0 -0.85 -1.95 0 0 -0.67 1.97 0 0 -0.93 -3.07 0 0 4.14z"/>
    <path class="fil0" d="M18.73 12.52c0.16,0.69 0.56,1.2 1.16,1.43 0.86,0.34 1.95,0.19 2.57,-0.54 0.11,-0.13 0.24,-0.27 0.28,-0.45l-0.94 -0.41c-0.41,0.77 -1.24,0.72 -1.7,0.26 -0.67,-0.67 -0.28,-2.01 0.74,-2.03 0.44,-0.01 0.86,0.25 0.94,0.58l0.96 -0.41c-0.13,-0.57 -1.03,-1.12 -1.63,-1.13 -1.63,-0.04 -2.75,1.04 -2.38,2.69z"/>
    <polygon class="fil0" points="26.84,14.03 29.6,14.03 29.6,13.1 27.93,13.1 27.93,9.89 26.84,9.89 "/>
    <polygon class="fil0" points="30.14,14.03 32.9,14.03 32.9,13.1 31.23,13.1 31.23,9.89 30.14,9.89 "/>
   </g>
   <g>
    <path class="fil1" d="M21.43 7.07l-0.83 0 0 -4.85c1.33,0 3.15,-0.17 3.7,1.41 0.36,1.03 0.13,2.26 -0.68,2.9 -0.55,0.43 -1.22,0.54 -2.18,0.54zm-3.17 1.98l4.23 0c1.68,0 3.35,-1.04 4.02,-2.57 0.53,-1.2 0.47,-2.69 -0.06,-3.83 -0.92,-1.99 -2.96,-2.47 -5.02,-2.47l-3.17 0 0 8.88z"/>
    <path class="fil1" d="M14.86 6.47c0,1.18 -2.33,0.87 -3.55,0.05 -0.21,-0.14 -0.36,-0.3 -0.57,-0.43l-1.22 1.76c0.11,0.11 0.37,0.28 0.71,0.51 0.75,0.5 1.76,0.8 2.79,0.87l0.91 0c1.76,-0.12 3.32,-0.99 3.32,-2.81 0,-0.46 0,-0.7 -0.19,-1.14 -0.12,-0.27 -0.28,-0.4 -0.46,-0.59 -1.02,-1.01 -2.52,-0.99 -3.81,-1.41 -0.66,-0.22 -0.78,-0.82 -0.23,-1.08 0.61,-0.29 1.54,-0.06 2.07,0.14 0.49,0.18 1,0.57 1.12,0.6l1.28 -1.6c-0.25,-0.33 -1.12,-0.76 -1.53,-0.91 -0.56,-0.21 -1.22,-0.34 -1.89,-0.35l-0.27 0c-1.55,0.04 -3.07,0.68 -3.45,2.19 -0.26,1.02 0.11,1.98 0.95,2.56 0.42,0.29 0.8,0.39 1.34,0.55 0.85,0.25 2.68,0.39 2.68,1.1z"/>
    <path class="fil1" d="M31.36 2.36l-1.2 3.39 2.39 0 -1.2 -3.39zm-2.25 6.7l0.44 -1.32 1.82 -0 1.82 0 0.44 1.32 2.56 0 -3.33 -8.88 -0.08 0 -2.81 0 -0.08 0 -3.33 8.88 2.56 0z"/>
    <path class="fil1" d="M4.81 2.36l1.2 3.39 -2.39 0 1.2 -3.39zm2.25 6.7l-0.44 -1.32 -1.82 -0 -1.82 0 -0.44 1.32 -2.56 0 3.33 -8.88 0.08 0 2.81 0 0.08 0 3.33 8.88 -2.56 0z"/>
   </g>
   <g>
    <path class="fil2" d="M35.18 0c0.23,0 0.44,0.09 0.59,0.24 0.15,0.15 0.24,0.35 0.24,0.58 0,0.23 -0.09,0.43 -0.24,0.58 -0.15,0.15 -0.36,0.24 -0.59,0.24 -0.23,0 -0.44,-0.09 -0.59,-0.24 -0.15,-0.15 -0.24,-0.35 -0.24,-0.58 0,-0.23 0.09,-0.43 0.24,-0.58 0.15,-0.15 0.36,-0.24 0.59,-0.24zm0.48 0.34c-0.12,-0.12 -0.29,-0.2 -0.48,-0.2 -0.19,0 -0.36,0.08 -0.48,0.2 -0.12,0.12 -0.2,0.29 -0.2,0.48 0,0.19 0.08,0.36 0.2,0.48 0.12,0.12 0.29,0.2 0.48,0.2 0.19,0 0.36,-0.08 0.48,-0.2 0.12,-0.12 0.2,-0.29 0.2,-0.48 0,-0.19 -0.08,-0.36 -0.2,-0.48z"/>
    <path class="fil2" d="M34.89 1.26l0.2 0 0 -0.34 0.06 0c0.08,0 0.12,0.03 0.14,0.14 0.03,0.11 0.05,0.18 0.06,0.2l0.2 0c-0.02,-0.03 -0.04,-0.15 -0.07,-0.25 -0.02,-0.08 -0.06,-0.14 -0.12,-0.16l0 -0c0.08,-0.03 0.16,-0.1 0.16,-0.21 0,-0.08 -0.03,-0.14 -0.08,-0.18 -0.06,-0.05 -0.15,-0.07 -0.28,-0.07 -0.11,0 -0.2,0.01 -0.26,0.02l0 0.86zm0.2 -0.73c0.01,-0 0.04,-0.01 0.09,-0.01 0.09,0 0.15,0.04 0.15,0.12 0,0.08 -0.06,0.13 -0.16,0.13l-0.08 0 0 -0.24z"/>
   </g>
  </g>
 </g>
</svg>
