<?xml version="1.0" encoding="UTF-8"?>
<!DOCTYPE svg PUBLIC "-//W3C//DTD SVG 1.1//EN" "http://www.w3.org/Graphics/SVG/1.1/DTD/svg11.dtd">
<!-- Creator: CorelDRAW 2021.5 -->
<svg xmlns="http://www.w3.org/2000/svg" xml:space="preserve" width="85.7869mm" height="15.5305mm" version="1.1" style="shape-rendering:geometricPrecision; text-rendering:geometricPrecision; image-rendering:optimizeQuality; fill-rule:evenodd; clip-rule:evenodd"
viewBox="0 0 5432.62 983.5"
 xmlns:xlink="http://www.w3.org/1999/xlink"
 xmlns:xodm="http://www.corel.com/coreldraw/odm/2003">
 <defs>
  <style type="text/css">
   <![CDATA[
    .fil1 {fill:#FEFEFE}
    .fil3 {fill:black}
    .fil0 {fill:#FF0009}
    .fil2 {fill:black;fill-rule:nonzero}
   ]]>
  </style>
 </defs>
 <g id="Слой_x0020_1">
  <metadata id="CorelCorpID_0Corel-Layer"/>
  <g id="_1871764363696">
   <path class="fil0" d="M116.18 116.18c154.91,-154.9 406.07,-154.9 560.97,0 154.91,154.91 154.91,406.07 0,560.97 -154.9,154.9 -406.06,154.9 -560.97,0 -154.9,-154.9 -154.9,-406.06 0,-560.97z"/>
   <path class="fil1" d="M211.52 284.97l88.91 -88.91c61.66,-61.66 162.55,-61.66 224.2,0l0 0c61.66,61.66 61.66,162.55 0,224.2l-86.86 86.86 -77.54 -77.54 86.86 -86.85c19.01,-19.01 19.01,-50.12 0,-69.13l0 0c-19.01,-19 -50.11,-19 -69.12,0l-88.91 88.91 -77.54 -77.54z"/>
   <path class="fil1" d="M115.93 380.56l77.54 -77.54 196.58 196.58c35.09,35.09 92.51,35.09 127.61,0l0 0c0.76,-0.76 1.49,-1.53 2.22,-2.31l76.58 76.57c-4.58,5.91 -9.58,11.6 -15,17.01l0 0c-70.19,70.19 -185.04,70.19 -255.22,0l-210.32 -210.32z"/>
   <g>
    <g>
     <path class="fil2" d="M2108.09 109.56l0 574.22 114.03 0 0 -188.67 91.05 0c34.46,0 65.63,-4.1 92.7,-13.13 27.07,-9.02 50.03,-21.33 68.91,-37.73 18.87,-16.41 33.63,-36.91 43.47,-60.71 9.85,-23.92 14.77,-51.13 14.77,-81.62 0,-30.49 -4.92,-57.7 -14.77,-81.62 -9.84,-23.79 -24.61,-43.47 -43.47,-59.88 -18.87,-16.41 -41.84,-28.71 -68.91,-37.73 -27.07,-9.02 -58.24,-13.13 -92.7,-13.13l-205.08 0zm114.03 278.09l0 -11.82 0 -160.45 88.59 0c32.81,0 58.24,7.38 77.11,22.15 18.87,14.9 27.89,36.36 27.89,63.57 0,27.21 -9.02,48.67 -27.07,64.39 -17.96,15.51 -44.05,22.9 -77.45,22.97l0 0 -0.48 0 -88.59 0 0 -0.82z"/>
     <path class="fil2" d="M1390.53 109.56l0 316.86c0,52.28 -11.26,90.87 -32.97,115.81 -43.32,49.74 -150.09,49.74 -193.41,0 -21.71,-24.93 -32.97,-63.53 -32.97,-115.81l0 -316.86 -112.58 0 0.8 319.27c0,41.02 5.63,77.2 16.89,109.37 11.26,32.17 27.34,58.71 48.26,80.42 20.91,21.71 46.64,37.8 76.4,49.06 61.1,21.47 138.75,21.47 199.85,0 29.76,-11.26 55.49,-27.34 76.4,-49.06 20.91,-21.71 37,-48.25 48.26,-80.42 11.26,-32.17 16.89,-68.36 16.89,-109.37l0.8 -319.27 -112.59 0z"/>
     <path class="fil3" d="M2873.01 102c162.74,0 294.67,131.92 294.67,294.67 0,162.74 -131.93,294.66 -294.67,294.66 -162.74,0 -294.67,-131.92 -294.67,-294.66 0,-162.74 131.93,-294.67 294.67,-294.67zm-163.92 218.06c8.92,-22.7 21.08,-42.15 36.48,-58.37 15.4,-16.21 34.04,-28.37 55.93,-37.29 21.89,-8.92 45.4,-12.97 71.34,-12.97 25.94,0 49.45,4.86 71.34,13.78 21.89,8.92 40.53,21.89 55.93,38.1 15.4,16.22 27.56,35.67 36.48,58.37 8.92,22.7 12.97,47.82 12.97,75.39 0,26.75 -4.05,51.88 -12.97,74.57 -8.92,22.7 -21.08,42.16 -36.48,58.37 -15.4,16.21 -34.04,29.18 -55.93,38.1 -21.89,8.92 -46.21,13.78 -72.15,13.78 -25.94,0 -49.45,-4.05 -71.34,-12.97 -21.89,-8.92 -40.53,-21.08 -55.93,-37.29 -15.4,-16.21 -27.57,-35.67 -36.48,-58.37 -16.36,-41.64 -15.39,-111.97 0.81,-153.21z"/>
     <polygon class="fil3" points="3235.67,109.56 3349.69,109.56 3349.69,575.74 3633.52,575.74 3633.52,683.77 3349.69,683.77 3235.67,683.77 3235.67,575.74 "/>
     <polygon class="fil3" points="3701.52,109.56 3815.55,109.56 3815.55,683.77 3701.52,683.77 "/>
     <polygon class="fil3" points="3883.55,217.59 4063.19,217.59 4063.19,683.77 4177.22,683.77 4177.22,217.59 4356.86,217.59 4356.86,109.56 4177.22,109.56 4063.19,109.56 3883.55,109.56 "/>
     <polygon class="fil3" points="2039.4,167.57 2039.4,216.86 2039.4,216.86 1714.31,576.47 2040.08,576.47 2040.08,683.77 1562.64,683.77 1562.64,576.47 1887.73,216.86 1570.91,216.86 1570.91,109.56 2039.4,109.56 "/>
     <polygon class="fil3" points="4424.86,109.56 4538.88,109.56 4830.92,109.56 4830.92,217.59 4538.88,217.59 4538.88,338.42 4835.84,338.42 4835.84,438.5 4538.88,438.5 4538.88,575.74 4835.84,575.74 4835.84,683.77 4424.86,683.77 4424.86,655.7 4424.86,575.74 4424.86,438.5 4424.86,338.42 4424.86,217.59 "/>
     <polygon class="fil2" points="4896.28,683.77 5096.07,389.74 4905.69,109.56 5042.45,109.56 5164.45,289.11 5286.46,109.56 5423.21,109.56 5232.83,389.74 5432.62,683.77 5295.87,683.77 5164.45,490.37 5033.04,683.77 "/>
    </g>
    <g>
     <path class="fil3" d="M5401.18 938.23l-71.95 0 0 -26.15 103.39 0 0 16.38c0,13.25 -1.02,29.26 -9.96,39.86 -5.06,6 -11.86,9.49 -19.31,11.63 -9.94,2.84 -21.23,3.42 -31.51,3.42l-64.59 0c-17.06,0 -39.26,-1.65 -51.52,-15.18 -8.19,-9.04 -10.32,-21.32 -10.32,-33.13l0 -36.46c0,-12.39 2.11,-25.45 10.54,-35.08 12.22,-13.96 33.94,-16.01 51.29,-16.01l64.59 0c17.83,0 40.93,3.07 52.97,17.81 5.53,6.77 7.8,14.91 7.8,23.56l0 7 -31.4 0 0 -7c0,-3.29 -0.73,-6.45 -3,-8.94 -5.55,-6.05 -18.99,-6.29 -26.58,-6.29l-64.6 0c-5.66,0 -12.04,0.16 -17.57,1.47 -3.26,0.77 -6.56,2.03 -8.86,4.57 -4.14,4.57 -4.41,13.1 -4.41,18.9l0 36.46c0,5.34 0.49,12.41 4.46,16.48 2.43,2.49 5.89,3.69 9.21,4.39 5.45,1.17 11.61,1.29 17.17,1.29l64.6 0c5.47,0 11.56,-0.04 16.95,-1.06 3.01,-0.57 6.31,-1.55 8.52,-3.79 3.2,-3.24 3.92,-9.24 4.08,-14.13z"/>
     <polygon class="fil3" points="5115.42,946.24 5115.42,848.76 5146.25,848.76 5146.25,983.5 5113.06,983.5 4999.45,874.79 4999.45,983.5 4968.62,983.5 4968.62,848.76 5013.65,848.76 "/>
     <polygon class="fil3" points="4856.39,848.76 4856.39,983.5 4825.56,983.5 4825.56,848.76 "/>
     <path class="fil3" d="M4534.85 848.76l121.18 0c9.92,0 20.69,0.57 30.28,3.24 7.4,2.05 14.23,5.44 19.38,11.26 8.63,9.75 10.17,23.86 10.17,36.35l0 32.01c0,12.48 -1.8,26.06 -10.11,35.94 -11.7,13.91 -32.78,15.95 -49.72,15.95l-121.18 0 0 -134.74zm30.83 108.54l91.62 0c5.28,0 11.38,-0.19 16.5,-1.54 2.86,-0.76 5.7,-1.96 7.61,-4.31 3.74,-4.61 3.63,-14.22 3.63,-19.84l0 -32.01c0,-5.53 -0.05,-14.51 -3.87,-18.97 -1.98,-2.32 -4.89,-3.5 -7.78,-4.22 -5.09,-1.29 -11.07,-1.45 -16.3,-1.45l-91.41 0 0 82.34z"/>
     <polygon class="fil3" points="4321.6,957.3 4432.23,957.3 4432.23,983.5 4290.77,983.5 4290.77,848.76 4321.6,848.76 "/>
     <path class="fil3" d="M4189.03 935.05c0,12.16 -1.54,25.96 -10.3,35.2 -5.34,5.62 -12.42,8.64 -19.85,10.42 -9.69,2.31 -20.47,2.69 -30.4,2.69l-64.18 0c-17,0 -39.41,-1.48 -51.76,-14.85 -8.37,-9.07 -10.49,-21.54 -10.49,-33.46l0 -37.5c0,-12.25 2.01,-25.26 10.47,-34.7 12.29,-13.7 34.61,-15.35 51.78,-15.35l64.18 0c16.59,0 38.06,1.56 50,14.71 8.66,9.53 10.56,22.94 10.56,35.34l0 37.5zm-30.76 -38.54c0,-5.35 -0.27,-13.37 -4.22,-17.52 -2.25,-2.36 -5.54,-3.46 -8.65,-4.11 -5.42,-1.13 -11.61,-1.23 -17.14,-1.23l-64.18 0c-7.66,0 -20.85,0.12 -26.61,6.09 -4.07,4.22 -4.66,11.23 -4.66,16.77l0 38.54c0,5.37 0.51,12.46 4.52,16.52 2.48,2.51 6.01,3.7 9.38,4.39 5.52,1.14 11.74,1.25 17.37,1.25l64.18 0c5.64,0 11.96,-0.03 17.51,-1.04 3,-0.54 6.34,-1.51 8.52,-3.76 3.82,-3.94 3.97,-12.27 3.97,-17.36l0 -38.54z"/>
     <polygon class="fil3" points="3757.33,927.32 3757.33,983.5 3726.5,983.5 3726.5,848.76 3757.33,848.76 3757.33,901.12 3872.03,901.12 3872.03,848.76 3902.87,848.76 3902.87,983.5 3872.03,983.5 3872.03,927.32 "/>
    </g>
   </g>
  </g>
 </g>
</svg>
