<?xml version="1.0" encoding="UTF-8"?>
<!DOCTYPE svg PUBLIC "-//W3C//DTD SVG 1.1//EN" "http://www.w3.org/Graphics/SVG/1.1/DTD/svg11.dtd">
<!-- Creator: CorelDRAW 2021.5 -->
<svg xmlns="http://www.w3.org/2000/svg" xml:space="preserve" width="85.7867mm" height="15.5306mm" version="1.1" style="shape-rendering:geometricPrecision; text-rendering:geometricPrecision; image-rendering:optimizeQuality; fill-rule:evenodd; clip-rule:evenodd"
viewBox="0 0 2754.12 498.6"
 xmlns:xlink="http://www.w3.org/1999/xlink"
 xmlns:xodm="http://www.corel.com/coreldraw/odm/2003">
 <defs>
  <style type="text/css">
   <![CDATA[
    .fil3 {fill:#FEFEFE}
    .fil1 {fill:#FEFEFE}
    .fil0 {fill:#FF0009}
    .fil2 {fill:#FEFEFE;fill-rule:nonzero}
   ]]>
  </style>
 </defs>
 <g id="Слой_x0020_1">
  <metadata id="CorelCorpID_0Corel-Layer"/>
  <path class="fil0" d="M58.9 58.9c78.53,-78.53 205.86,-78.53 284.39,0 78.53,78.53 78.53,205.86 0,284.39 -78.53,78.53 -205.86,78.53 -284.39,0 -78.53,-78.53 -78.53,-205.86 0,-284.39z"/>
  <path class="fil1" d="M107.23 144.46l45.07 -45.07c31.26,-31.26 82.41,-31.26 113.66,0l0 0c31.26,31.26 31.26,82.41 0,113.66l-44.03 44.03 -39.31 -39.31 44.03 -44.03c9.64,-9.64 9.64,-25.41 0,-35.04l0 0c-9.64,-9.63 -25.4,-9.63 -35.04,0l-45.07 45.07 -39.31 -39.31 -0 -0z"/>
  <path class="fil1" d="M58.77 192.92l39.31 -39.31 99.66 99.66c17.79,17.79 46.9,17.79 64.69,0l0 0c0.39,-0.39 0.75,-0.78 1.13,-1.17l38.82 38.82c-2.32,3 -4.86,5.88 -7.61,8.62l0 0c-35.58,35.58 -93.81,35.58 -129.39,0l-106.62 -106.62 0.01 0.01z"/>
  <g id="_2193865286880">
   <g>
    <path class="fil2" d="M1068.71 55.54l0 291.11 57.81 0 0 -95.65 46.16 0c17.47,0 33.27,-2.08 46.99,-6.66 13.72,-4.57 25.36,-10.81 34.94,-19.13 9.57,-8.32 17.05,-18.71 22.04,-30.78 4.99,-12.13 7.49,-25.92 7.49,-41.38 0,-15.46 -2.49,-29.25 -7.49,-41.38 -4.99,-12.06 -12.48,-22.04 -22.04,-30.36 -9.57,-8.32 -21.21,-14.56 -34.94,-19.13 -13.72,-4.57 -29.53,-6.66 -46.99,-6.66l-103.97 0 -0 0zm57.81 140.98l0 -5.99 0 -81.34 44.91 0c16.63,0 29.53,3.74 39.09,11.23 9.57,7.55 14.14,18.43 14.14,32.23 0,13.8 -4.57,24.68 -13.72,32.64 -9.1,7.86 -22.33,11.61 -39.26,11.64l0 0 -0.24 0 -44.91 0 0 -0.41 0 0.01z"/>
    <path class="fil2" d="M704.94 55.54l0 160.64c0,26.51 -5.71,46.07 -16.71,58.71 -21.96,25.21 -76.09,25.21 -98.05,0 -11.01,-12.64 -16.71,-32.21 -16.71,-58.71l0 -160.64 -57.07 0 0.4 161.86c0,20.79 2.85,39.14 8.56,55.45 5.71,16.31 13.86,29.76 24.47,40.77 10.6,11.01 23.64,19.16 38.73,24.87 30.97,10.88 70.34,10.88 101.31,0 15.09,-5.71 28.13,-13.86 38.73,-24.87 10.6,-11.01 18.76,-24.46 24.47,-40.77 5.71,-16.31 8.56,-34.66 8.56,-55.45l0.4 -161.86 -57.08 0 -0.01 0z"/>
    <path class="fil3" d="M1456.5 51.7c82.5,0 149.38,66.88 149.38,149.38 0,82.5 -66.88,149.38 -149.38,149.38 -82.5,0 -149.38,-66.88 -149.38,-149.38 0,-82.5 66.88,-149.38 149.38,-149.38zm-83.1 110.55c4.52,-11.51 10.69,-21.37 18.5,-29.59 7.81,-8.22 17.26,-14.38 28.35,-18.9 11.1,-4.52 23.02,-6.57 36.17,-6.57 13.15,0 25.07,2.46 36.17,6.99 11.1,4.52 20.55,11.1 28.35,19.31 7.81,8.22 13.97,18.08 18.5,29.59 4.52,11.51 6.57,24.24 6.57,38.22 0,13.56 -2.05,26.3 -6.57,37.8 -4.52,11.51 -10.69,21.38 -18.5,29.59 -7.81,8.22 -17.26,14.79 -28.35,19.31 -11.1,4.52 -23.43,6.99 -36.58,6.99 -13.15,0 -25.07,-2.05 -36.17,-6.57 -11.1,-4.52 -20.55,-10.69 -28.35,-18.9 -7.81,-8.22 -13.98,-18.08 -18.5,-29.59 -8.29,-21.11 -7.8,-56.76 0.41,-77.67l0 0z"/>
    <polygon class="fil3" points="1640.35,55.54 1698.15,55.54 1698.15,291.87 1842.04,291.87 1842.04,346.64 1698.15,346.64 1640.35,346.64 1640.35,291.87 "/>
    <polygon class="fil3" points="1876.52,55.54 1934.33,55.54 1934.33,346.64 1876.52,346.64 "/>
    <polygon class="fil3" points="1968.8,110.3 2059.87,110.3 2059.87,346.64 2117.68,346.64 2117.68,110.3 2208.75,110.3 2208.75,55.54 2117.68,55.54 2059.87,55.54 1968.8,55.54 "/>
    <polygon class="fil3" points="1033.89,84.95 1033.89,109.93 1033.89,109.93 869.08,292.24 1034.23,292.24 1034.23,346.64 792.19,346.64 792.19,292.24 957,109.93 796.38,109.93 796.38,55.54 1033.89,55.54 "/>
    <polygon class="fil3" points="2243.22,55.54 2301.03,55.54 2449.08,55.54 2449.08,110.3 2301.03,110.3 2301.03,171.56 2451.57,171.56 2451.57,222.3 2301.03,222.3 2301.03,291.87 2451.57,291.87 2451.57,346.64 2243.22,346.64 2243.22,332.41 2243.22,291.87 2243.22,222.3 2243.22,171.56 2243.22,110.3 "/>
    <polygon class="fil2" points="2482.21,346.64 2583.5,197.58 2486.98,55.54 2556.32,55.54 2618.16,146.56 2680.02,55.54 2749.35,55.54 2652.83,197.58 2754.12,346.64 2684.79,346.64 2618.16,248.59 2551.55,346.64 "/>
   </g>
   <g>
    <path class="fil3" d="M2738.18 475.64l-36.48 0 0 -13.26 52.41 0 0 8.31c0,6.72 -0.52,14.83 -5.05,20.21 -2.57,3.04 -6.01,4.81 -9.79,5.89 -5.04,1.44 -10.76,1.73 -15.98,1.73l-32.74 0c-8.65,0 -19.9,-0.84 -26.12,-7.7 -4.15,-4.58 -5.23,-10.81 -5.23,-16.8l0 -18.48c0,-6.28 1.07,-12.9 5.34,-17.79 6.2,-7.08 17.2,-8.12 26,-8.12l32.74 0c9.04,0 20.75,1.56 26.86,9.03 2.8,3.43 3.96,7.56 3.96,11.94l0 3.55 -15.92 0 0 -3.55c0,-1.67 -0.37,-3.27 -1.52,-4.53 -2.81,-3.07 -9.63,-3.19 -13.47,-3.19l-32.75 0c-2.87,0 -6.1,0.08 -8.91,0.74 -1.65,0.39 -3.33,1.03 -4.49,2.32 -2.1,2.32 -2.23,6.64 -2.23,9.58l0 18.48c0,2.71 0.25,6.29 2.26,8.35 1.23,1.26 2.99,1.87 4.67,2.22 2.76,0.59 5.88,0.65 8.7,0.65l32.75 0c2.77,0 5.86,-0.02 8.59,-0.54 1.52,-0.29 3.2,-0.79 4.32,-1.92 1.62,-1.64 1.99,-4.68 2.07,-7.16l0.01 0z"/>
    <polygon class="fil3" points="2593.31,479.7 2593.31,430.28 2608.94,430.28 2608.94,498.59 2592.11,498.59 2534.52,443.48 2534.52,498.59 2518.89,498.59 2518.89,430.28 2541.72,430.28 "/>
    <polygon class="fil3" points="2461.99,430.28 2461.99,498.59 2446.36,498.59 2446.36,430.28 "/>
    <path class="fil3" d="M2298.98 430.28l61.43 0c5.03,0 10.49,0.29 15.35,1.64 3.75,1.04 7.21,2.76 9.82,5.71 4.38,4.94 5.16,12.1 5.16,18.43l0 16.23c0,6.33 -0.91,13.21 -5.12,18.22 -5.93,7.05 -16.62,8.09 -25.21,8.09l-61.43 0 0 -68.31 -0 -0.01zm15.63 55.02l46.45 0c2.68,0 5.77,-0.1 8.37,-0.78 1.45,-0.39 2.89,-1 3.86,-2.19 1.9,-2.34 1.84,-7.21 1.84,-10.06l0 -16.23c0,-2.8 -0.03,-7.36 -1.96,-9.62 -1,-1.18 -2.48,-1.78 -3.95,-2.14 -2.58,-0.65 -5.61,-0.74 -8.26,-0.74l-46.34 0 0 41.74 0 0z"/>
    <polygon class="fil3" points="2190.87,485.31 2246.96,485.31 2246.96,498.59 2175.25,498.59 2175.25,430.28 2190.87,430.28 "/>
    <path class="fil3" d="M2123.67 474.03c0,6.16 -0.78,13.16 -5.22,17.84 -2.71,2.85 -6.3,4.38 -10.06,5.28 -4.91,1.17 -10.38,1.36 -15.41,1.36l-32.54 0c-8.62,0 -19.98,-0.75 -26.24,-7.53 -4.24,-4.6 -5.32,-10.92 -5.32,-16.96l0 -19.01c0,-6.21 1.02,-12.81 5.31,-17.59 6.23,-6.94 17.54,-7.78 26.25,-7.78l32.54 0c8.41,0 19.29,0.79 25.35,7.46 4.39,4.83 5.35,11.63 5.35,17.92l0 19.01 -0.01 0zm-15.59 -19.54c0,-2.71 -0.14,-6.78 -2.14,-8.88 -1.14,-1.2 -2.81,-1.75 -4.39,-2.08 -2.75,-0.57 -5.88,-0.62 -8.69,-0.62l-32.54 0c-3.88,0 -10.57,0.06 -13.49,3.09 -2.06,2.14 -2.36,5.69 -2.36,8.5l0 19.54c0,2.72 0.26,6.32 2.29,8.38 1.26,1.27 3.05,1.87 4.75,2.22 2.8,0.58 5.95,0.63 8.81,0.63l32.54 0c2.86,0 6.06,-0.02 8.88,-0.53 1.52,-0.27 3.21,-0.76 4.32,-1.91 1.94,-2 2.01,-6.22 2.01,-8.8l0 -19.54 0.01 0z"/>
    <polygon class="fil3" points="1904.81,470.11 1904.81,498.59 1889.18,498.59 1889.18,430.28 1904.81,430.28 1904.81,456.83 1962.96,456.83 1962.96,430.28 1978.59,430.28 1978.59,498.59 1962.96,498.59 1962.96,470.11 "/>
   </g>
  </g>
 </g>
</svg>
